<?xml version="1.0" encoding="UTF-8" standalone="no"?>
<svg xmlns:rdf="http://www.w3.org/1999/02/22-rdf-syntax-ns#" xmlns="http://www.w3.org/2000/svg" height="24pt" width="24pt" version="1.0" preserveAspectRatio="xMidYMid meet" xmlns:cc="http://creativecommons.org/ns#" xmlns:dc="http://purl.org/dc/elements/1.1/" viewBox="0 0 64.000000 64.000000">
 <g transform="translate(0 64) scale(0.1 -0.1)" fill="#afafaf">
  <path fill="#afafaf" d="m255 525c-57-20-95-66-95-113 0-29 10-51 39-90 34-46 38-57 34-95-6-57 8-89 51-112 36-19 36-19 72 0 43 23 57 55 51 112-4 38 0 49 34 95 52 69 53 116 6 163-31 31-89 55-132 55-11-1-38-7-60-15zm135-50c29-15 48-54 41-85-2-8-18-31-36-51s-36-46-40-58c-9-29-61-29-70 0-4 12-22 38-40 58-37 41-42 55-32 93 14 52 113 76 177 43z"/>
 </g>
</svg>
