<?xml version="1.0" encoding="UTF-8" standalone="no"?>
<svg xmlns:rdf="http://www.w3.org/1999/02/22-rdf-syntax-ns#" xmlns="http://www.w3.org/2000/svg" xml:space="preserve" height="24" width="24" version="1.1" enable-background="new 0 0 24.00 24.00" xmlns:cc="http://creativecommons.org/ns#" xmlns:dc="http://purl.org/dc/elements/1.1/" viewBox="0 0 24.00 24.00"><path d="m21 5c-1.11-0.35-2.33-0.5-3.5-0.5-1.95 0-4.05 0.4-5.5 1.5-1.45-1.1-3.55-1.5-5.5-1.5s-4.05 0.4-5.5 1.5v14.65c0 0.25 0.25 0.5 0.5 0.5 0.1 0 0.15-0.05 0.25-0.05 1.35-0.65 3.3-1.1 4.75-1.1 1.95 0 4.05 0.4 5.5 1.5 1.35-0.85 3.8-1.5 5.5-1.5 1.65 0 3.35 0.3 4.75 1.05 0.1 0.05 0.15 0.05 0.25 0.05 0.25 0 0.5-0.25 0.5-0.5v-14.6c-0.6-0.45-1.25-0.75-2-1zm0 13.5c-1.1-0.35-2.3-0.5-3.5-0.5-1.7 0-4.15 0.65-5.5 1.5v-11.5c1.35-0.85 3.8-1.5 5.5-1.5 1.2 0 2.4 0.15 3.5 0.5v11.5z" stroke-width="1.3333" fill="#520a0a"/></svg>
