<?xml version="1.0" standalone="no"?>
<!DOCTYPE svg PUBLIC "-//W3C//DTD SVG 20010904//EN"
 "http://www.w3.org/TR/2001/REC-SVG-20010904/DTD/svg10.dtd">
<svg version="1.0" xmlns="http://www.w3.org/2000/svg"
 width="24.000000pt" height="24.000000pt" viewBox="0 0 64.000000 64.000000"
 preserveAspectRatio="xMidYMid meet">
<metadata>
Created by potrace 1.15, written by Peter Selinger 2001-2017
</metadata>
<g transform="translate(0.000000,64.000000) scale(0.100000,-0.100000)"
fill="#520a0a" stroke="none">
<path d="M260 611 c-167 -35 -274 -211 -227 -372 28 -95 99 -169 192 -202 l40
-14 -4 79 c-6 137 37 208 126 208 51 0 83 -14 83 -36 0 -8 5 -12 11 -8 7 4 8
22 5 48 -4 22 -8 55 -9 73 -4 63 -88 118 -167 111 -48 -5 -132 -41 -153 -67
-10 -12 -9 -13 8 -7 52 21 190 18 156 -4 -17 -10 -6 -43 12 -37 6 2 11 11 11
20 -1 13 2 14 18 6 25 -13 18 -32 -13 -34 -35 -3 -49 5 -49 27 0 18 -5 20 -41
15 -62 -8 -146 -54 -175 -95 l-26 -37 5 64 c4 49 12 73 37 110 120 175 370
155 460 -35 33 -71 26 -172 -16 -240 -16 -27 -37 -50 -46 -52 -9 -2 -31 10
-49 26 -27 24 -34 39 -39 83 l-6 54 -17 -37 c-9 -21 -17 -50 -17 -65 0 -36 45
-132 65 -139 22 -9 90 39 125 88 135 187 18 449 -210 471 -30 3 -71 2 -90 -2z
m77 -267 c10 3 24 2 31 -3 10 -6 4 -10 -19 -15 -49 -10 -76 -31 -103 -84 l-25
-47 -1 63 c0 54 4 66 25 88 24 23 26 24 49 8 14 -8 33 -13 43 -10z"/>
</g>
</svg>
