<?xml version="1.0" encoding="UTF-8" standalone="no"?>
<svg xmlns:rdf="http://www.w3.org/1999/02/22-rdf-syntax-ns#" xmlns="http://www.w3.org/2000/svg" xml:space="preserve" height="24" width="24" version="1.1" enable-background="new 0 0 24.00 24.00" xmlns:cc="http://creativecommons.org/ns#" xmlns:dc="http://purl.org/dc/elements/1.1/" viewBox="0 0 24.00 24.00"><path stroke-linejoin="round" d="m16.361 13.998c0.082-0.657 0.139-1.321 0.139-2s-0.057-1.343-0.139-2h3.376c0.166 0.64 0.263 1.308 0.263 2s-0.097 1.36-0.263 2m-5.144 5.561c0.6-1.113 1.056-2.311 1.379-3.561h2.949c-0.959 1.654-2.491 2.93-4.328 3.561zm-0.254-5.561h-4.6793c-0.095-0.655-0.16-1.319-0.16-2s0.065-1.345 0.16-2h4.6793c0.095 0.655 0.161 1.319 0.161 2s-0.066 1.345-0.161 2zm-2.341 5.964c-0.832-1.2-1.482-2.533-1.909-3.964h3.821c-0.428 1.431-1.078 2.764-1.912 3.964zm-3.9723-11.964h-2.949c0.958-1.656 2.49-2.934 4.328-3.5629-0.6 1.1129-1.056 2.3109-1.379 3.5629zm-2.949 8h2.949c0.323 1.251 0.779 2.45 1.379 3.563-1.838-0.629-3.37-1.907-4.328-3.563zm-0.816-2c-0.165-0.64-0.261-1.308-0.261-2s0.096-1.36 0.261-2h3.377c-0.082 0.657-0.138 1.321-0.138 2s0.056 1.343 0.138 2m4.3603-9.9639c0.834 1.2 1.484 2.5329 1.912 3.9639h-3.821c0.427-1.431 1.077-2.7639 1.909-3.9639zm6.923 3.9639h-2.949c-0.323-1.25-0.779-2.448-1.379-3.5609 1.837 0.6309 3.369 1.907 4.328 3.5609zm-6.927-6c-5.5263 0-9.9943 4.477-9.9943 10s4.468 10 9.9943 10c5.527 0 10.006-4.477 10.006-10s-4.479-10-10.006-10z" stroke-width=".2" fill="#520a0a"/><path d="m14.089 18.998h3v3h-3v-3m2-17c5.3536 0.2231 7.6774 5.6179 4.5 9.67-0.83 1-2.17 1.66-2.83 2.5-0.67 0.83-0.67 1.83-0.67 2.83h-3c0-1.67 0-3.08 0.67-4.08 0.66-1 2-1.59 2.83-2.25 2.4157-2.2399 1.82-5.4133-1.5-5.67-1.6569 0-3 1.3431-3 3h-3c0-3.3137 2.6863-6 6-6z" stroke-width="1.3333" fill="#520a0a"/></svg>
