<?xml version="1.0" encoding="UTF-8" standalone="no"?>
<svg xmlns:rdf="http://www.w3.org/1999/02/22-rdf-syntax-ns#" xmlns="http://www.w3.org/2000/svg" xml:space="preserve" viewBox="0 0 24 24" height="24" width="24" version="1.1" y="0px" x="0px" xmlns:cc="http://creativecommons.org/ns#" xmlns:dc="http://purl.org/dc/elements/1.1/"><g fill="#520a0a" transform="matrix(.22222 0 0 .22222 2 2.0001)"><g fill="#520a0a"><path fill="#520a0a" d="m88.42 49.504-15.74-37.461c-1.248-2.498-4.549-4.543-7.336-4.543h-10.244l1.9 20.322h13.5l-25.5 21.147-25.5-21.147h13.5l1.899-20.322h-10.241c-2.789 0-6.09 2.045-7.336 4.543l-15.74 37.461c-1.248 2.5-1.893 6.801-1.434 9.557l3.4 18.428c0.46 2.755 3.116 5.011 5.903 5.011h71.098c2.789 0 5.443-2.256 5.902-5.012l3.402-18.428c0.458-2.755-0.187-7.056-1.433-9.556zm-6.815 13.126-1.295 7.514c-0.387 2.885-2.984 5.243-5.771 5.243h-59.076c-2.787 0-5.385-2.358-5.773-5.243l-1.295-7.514c-0.387-2.885 1.578-5.243 4.365-5.243h64.48c2.789 0 4.752 2.358 4.365 5.243z"/></g></g></svg>
