<?xml version="1.0" standalone="no"?>
<!DOCTYPE svg PUBLIC "-//W3C//DTD SVG 20010904//EN"
 "http://www.w3.org/TR/2001/REC-SVG-20010904/DTD/svg10.dtd">
<svg version="1.0" xmlns="http://www.w3.org/2000/svg"
 width="24.000000pt" height="24.000000pt" viewBox="0 0 64.000000 64.000000"
 preserveAspectRatio="xMidYMid meet">
<metadata>
Created by potrace 1.15, written by Peter Selinger 2001-2017
</metadata>
<g transform="translate(0.000000,64.000000) scale(0.100000,-0.100000)"
fill="#520a0a" stroke="none">
<path d="M246 578 c4 -7 20 -29 36 -49 l28 -37 0 -221 c0 -190 2 -221 15 -221
13 0 15 31 15 221 l0 221 28 37 c50 63 51 61 -43 61 -66 0 -84 -3 -79 -12z"/>
<path d="M150 400 l0 -31 63 3 c59 3 62 4 62 28 0 24 -3 25 -62 28 l-63 3 0
-31z"/>
<path d="M376 423 c-9 -9 -7 -301 2 -307 7 -4 205 139 209 152 3 10 -204 162
-211 155z"/>
<path d="M90 315 l0 -25 96 0 c93 0 95 1 92 23 -3 21 -8 22 -95 25 l-93 3 0
-26z"/>
<path d="M40 225 l0 -25 120 0 120 0 0 25 0 25 -120 0 -120 0 0 -25z"/>
<path d="M110 135 c0 -26 0 -26 83 -23 76 3 82 5 85 26 3 21 1 22 -82 22 -85
0 -86 0 -86 -25z"/>
</g>
</svg>
