<?xml version="1.0" encoding="UTF-8" standalone="no"?>
<svg xmlns:rdf="http://www.w3.org/1999/02/22-rdf-syntax-ns#" xmlns="http://www.w3.org/2000/svg" xml:space="preserve" height="24" width="24" version="1.1" enable-background="new 0 0 24.00 24.00" xmlns:cc="http://creativecommons.org/ns#" xmlns:dc="http://purl.org/dc/elements/1.1/" viewBox="0 0 24.00 24.00"><path stroke-linejoin="round" d="m7.1107 19.125l2.2566 2.396-0.3863-2.638-2.4112-2.371 0.5409 2.613zm2.4304 2.875l-0.0221-0.002-0.0219-0.006-0.0168-0.008-0.0267-0.022-2.5406-2.697c-0.0153-0.016-0.0256-0.036-0.0301-0.058l-0.6282-3.034-0.0018-0.038c0.0019-0.015 0.0069-0.031 0.0146-0.044 0.0099-0.018 0.0243-0.033 0.0421-0.044l0.6747-0.413-1.0182-0.959c-0.0179-0.017-0.0301-0.038-0.0351-0.063l-0.8108-3.917-0.0016-0.039c0.002-0.016 0.0071-0.032 0.0149-0.045 0.0099-0.017 0.0243-0.033 0.0423-0.043l0.0102-0.006 1.0575-0.503-1.4627-1.1402c-0.0226-0.0176-0.0378-0.0424-0.0437-0.0703l-1.0777-5.205-0.0014-0.0397 0.0065-0.0264c0.0083-0.0225 0.0233-0.0424 0.0438-0.0567l0.0328-0.0162 4.8299-1.5045c0.029-0.0091 0.0603-0.0067 0.0878 0.0066l3.5412 1.7087 0.014 0.0077c0.032 0.0212 0.052 0.0565 0.054 0.0952l0.22 5.1631c0.002 0.0465-0.023 0.09-0.064 0.1116l-1.314 0.6839 1.404 0.9432 0.007 0.005c0.029 0.023 0.047 0.059 0.046 0.097l0.058 1.364 1.35-0.825c0.039-0.024 0.089-0.023 0.128 0.002l0.938 0.62 0.025-1.224c0-0.041 0.022-0.079 0.057-0.1l2.305-1.4092c0.037-0.0227 0.083-0.0235 0.121-0.0028l2.731 1.513 0.004 0.003c0.034 0.02 0.056 0.056 0.058 0.095l-0.001 0.023-0.379 2.805c-0.004 0.031-0.02 0.059-0.044 0.078l-2.137 1.704c-0.008 0.006-0.016 0.01-0.024 0.014-0.016 0.008-0.034 0.012-0.053 0.012-0.012-0.001-0.025-0.003-0.038-0.007-0.005-0.002-0.011-0.005-0.017-0.007-0.006-0.004-0.012-0.008-0.017-0.012l-0.791-0.551-0.08 1.311c-0.002 0.034-0.018 0.066-0.045 0.087l-2.615 2.085-0.028 0.019c-0.016 0.008-0.034 0.012-0.051 0.012-0.018 0-0.036-0.004-0.052-0.012l-0.026-0.017-1.091-0.918 0.076 1.787c0.002 0.038-0.015 0.075-0.045 0.099l-3.2683 2.604-0.0225 0.014c-0.0165 0.008-0.0344 0.012-0.0521 0.012zm7.3439-8.8c0.014 0.01 0.025 0.022 0.034 0.035 0.012 0.019 0.019 0.041 0.02 0.063l-0.001 0.01-0.08 1.329 0.747 0.52 0.225-2.607-2.529-1.576-0.023 1.165 1.607 1.061zm-3.008 2.179l-1.153-0.881 0.009 0.207c0.002 0.041-0.018 0.081-0.053 0.104l-0.87 0.586 0.946 0.772 0.027 0.031c0.01 0.017 0.016 0.036 0.017 0.057l0.039 0.903 1.061 0.893-0.023-2.672zm-7.7188-0.852l2.5343 2.387-0.5348-3.654-2.7333-2.277 0.7338 3.544zm-1.1953-5.7702l2.8628 2.2312-0.759-5.1822-3.1157-1.9374 1.0119 4.8884zm13.108 3.7962l-0.221 2.553 1.881-1.5 0.335-2.482-1.995 1.429zm-3.932 5.51l2.386-1.902 0.159-2.617-2.567 1.836 0.022 2.683zm-1.452 1.158l-0.117-2.735-3.3471 2.395 0.4067 2.775 3.0574-2.435zm-5.3772-13.41l0.7722 5.271 4.164-2.1666-0.211-4.9203-4.7252 1.8159zm1.0904 7.45l0.5519 3.771 3.5379-2.384-0.154-3.627-3.9358 2.24z" fill="#520a0a"/></svg>
