<?xml version="1.0" encoding="UTF-8" standalone="no"?>
<!-- Created with Inkscape (http://www.inkscape.org/) -->
<svg id="svg2" xmlns:rdf="http://www.w3.org/1999/02/22-rdf-syntax-ns#" xmlns="http://www.w3.org/2000/svg" height="64" width="64" version="1.1" xmlns:cc="http://creativecommons.org/ns#" xmlns:dc="http://purl.org/dc/elements/1.1/" viewBox="0 0 63.999999 63.999999">
 <metadata id="metadata7">
  <rdf:RDF>
   <cc:Work rdf:about="">
    <dc:format>image/svg+xml</dc:format>
    <dc:type rdf:resource="http://purl.org/dc/dcmitype/StillImage"/>
    <dc:title/>
   </cc:Work>
  </rdf:RDF>
 </metadata>
 <g id="layer1" transform="translate(0 -988.36)">
  <g id="g4135" fill="#520a0a">
   <path id="path4380" d="m32.582 2.9102a27.949 27.949 0 0 0 -27.949 27.949 27.949 27.949 0 0 0 27.949 27.95 27.949 27.949 0 0 0 27.949 -27.95 27.949 27.949 0 0 0 -27.949 -27.949zm0.727 1.1445a25.951 25.951 0 0 1 25.951 25.951 25.951 25.951 0 0 1 -25.951 25.949 25.951 25.951 0 0 1 -25.95 -25.949 25.951 25.951 0 0 1 25.95 -25.951z" transform="translate(0 988.36)"/>
   <path id="path4412" d="m32.215 18.129a12.849 12.849 0 0 0 -12.85 12.85 12.849 12.849 0 0 0 12.85 12.848 12.849 12.849 0 0 0 12.85 -12.848 12.849 12.849 0 0 0 -12.85 -12.85zm-3.2578 7.0781 9.2148 5.584-9.2148 5.8652v-11.449zm25.849 3.086a20 20 0 0 1 -20 20 20 20 0 0 1 -20 -20 20 20 0 0 1 20 -20 20 20 0 0 1 20 20z" fill-rule="evenodd" transform="translate(0 988.36)"/>
  </g>
 </g>
</svg>
