<?xml version="1.0" encoding="UTF-8" standalone="no"?>
<svg id="svg2" xmlns:rdf="http://www.w3.org/1999/02/22-rdf-syntax-ns#" xmlns="http://www.w3.org/2000/svg" height="24" width="24" version="1.1" xmlns:cc="http://creativecommons.org/ns#" xmlns:dc="http://purl.org/dc/elements/1.1/" viewBox="0 0 24 24">
 <metadata id="metadata10">
  <rdf:RDF>
   <cc:Work rdf:about="">
    <dc:format>image/svg+xml</dc:format>
    <dc:type rdf:resource="http://purl.org/dc/dcmitype/StillImage"/>
    <dc:title/>
   </cc:Work>
  </rdf:RDF>
 </metadata>
 <path id="path4" fill="#520a0a" d="m4.37 7.3c0.03-0.25-0.07-0.49-0.25-0.65l-1.87-2.25v-0.34h5.8l4.48 9.83 3.94-9.83h5.53v0.34l-1.6 1.53c-0.13 0.1-0.2 0.28-0.17 0.45v11.24c-0.03 0.17 0.04 0.35 0.17 0.45l1.56 1.53v0.34h-7.84v-0.34l1.61-1.57c0.16-0.15 0.16-0.2 0.16-0.44v-9.09l-4.49 11.4h-0.6l-5.23-11.4v7.64c-0.07 0.32 0.06 0.64 0.29 0.86l2.1 2.57v0.33h-5.96v-0.33l2.1-2.57c0.23-0.22 0.33-0.54 0.27-0.86v-8.84z"/>
</svg>
