<?xml version="1.0" encoding="UTF-8" standalone="no"?>
<svg id="svg2" xmlns:rdf="http://www.w3.org/1999/02/22-rdf-syntax-ns#" xmlns="http://www.w3.org/2000/svg" height="50px" width="50px" version="1.1" xmlns:cc="http://creativecommons.org/ns#" xmlns:dc="http://purl.org/dc/elements/1.1/" viewBox="0 0 32 32">
 <metadata id="metadata10">
  <rdf:RDF>
   <cc:Work rdf:about="">
    <dc:format>image/svg+xml</dc:format>
    <dc:type rdf:resource="http://purl.org/dc/dcmitype/StillImage"/>
    <dc:title/>
   </cc:Work>
  </rdf:RDF>
 </metadata>
 <path id="path4" fill="#520a0a" d="m19.006 6.0039c-4.333 0-7.718 1.1073-10.778 2.6523-1.9115 0.978-3.228 2.2008-3.228 2.2008s0.6094 2.653 3.4414 6.547c2.2366 2.857 4.0226 4.258 6.1606 5.862 3.639 2.61 6.627 3.732 6.627 3.732s0.142 0.105-2.393-1.762c-1.942-1.526-2.039-1.707-2.039-1.707s-0.186-0.596-0.342-1.15c-5.084-3.586-6.7968-9.815-6.7968-9.815s5.4678-4.6795 12.52-4.4605l0.283-0.7871s1.061-0.1589 3.539-0.0859c-3.554-1.356-6.994-1.2266-6.994-1.2266zm5.584 3.3789c-7.028-0.061-11.16 4.8182-11.16 4.8182s0.693 3.265 3.119 6.026c-0.347-2.913-0.307-5.081-0.307-5.081s3.454-3.674 8.348-3.584c4.587 0.032 7.41 3.02 7.41 3.02s-1.823-2.714-4.717-4.33c0 0 0.28-0.3806 0.6-0.5176 0.001-0.001-1.506-0.3216-3.293-0.3516zm-20.278 6.5682c-0.976 0.652-1.9515 0.224-4.3125 1.305 3.021 3.61 5.5404 5.727 9.4844 7.547h1.3986s2.426 0.605 5.117 1.197c-7.664-3.27-11.688-10.049-11.688-10.049z"/>
</svg>
