<?xml version="1.0" encoding="UTF-8" standalone="no"?>
<svg xmlns:rdf="http://www.w3.org/1999/02/22-rdf-syntax-ns#" xmlns="http://www.w3.org/2000/svg" xml:space="preserve" height="24" width="24" version="1.1" enable-background="new 0 0 24.00 24.00" xmlns:cc="http://creativecommons.org/ns#" xmlns:dc="http://purl.org/dc/elements/1.1/" viewBox="0 0 24.00 24.00"><g fill="#520a0a" transform="matrix(.92388 -.38268 .38268 .92388 -3.6788 5.5056)"><path d="m12 11.18c3.3-3 5-4.54 5-6.4903-0.017-1.5022-1.248-2.7064-2.75-2.6897-0.858-0.004-1.678 0.3601-2.25 1-0.572-0.6399-1.392-1.004-2.3103-1-1.5022 0.0167-2.7064 1.2479-2.6897 2.75 0 1.89 1.7 3.43 5 6.43zm-0.82 0.82c-3-3.3-4.54-5-6.4903-5-1.5022 0.0167-2.7064 1.2479-2.6897 2.75-0.004 0.858 0.3601 1.678 1 2.25-0.6399 0.572-1.004 1.392-1 2.31 0.0167 1.502 1.2479 2.707 2.75 2.69 1.89 0 3.43-1.7 6.43-5zm1.65 0c2.99 3.3 4.53 5 6.4803 5 1.502-0.017 2.707-1.248 2.69-2.75 0.004-0.858-0.36-1.678-1-2.25 0.64-0.572 1.004-1.392 1-2.3103-0.017-1.5022-1.248-2.7064-2.75-2.6897-1.89 0-3.43 1.7-6.42 5zm-0.82 0.82c-3.31 3-5.01 4.54-5.01 6.49 0.0167 1.502 1.2479 2.707 2.75 2.69 0.8585 0.004 1.6776-0.3601 2.25-1 0.5724 0.6399 1.3915 1.004 2.3103 1 1.5022-0.0167 2.7064-1.2479 2.6897-2.75 0-1.89-1.7-3.43-4.99-6.43z" stroke-width="1.3333" fill="#520a0a"/></g></svg>
