<?xml version="1.0" encoding="UTF-8" standalone="no"?>
<svg id="svg2" xmlns:rdf="http://www.w3.org/1999/02/22-rdf-syntax-ns#" xmlns="http://www.w3.org/2000/svg" xml:space="preserve" height="24" width="24" version="1.1" enable-background="new 0 0 24.00 24.00" xmlns:cc="http://creativecommons.org/ns#" xmlns:dc="http://purl.org/dc/elements/1.1/" viewBox="0 0 24.00 24.00"><metadata id="metadata10"><rdf:RDF><cc:Work rdf:about=""><dc:format>image/svg+xml</dc:format><dc:type rdf:resource="http://purl.org/dc/dcmitype/StillImage"/><dc:title/></cc:Work></rdf:RDF></metadata><path id="path4" stroke-linejoin="round" d="m11.432 10.935c-0.232 0.747-0.564 1.539-1.016 2.408-0.196 0.379-0.388 0.735-0.4925 1.036l0.1085-0.042v0.001c1.27-0.49 2.47-0.77 3.342-0.925-0.152-0.107-0.294-0.216-0.418-0.324-0.592-0.509-1.114-1.249-1.524-2.154zm6.474 3.813c-0.162 0.194-0.468 0.299-0.898 0.299-0.766 0-1.978-0.229-2.986-0.739-1.744 0.181-3.032 0.419-4.0475 0.75-0.053 0.02-0.117 0.044-0.184 0.071-1.243 2.122-2.161 3.069-2.974 3.069-0.153 0-0.301-0.035-0.439-0.104l-0.48-0.315-0.023-0.052c-0.079-0.173-0.093-0.345-0.053-0.539 0.106-0.529 0.654-1.365 1.882-2.118 0.19-0.139 0.485-0.303 0.89-0.49 0.296-0.522 0.616-1.128 0.952-1.805 0.5125-1.025 0.8305-2.044 1.0865-2.9239l-0.004-0.012c-0.368-1.211-0.59-1.939-0.218-3.265 0.108-0.386 0.418-0.776 0.794-0.776l0.236 0.002c0.234 0 0.446 0.0839 0.608 0.244 0.658 0.6589 0.356 2.267 0.022 3.595-0.016 0.065-0.028 0.109-0.036 0.141 0.394 1.1279 0.96 2.0349 1.596 2.5569 0.256 0.202 0.546 0.399 0.862 0.585 0.456-0.05 0.892-0.074 1.298-0.074 1.24 0 1.986 0.224 2.278 0.687 0.106 0.165 0.15 0.356 0.124 0.551-0.008 0.254-0.106 0.482-0.286 0.662zm1.094-11.75h-14c-1.1055 0-2.0005 0.895-2.0005 2v14c0 1.104 0.895 2 2 2h14c1.104 0 2-0.896 2-2v-14c0-1.1049-0.896-1.9999-2-1.9999zm-1.488 11.044c-0.11-0.107-0.52-0.356-1.916-0.356-0.07 0-0.14 0-0.23 0.1 0.738 0.321 1.448 0.512 1.902 0.512 0.07 0 0.136-0.005 0.196-0.014l0.034-0.007c0.048-0.016 0.08-0.031 0.09-0.129-0.016-0.025-0.038-0.064-0.076-0.106zm-9.1825 1.454c-0.212 0.124-0.376 0.232-0.476 0.315-0.716 0.649-1.16 1.305-1.215 1.693 0.454-0.157 1.043-0.813 1.691-2.008zm3.0165-6.905l0.054-0.0379c0.072-0.3241 0.12-0.601 0.16-0.823l0.03-0.163c0.098-0.541 0.084-0.853-0.096-1.095l-0.148-0.05c-0.02 0.029-0.048 0.072-0.068 0.118-0.166 0.415-0.16 1.149 0.068 2.0509z" stroke-width=".2" fill="#520a0a"/></svg>
