<?xml version="1.0" standalone="no"?>
<!DOCTYPE svg PUBLIC "-//W3C//DTD SVG 20010904//EN"
 "http://www.w3.org/TR/2001/REC-SVG-20010904/DTD/svg10.dtd">
<svg version="1.0" xmlns="http://www.w3.org/2000/svg"
 width="24.000000pt" height="24.000000pt" viewBox="0 0 64.000000 64.000000"
 preserveAspectRatio="xMidYMid meet">
<metadata>
Created by potrace 1.15, written by Peter Selinger 2001-2017
</metadata>
<g transform="translate(0.000000,64.000000) scale(0.100000,-0.100000)"
fill="#520a0a" stroke="none">
<path d="M224 620 c-54 -17 -128 -73 -161 -123 -43 -64 -56 -117 -51 -203 8
-114 65 -200 171 -256 35 -19 58 -23 137 -23 86 0 100 3 148 29 60 33 101 76
134 139 19 35 23 58 23 137 0 79 -4 102 -23 137 -33 63 -75 106 -134 138 -44
24 -67 29 -133 32 -44 1 -94 -2 -111 -7z m112 -171 c31 -29 37 -62 20 -104
-15 -34 -14 -35 8 -35 19 0 21 4 18 34 -7 64 63 101 108 56 24 -24 26 -72 5
-90 -11 -9 -15 -32 -15 -81 l0 -69 -120 0 -120 0 0 64 c0 58 -3 67 -30 94 -47
48 -39 115 18 147 33 19 78 12 108 -16z m-154 -209 c3 -49 2 -50 -24 -50 -27
0 -28 2 -28 50 0 46 2 50 24 50 22 0 24 -5 28 -50z m48 -5 c0 -24 -5 -35 -15
-35 -10 0 -15 11 -15 35 0 24 5 35 15 35 10 0 15 -11 15 -35z"/>
<path d="M250 405 c-17 -20 -8 -49 16 -53 30 -4 48 21 34 47 -13 25 -33 27
-50 6z"/>
<path d="M424 359 c-3 -6 -2 -15 4 -21 13 -13 32 -2 32 18 0 16 -26 19 -36 3z"/>
</g>
</svg>
