<?xml version="1.0" encoding="UTF-8" standalone="no"?>
<svg id="svg2" xmlns:rdf="http://www.w3.org/1999/02/22-rdf-syntax-ns#" xmlns="http://www.w3.org/2000/svg" xml:space="preserve" height="24" width="24" version="1.1" enable-background="new 0 0 24.00 24.00" xmlns:cc="http://creativecommons.org/ns#" xmlns:dc="http://purl.org/dc/elements/1.1/" viewBox="0 0 24.00 24.00"><metadata id="metadata10"><rdf:RDF><cc:Work rdf:about=""><dc:format>image/svg+xml</dc:format><dc:type rdf:resource="http://purl.org/dc/dcmitype/StillImage"/><dc:title/></cc:Work></rdf:RDF></metadata><path id="path4" d="m12 3c-4.4183 0-8 1.7909-8 4s3.5817 4 8 4c4.418 0 8-1.7909 8-4s-3.582-4-8-4zm-8 6v3c0 2.209 3.5817 4 8 4 4.418 0 8-1.791 8-4v-3c0 2.209-3.582 4-8 4-4.4183 0-8-1.791-8-4zm0 5v3c0 2.209 3.5817 4 8 4 4.418 0 8-1.791 8-4v-3c0 2.209-3.582 4-8 4-4.4183 0-8-1.791-8-4z" stroke-width=".2" fill="#520a0a"/></svg>
