<?xml version="1.0" standalone="no"?>
<!DOCTYPE svg PUBLIC "-//W3C//DTD SVG 20010904//EN"
 "http://www.w3.org/TR/2001/REC-SVG-20010904/DTD/svg10.dtd">
<svg version="1.0" xmlns="http://www.w3.org/2000/svg"
 width="24.000000pt" height="24.000000pt" viewBox="0 0 64.000000 64.000000"
 preserveAspectRatio="xMidYMid meet">
<metadata>
Created by potrace 1.15, written by Peter Selinger 2001-2017
</metadata>
<g transform="translate(0.000000,64.000000) scale(0.100000,-0.100000)"
fill="#520a0a" stroke="none">
<path d="M56 559 c-45 -35 -36 -66 72 -264 119 -218 123 -225 141 -247 19 -24
83 -24 103 0 8 9 54 89 103 177 48 88 98 179 111 203 31 55 31 102 1 130 -31
30 -72 28 -104 -4 -22 -23 -25 -30 -18 -67 21 -112 6 -154 -62 -183 -24 -10
-39 -11 -60 -3 -44 16 -59 35 -114 137 -77 143 -113 168 -173 121z"/>
</g>
</svg>
