<?xml version="1.0" encoding="UTF-8" standalone="no"?>
<svg
   xmlns:dc="http://purl.org/dc/elements/1.1/"
   xmlns:cc="http://creativecommons.org/ns#"
   xmlns:rdf="http://www.w3.org/1999/02/22-rdf-syntax-ns#"
   xmlns:svg="http://www.w3.org/2000/svg"
   xmlns="http://www.w3.org/2000/svg"
   id="svg2"
   version="1.1"
   width="24"
   viewBox="0 0 24 24"
   height="24">
  <metadata
     id="metadata10">
    <rdf:RDF>
      <cc:Work
         rdf:about="">
        <dc:format>image/svg+xml</dc:format>
        <dc:type
           rdf:resource="http://purl.org/dc/dcmitype/StillImage" />
        <dc:title></dc:title>
      </cc:Work>
    </rdf:RDF>
  </metadata>
  <defs
     id="defs8" />
  <path
     style="fill:#157dec;fill-opacity:1"
     id="path4"
     d="m11.21 21.987c-1.5117-0.17515-2.4052-0.4265-3.6051-1.0142-1.0554-0.51691-1.7569-1.0224-2.6313-1.8961-0.63129-0.63079-0.88784-0.93663-1.2921-1.5404-1.7173-2.5647-2.146-5.7859-1.1636-8.7416 0.23537-0.70811 0.73235-1.7232 1.1484-2.3455 1.0072-1.5067 2.3251-2.6603 3.9386-3.4474 0.97882-0.47751 1.8641-0.75575 2.9329-0.9218 0.68956-0.10712 2.2026-0.10712 2.8922 0 1.086 0.16872 1.9657 0.44707 2.9737 0.94091 2.7793 1.3617 4.8118 3.995 5.4166 7.018 0.15144 0.75688 0.19799 1.3659 0.17282 2.2611-0.0306 1.0885-0.17268 1.9066-0.49995 2.8788-0.69697 2.0705-2.0343 3.8389-3.8471 5.0872-1.2215 0.84117-2.6434 1.4012-4.1754 1.6444-0.38767 0.0616-1.9376 0.11413-2.2608 0.0767zm2.8811-4.3737c0.03628-0.0231 0.05309-0.26056 0.0611-0.86314l0.01105-0.8313 0.20805-0.0469c0.27868-0.0628 0.46419-0.17725 0.56448-0.34818 0.08204-0.13985 0.08291-0.18868 0.08291-4.6506 0-5.0415 0.02678-4.5965-0.29132-4.8395l-0.15042-0.11489h-2.5963-2.5963l-0.15654 0.12528c-0.3231 0.25857-0.29908-0.13057-0.29815 4.8309 0.000794 4.2281 0.0042 4.4334 0.07666 4.5931 0.09652 0.21283 0.26012 0.32876 0.56019 0.39696l0.238 0.0541 0.01105 0.83116c0.008 0.60247 0.02482 0.83992 0.0611 0.863 0.06539 0.0416 4.149 0.0416 4.2144 0zm-3.3822-0.44143c-0.01569-0.0157-0.02853-0.20908-0.02853-0.42969v-0.40112h0.42914 0.42914l-0.01161 0.41811-0.01161 0.41812-0.389 0.0116c-0.21395 0.006-0.40184-0.001-0.41754-0.017zm1.7231-0.40107v-0.42974h0.42914 0.42914l-0.01161 0.41811-0.01161 0.41812-0.41754 0.0116-0.41754 0.0116v-0.42974z" />
</svg>
