<?xml version="1.0" standalone="no"?>
<!DOCTYPE svg PUBLIC "-//W3C//DTD SVG 20010904//EN"
 "http://www.w3.org/TR/2001/REC-SVG-20010904/DTD/svg10.dtd">
<svg version="1.0" xmlns="http://www.w3.org/2000/svg"
 width="24.000000pt" height="24.000000pt" viewBox="0 0 64.000000 64.000000"
 preserveAspectRatio="xMidYMid meet">
<metadata>
Created by potrace 1.15, written by Peter Selinger 2001-2017
</metadata>
<g transform="translate(0.000000,64.000000) scale(0.100000,-0.100000)"
fill="#157dec" stroke="none">
<path d="M482 588 c-15 -15 -16 -45 -2 -53 27 -16 -68 -78 -105 -69 -61 15
-94 -3 -212 -118 -62 -61 -113 -116 -113 -122 0 -15 162 -176 176 -176 6 0 61
51 122 113 115 118 133 151 118 212 -4 16 0 34 10 50 13 20 19 23 36 14 26
-14 34 -5 20 26 -11 23 -10 24 7 13 22 -13 49 -5 58 18 4 10 -9 31 -38 60 -46
46 -58 51 -77 32z m38 -12 c0 -2 -8 -10 -17 -17 -16 -13 -17 -12 -4 4 13 16
21 21 21 13z m20 -9 c0 -2 -10 -12 -22 -23 l-23 -19 19 23 c18 21 26 27 26 19z
m10 -20 c0 -2 -10 -12 -22 -23 l-23 -19 19 23 c18 21 26 27 26 19z m20 -10 c0
-2 -10 -12 -22 -23 l-23 -19 19 23 c18 21 26 27 26 19z m10 -21 c0 -2 -8 -10
-17 -17 -16 -13 -17 -12 -4 4 13 16 21 21 21 13z m-60 -56 c0 -5 -2 -10 -4
-10 -3 0 -8 5 -11 10 -3 6 -1 10 4 10 6 0 11 -4 11 -10z m-157 -262 l-37 -38
-83 82 -83 82 37 38 37 38 83 -82 83 -82 -37 -38z"/>
</g>
</svg>
