<?xml version="1.0" encoding="UTF-8" standalone="no"?>
<svg
   xmlns:dc="http://purl.org/dc/elements/1.1/"
   xmlns:cc="http://creativecommons.org/ns#"
   xmlns:rdf="http://www.w3.org/1999/02/22-rdf-syntax-ns#"
   xmlns:svg="http://www.w3.org/2000/svg"
   xmlns="http://www.w3.org/2000/svg"
   id="svg2"
   x="0px"
   y="0px"
   version="1.1"
   width="24"
   viewBox="0 0 23.999999 23.999999"
   height="24"
   xml:space="preserve"><metadata
     id="metadata12"><rdf:RDF><cc:Work
         rdf:about=""><dc:format>image/svg+xml</dc:format><dc:type
           rdf:resource="http://purl.org/dc/dcmitype/StillImage" /><dc:title></dc:title></cc:Work></rdf:RDF></metadata><defs
     id="defs10" /><g
     style="fill:#157dec;fill-opacity:1"
     id="g4"
     transform="matrix(.046499 0 0 .046499 2 2)"><path
       style="fill:#157dec;fill-opacity:1"
       id="path6"
       d="m60.495 364.6c-31.935-34.75-57.212-79.84-60.495-140.3v-17.63c1.291-25.54 7.806-48.67 15.964-69.73 10.575-27.3 26.91-53.39 46.213-69.725-0.019 13.056 0.324 25.531 1.673 33.603 4.086 24.507 17.745 51.345 34.453 68.044 13.534 13.534 31.68 22.829 50.404 32.756 37.362 19.828 72.899 37.339 110.04 57.118 23.896 12.741 48.491 28.479 55.44 53.773 9.833 35.764-11.028 68.934-27.728 86.523-15.392 16.218-35.577 27.33-59.641 31.083h-28.562c-58.99-6.6-105.7-30.64-137.76-65.52zm141.96-215.9c34.442 18.05 70.006 36.363 105.02 54.6 18.043 9.407 34.452 19.125 47.035 32.758 22.915 24.829 37.215 57.218 34.442 104.17 5.671-5.488 10.823-13.133 15.112-21.002 12.489-22.85 22.603-51.973 25.221-85.688-0.14-0.984 0.168-1.493 0.831-1.68v-33.605c-14.8-118.18-95.21-189.15-208.34-198.26h-10.921c-22.103 3.699-43.637 10.013-56.278 24.374-8.884 10.069-15.877 27.958-16.813 39.479-3.971 49.417 31.452 67.416 64.691 84.85z" /></g></svg>