<?xml version="1.0" encoding="UTF-8" standalone="no"?>
<svg id="svg2" xmlns:rdf="http://www.w3.org/1999/02/22-rdf-syntax-ns#" xmlns="http://www.w3.org/2000/svg" xml:space="preserve" height="24" width="24" version="1.1" enable-background="new 0 0 24.00 24.00" xmlns:cc="http://creativecommons.org/ns#" xmlns:dc="http://purl.org/dc/elements/1.1/" viewBox="0 0 24.00 24.00"><metadata id="metadata10"><rdf:RDF><cc:Work rdf:about=""><dc:format>image/svg+xml</dc:format><dc:type rdf:resource="http://purl.org/dc/dcmitype/StillImage"/><dc:title/></cc:Work></rdf:RDF></metadata><path id="path4" stroke-linejoin="round" d="m4 2h16c1.105 0 2 0.8954 2 2v12c0 1.105-0.895 2-2 2h-4l-4 4-4-4h-4c-1.1046 0-2-0.895-2-2v-12c0-1.1046 0.8954-2 2-2zm14 12v-2h-5.5l-2 2h7.5zm-12 0h2.475l6.878-6.879c0.196-0.195 0.196-0.512 0-0.707l-1.767-1.768c-0.196-0.195-0.512-0.195-0.708 0l-6.878 6.879v2.475z" stroke-width=".2" fill="#157dec"/></svg>
