<?xml version="1.0" standalone="no"?>
<!DOCTYPE svg PUBLIC "-//W3C//DTD SVG 20010904//EN"
 "http://www.w3.org/TR/2001/REC-SVG-20010904/DTD/svg10.dtd">
<svg version="1.0" xmlns="http://www.w3.org/2000/svg"
 width="731.000000pt" height="738.000000pt" viewBox="0 0 731.000000 738.000000"
 preserveAspectRatio="xMidYMid meet">
<metadata>
Created by potrace 1.15, written by Peter Selinger 2001-2017
</metadata>
<g transform="translate(0.000000,738.000000) scale(0.100000,-0.100000)"
fill="#157dec" stroke="none">
<path d="M1485 7059 c-567 -83 -1004 -490 -1148 -1069 -21 -84 -21 -98 -25
-1560 -2 -1025 0 -1500 8 -1558 68 -516 425 -954 915 -1120 188 -64 194 -64
747 -71 494 -6 507 -7 535 -27 15 -11 38 -36 51 -54 l22 -33 0 -548 c0 -302 2
-549 5 -549 3 0 364 269 803 598 542 407 808 601 831 605 18 4 366 7 772 7
775 0 824 2 988 46 500 134 873 532 987 1055 18 80 19 160 19 1594 0 1434 -1
1514 -19 1594 -60 277 -186 511 -377 700 -187 187 -401 305 -679 374 l-85 21
-2145 2 c-1182 1 -2172 -2 -2205 -7z m2470 -619 c666 -110 1236 -483 1612
-1056 217 -331 353 -751 370 -1147 l6 -138 -154 3 -154 3 -7 100 c-16 233 -62
454 -134 636 -295 750 -968 1248 -1771 1311 l-153 12 0 146 c0 81 3 150 8 155
11 12 246 -3 377 -25z m-55 -609 c224 -45 468 -150 650 -279 119 -84 307 -270
387 -382 192 -271 293 -554 319 -897 l7 -93 -157 0 c-180 0 -161 -15 -170 135
-30 492 -393 965 -881 1148 -107 41 -226 67 -359 80 l-121 13 -3 153 -3 154
118 -6 c65 -4 161 -16 213 -26z m-1709 -109 c31 -15 171 -149 471 -449 421
-423 427 -429 443 -487 22 -76 16 -167 -16 -233 -14 -29 -70 -96 -146 -173
l-122 -126 232 -230 c128 -126 271 -267 319 -313 l87 -85 123 120 c144 140
190 167 293 172 54 3 84 -1 130 -18 57 -21 82 -45 477 -439 278 -278 424 -431
439 -461 20 -37 24 -61 24 -135 0 -144 7 -135 -428 -565 -208 -206 -389 -380
-400 -387 -93 -52 -455 79 -821 297 -676 403 -1473 1199 -1890 1889 -148 244
-286 567 -303 710 -12 102 -9 107 205 324 108 110 288 286 399 393 169 162
209 195 250 208 66 22 177 16 234 -12z m1644 -502 c398 -105 703 -470 732
-876 l6 -84 -157 0 -156 0 0 30 c0 59 -32 186 -64 255 -103 220 -307 366 -551
392 l-70 8 -3 154 -3 154 93 -6 c51 -3 129 -15 173 -27z"/>
<path d="M1742 5117 c-171 -172 -312 -320 -312 -330 0 -57 163 -397 277 -580
306 -486 829 -1049 1353 -1458 265 -206 647 -428 855 -495 l86 -28 317 317
317 317 -372 372 -372 372 -173 -171 c-193 -190 -217 -205 -300 -183 -38 10
-97 65 -500 468 -503 504 -496 494 -468 584 10 35 45 76 183 216 l171 173
-369 369 c-204 204 -372 370 -375 370 -3 0 -146 -141 -318 -313z"/>
</g>
</svg>
