<?xml version="1.0" encoding="UTF-8" standalone="no"?>
<svg xmlns:rdf="http://www.w3.org/1999/02/22-rdf-syntax-ns#" xmlns="http://www.w3.org/2000/svg" height="24pt" width="24pt" version="1.0" preserveAspectRatio="xMidYMid meet" xmlns:cc="http://creativecommons.org/ns#" xmlns:dc="http://purl.org/dc/elements/1.1/" viewBox="0 0 24 24">
 <g fill="#157dec" transform="matrix(.0045419 0 0 -.0045419 -.16775 23.584)">
  <path d="m1465 4947c-33-18-61-35-63-39-2-5-8-8-13-8-10 0-231-146-271-178-190-154-333-296-438-432-19-25-38-47-41-50-6-5-107-150-124-178-5-9-22-35-36-57-102-159-218-438-279-670-62-238-75-344-75-640 0-302 10-394 71-637 113-456 339-853 674-1188 249-249 562-456 863-568 31-12 81-31 110-42 68-26 314-88 397-100 36-6 142-17 235-26 145-14 195-15 345-5 171 11 205 16 360 45 102 20 264 62 328 86 28 11 78 30 110 42 477 179 954 576 1228 1023 376 614 483 1341 299 2030-141 526-485 1043-900 1352-33 24-67 50-75 57-47 38-155 106-267 168-86 47-69 15 25-47 299-198 560-493 730-825 118-231 189-440 221-650 27-185 31-228 31-382-1-584-222-1128-630-1552-233-241-482-409-800-538-14-6-33-14-42-19-10-5-27-9-37-9-11 0-23-4-26-10-3-5-17-10-30-10s-26-4-29-9-20-11-38-14-53-11-78-17-60-14-78-17-47-20-65-38c-33-33-46-56-177-310-98-191-98-191-143-247-51-63-73-63-124 0-45 56-45 56-146 252-158 308-175 332-241 343-17 3-51 11-76 17s-60 14-78 17-35 9-38 14-16 9-29 9-27 4-30 10c-3 5-17 10-30 10s-27 5-30 10c-3 6-13 10-20 10-23 0-240 101-333 156-49 28-224 144-232 153-3 3-23 20-45 36-106 79-291 270-397 410-180 239-326 553-393 844-99 438-66 898 95 1311 89 228 251 494 410 669 109 121 139 151 200 201 30 25 66 55 80 67 60 52 116 93 128 93 6 0 12 5 12 10 0 6 6 10 13 10s23 9 35 20 25 20 30 20c10 0 42 33 42 43 0 11-11 7-75-26z"/>
  <path d="m3305 4429c-298-109-501-207-755-366-256-160-578-401-880-658-52-45-234-197-405-340-374-312-389-325-370-325 17 0 511 234 995 471 74 37 139 64 144 62 4-3-151-165-345-359-195-195-349-354-342-354 9 0 259 118 457 216 71 34 90 31 67-14-5-9-13-28-18-42-6-14-15-36-21-50s-13-36-17-50c-3-14-15-59-26-100-21-78-33-123-48-187-17-76-63-200-103-283-32-66-59-102-117-161-109-109-231-166-399-185-34-3-65-11-68-16-15-24 343-348 439-397 15-8 27-18 27-23 0-4 5-8 11-8s29-13 52-28c41-27 207-110 297-149 38-16 142-50 286-94 17-5 40-9 52-9s30-4 40-9c9-5 30-15 46-22 76-36 153-151 256-384 42-95 84-176 97-187 28-23 56 16 131 182 108 243 181 353 258 389 16 7 37 17 46 22 10 5 28 9 40 9s35 4 52 9 51 15 76 21c25 7 53 16 62 21 10 5 27 9 37 9 11 0 23 5 26 10 3 6 15 10 26 10 10 0 27 4 37 10 9 5 49 23 87 40 68 30 93 42 201 100 50 27 204 127 214 140 3 3 39 33 80 67 81 65 290 277 290 293 0 6-51 7-137 4-420-18-706 99-883 360-60 87-115 215-138 316-6 25-13 56-17 70-13 56-35 216-35 254 0 23 6 48 13 57 99 131 297 328 403 402 117 81 257 149 429 205 181 60 230 81 219 91-12 10-94 27-229 46-189 27-306 67-379 129l-30 25 17 60c39 140 179 296 349 389 121 66 292 112 416 112 34 0 62 4 62 9 0 8-64 51-170 115-110 67-234 106-335 106-52 0-192-31-267-60-29-11-61-20-71-20s-42 18-71 40-59 40-67 39-50-14-94-30zm-17-306c38-52 40-58 26-74-55-61-190-77-299-35-33 13-60 29-60 36 0 13 244 127 276 129 8 1 34-25 57-56z"/>
 </g>
</svg>
