<?xml version="1.0" encoding="UTF-8" standalone="no"?>
<svg xmlns:rdf="http://www.w3.org/1999/02/22-rdf-syntax-ns#" xmlns="http://www.w3.org/2000/svg" height="24pt" width="24pt" version="1.0" preserveAspectRatio="xMidYMid meet" xmlns:cc="http://creativecommons.org/ns#" xmlns:dc="http://purl.org/dc/elements/1.1/" viewBox="0 0 24 24">
 <g fill="#157dec" transform="matrix(.0078640 0 0 -.0078640 1.9293 22.027)">
  <path d="m1100 2073c-102-17-210-79-270-154-45-57-87-158-91-219l-4-45 40-3c202-13 363-159 396-360l11-69 52 9c225 40 385 262 348 483-38 230-260 395-482 358z"/>
  <path d="m1915 1635c-5-2-33-10-62-19-97-30-198-118-242-209-21-45-52-176-42-181 3-2 36-7 72-10 99-11 191-61 258-141 57-69 82-126 88-202l6-63h39c86 0 215 71 281 155 105 133 116 335 25 477-60 94-143 155-253 184-45 12-144 18-170 9z"/>
  <path d="m504 1350c-231-32-366-135-339-258 7-36 66-97 117-123 209-107 566-87 711 41 39 34 67 86 67 124 0 12-13 43-29 68-25 39-43 53-113 87-120 57-277 80-414 61z"/>
  <path d="m1297 934c-261-47-385-203-264-332 117-124 457-170 685-91 133 46 202 114 202 200 0 166-315 279-623 223z"/>
 </g>
</svg>
