<?xml version="1.0" standalone="no"?>
<!DOCTYPE svg PUBLIC "-//W3C//DTD SVG 20010904//EN"
 "http://www.w3.org/TR/2001/REC-SVG-20010904/DTD/svg10.dtd">
<svg version="1.0" xmlns="http://www.w3.org/2000/svg"
 width="256.000000pt" height="256.000000pt" viewBox="0 0 256.000000 256.000000"
 preserveAspectRatio="xMidYMid meet">
<metadata>
Created by potrace 1.15, written by Peter Selinger 2001-2017
</metadata>
<g transform="translate(0.000000,256.000000) scale(0.100000,-0.100000)"
fill="#f8f8f8" stroke="none">
<path d="M1130 2154 c-423 -90 -713 -446 -713 -874 0 -405 260 -747 655 -861
95 -27 271 -36 375 -19 304 49 571 263 686 551 46 115 60 193 60 329 0 250
-81 446 -258 626 -131 133 -285 216 -462 250 -93 17 -257 17 -343 -2z m100
-464 l0 -330 -330 0 -330 0 0 23 c0 37 39 165 66 220 102 202 271 340 489 397
117 31 105 67 105 -310z m310 294 c109 -34 194 -88 291 -184 72 -71 93 -101
132 -180 45 -92 77 -190 77 -237 l0 -23 -330 0 -330 0 0 331 0 331 43 -7 c23
-4 76 -18 117 -31z m-310 -1115 l0 -331 -42 7 c-281 45 -522 261 -598 536 -11
41 -20 84 -20 96 l0 23 330 0 330 0 0 -331z m810 308 c0 -47 -32 -145 -77
-237 -81 -166 -247 -309 -423 -364 -41 -13 -94 -27 -117 -31 l-43 -7 0 331 0
331 330 0 330 0 0 -23z"/>
</g>
</svg>
