<?xml version="1.0" encoding="UTF-8" standalone="no"?>
<svg xmlns:rdf="http://www.w3.org/1999/02/22-rdf-syntax-ns#" xmlns="http://www.w3.org/2000/svg" height="24" width="24" version="1.1" xmlns:cc="http://creativecommons.org/ns#" xmlns:dc="http://purl.org/dc/elements/1.1/">
 <g fill="#f2f2f2" transform="matrix(.028815 0 0 .027749 -.0000021205 .00012441)">
  <path style="color:#000000" d="m460.1 97.053a384 384 0 0 0 -248.9 82.307c0.16112 0.15845 0.3213 0.3181 0.48242 0.47657 6.32 6.2157 12.638 12.45 18.932 18.682 0.0961 0.0951 0.19299 0.19002 0.28906 0.28515 0.29 0.28719 0.57729 0.57417 0.86719 0.86133 6.2564 6.1972 12.491 12.392 18.674 18.553 6.2793 6.2569 12.505 12.476 18.662 18.645 0.59115 0.59224 1.1758 1.1784 1.7656 1.7695 5.8189 5.8322 11.58 11.621 17.244 17.324 0.10338 0.10408 0.21114 0.21237 0.31446 0.3164 0.16272 0.16387 0.32374 0.3265 0.48632 0.49024 4.7851 4.8189 9.4603 9.54 14.107 14.236 8.2448 8.3326 16.207 16.406 23.912 24.236 7.6501 7.7745 14.797 15.067 21.783 22.201 3.0704 3.1358 6.3695 6.4927 9.293 9.4844 7.5967 7.7733 14.56 14.922 21.029 21.572 1.364 1.4024 2.9788 3.056 4.2871 4.4023 7.0781 7.2832 13.216 13.616 18.498 19.076 0.41816 0.43223 1.0589 1.0901 1.4648 1.5098 0.0617 0.0638 0.1534 0.15911 0.21485 0.22266 11.224 11.607 17.818 18.479 17.818 18.479l107.48 118.79c15.435 5.6378 29.821 7.3114 45.068 13.822 36.898 15.757 67.796 37.844 82.795 76.631 16.751 43.318-22.245 119.78-62.367 106.53 20.201-1.3543 42.014-26.148 30.924-45.557-25.27-44.22-116.71-35.82-113.38-134.43l-115.96-110.31-0.26563 0.26563s-7.0677-6.7-18.318-17.441c-1.2572-1.2004-2.9987-2.8719-4.3711-4.1836-4.7825-4.5713-10.024-9.5878-16.072-15.391-2.2327-2.142-4.8896-4.7018-7.2773-6.9961-6.063-5.8263-12.449-11.972-19.4-18.68-3.0541-2.947-6.4012-6.1891-9.6055-9.2871-7.0326-6.8-14.317-13.857-21.971-21.293-7.6701-7.4516-15.445-15.013-23.602-22.98-5.7301-5.5974-11.545-11.286-17.457-17.086-25.113-24.636-51.649-50.904-77.777-77.16-0.0441-0.0444-0.0887-0.0885-0.13281-0.13281a384 384 0 0 0 -114.74 273.61 384 384 0 0 0 768 0 384 384 0 0 0 -372.78 -383.84z"/>
  <path d="m3.0868 0.011645c-0.93364 0.05968-1.6708 0.34858-2.2012 0.87891-0.53033 0.53033-0.81807 1.2664-0.875 2.1973-0.01888 0.3102-0.01258 0.64093 0.01953 0.99414v0.002c0.03214 0.35268 0.08973 0.72628 0.17188 1.1211v0.002c4.6547 22.424 89.204 112.21 179.01 202.51a384 384 0 0 1 31.471 -27.98c-94.66-93.04-189.22-180.9-207.59-179.73z"/>
 </g>
</svg>
