<?xml version="1.0" encoding="UTF-8" standalone="no"?>
<svg xmlns:rdf="http://www.w3.org/1999/02/22-rdf-syntax-ns#" xmlns="http://www.w3.org/2000/svg" height="24" viewBox="0 0 24 24" width="24" version="1.1" xmlns:cc="http://creativecommons.org/ns#" xmlns:dc="http://purl.org/dc/elements/1.1/">
 <g fill="#f2f2f2" transform="matrix(.45832 0 0 .45832 .083751 .23897)">
  <path fill="#f2f2f2" d="m41.191 6.0195c-1.136-0.1367-1.761 1.2071-2.402 2.8477-1.691 4.3438-6.66 7.1128-11.019 8.0238-0.961-0.563-2.075-0.891-3.27-0.891-1.574 0-3.02 0.562-4.145 1.496-4.304-0.34-7.492-5.004-7.527-5.055l-1.828-2.7301v9.6371c-0.402 0.57-0.684 1.226-0.844 1.929-2.0505-1.433-4.4372-1.73-6.1951-0.558-0.9765 0.648-1.6211 1.668-1.8593 2.941-0.3477 1.848 0.1992 3.961 1.4922 5.805 1.5937 2.262 3.8906 3.547 5.9687 3.547 0.8905 0 1.7385-0.239 2.4765-0.731 0.981-0.648 1.625-1.668 1.863-2.941 0.094-0.504 0.118-1.031 0.082-1.563 0.489 0.141 0.996 0.223 1.516 0.223 0.164 0 0.324-0.016 0.488-0.031 0.02 0.59-0.015 1.172-0.121 1.734-0.34 1.82-1.281 3.289-2.722 4.246-0.383 0.258-0.801 0.457-1.235 0.617 1.07 0.676 2.246 1.332 3.371 1.825 4.024 1.761 7.778 2.636 11.157 2.636 2.843 0 5.41-0.636 7.656-1.875 0.523 0.286 1.047 0.555 1.562 0.789 2.723 1.243 5.418 2.145 7.422 2.508 0.039 0.227 0.086 0.457 0.16 0.696 0.739 2.394 4.707 3.601 5.496 3.82l1.266 0.347v-1.312c0.004-1.641-0.113-5.594-1.23-6.801-0.997-1.078-2.329-1.453-3.524-1.031-1.414-1.184-3.547-2.5-6.031-3.699 4.48-6.864 3.922-20.25 3.515-23.367-0.21-1.5786-0.39-2.9418-1.539-3.0825zm-16.691 11.98c2.48 0 4.5 2.02 4.5 4.5 0 0.281-0.035 0.555-0.082 0.824-0.309-1.332-1.496-2.324-2.918-2.324-0.086 0-0.164 0.02-0.25 0.027 0.711 0.118 1.25 0.731 1.25 1.473 0 0.828-0.672 1.5-1.5 1.5s-1.5-0.672-1.5-1.5c0-0.406 0.164-0.773 0.426-1.043-0.852 0.527-1.426 1.465-1.426 2.543 0 1.422 0.992 2.609 2.324 2.918-0.269 0.047-0.543 0.082-0.824 0.082-2.48 0-4.5-2.02-4.5-4.5s2.02-4.5 4.5-4.5zm-9 1c1.137 0 2.191 0.555 2.844 1.465-0.121 0.359-0.203 0.73-0.266 1.113-0.43-0.355-0.976-0.578-1.578-0.578-0.07 0-0.137 0.016-0.207 0.02 0.59 0.101 1.039 0.613 1.039 1.23 0 0.691-0.559 1.25-1.25 1.25-0.687 0-1.25-0.559-1.25-1.25 0-0.34 0.137-0.645 0.356-0.871-0.711 0.441-1.188 1.223-1.188 2.121 0 1.219 0.875 2.234 2.031 2.453-0.176 0.027-0.351 0.047-0.531 0.047-0.738 0-1.445-0.227-2.047-0.66l-0.09-0.063c-0.25-0.597-0.566-1.183-0.957-1.742-0.109-0.152-0.226-0.297-0.34-0.441-0.035-0.196-0.066-0.396-0.066-0.594 0-1.93 1.57-3.5 3.5-3.5zm-9.5 3c1.1055 0 2 1.117 2 2.5s-0.8945 2.5-2 2.5-2-1.117-2-2.5 0.8945-2.5 2-2.5zm25 6s1.234 0.562 2.117 1.465c0.004 0.004 0.008 0.008 0.016 0.015 0.086 0.086 0.168 0.176 0.242 0.27 0.398 0.484 0.668 1.047 0.609 1.66l0.004 0.004c-0.008 0.086-0.019 0.176-0.039 0.262-0.058 0.222-0.168 0.449-0.308 0.683 1.23 0.407 2.535 0.911 3.875 1.516 2.461 1.125 4.683 2.422 6.132 3.559-0.195 0.289-0.351 0.621-0.464 0.988-1.809-0.352-4.215-1.168-6.696-2.297-1.484-0.68-3.047-1.641-4.367-2.527-0.398 0.156-0.844 0.257-1.324 0.32-4.129 0.542-10.797-1.918-10.797-1.918s11.863 0.656 11.863-1.656c0-1.153-0.863-2.344-0.863-2.344z"/>
 </g>
</svg>
