<?xml version="1.0" encoding="UTF-8" standalone="no"?>
<svg id="svg2" xmlns:rdf="http://www.w3.org/1999/02/22-rdf-syntax-ns#" xmlns="http://www.w3.org/2000/svg" xml:space="preserve" height="24" viewBox="0 0 24.00 24.00" width="24" version="1.1" enable-background="new 0 0 24.00 24.00" xmlns:cc="http://creativecommons.org/ns#" xmlns:dc="http://purl.org/dc/elements/1.1/"><metadata id="metadata10"><rdf:RDF><cc:Work rdf:about=""><dc:format>image/svg+xml</dc:format><dc:type rdf:resource="http://purl.org/dc/dcmitype/StillImage"/><dc:title/></cc:Work></rdf:RDF></metadata><path id="path4" stroke-linejoin="round" d="m12 2c3.866 0 7 3.134 7 7s-3.134 7-7 7-7-3.134-7-7 3.134-7 7-7zm0 2c-2.7614 0-5 2.2386-5 5 0 2.762 2.2386 5 5 5 2.761 0 5-2.238 5-5 0-2.7614-2.239-5-5-5zm0 2c1.657 0 3 1.3432 3 3 0 1.657-1.343 3-3 3s-3-1.343-3-3c0-1.6568 1.343-3 3-3zm-6 16c-1.1046 0-2-0.895-2-2 0-0.377 0.1043-0.73 0.2856-1.03l1.8269-3.163c1.5782 1.367 3.6363 2.193 5.8875 2.193 2.251 0 4.309-0.826 5.888-2.193l1.826 3.163c0.182 0.3 0.286 0.653 0.286 1.03 0 1.105-0.895 2-2 2h-12z" stroke-width=".2" fill="#f2f2f2"/></svg>
