<?xml version="1.0" encoding="UTF-8" standalone="no"?>
<svg xmlns:rdf="http://www.w3.org/1999/02/22-rdf-syntax-ns#" xmlns="http://www.w3.org/2000/svg" xml:space="preserve" height="24" width="24" version="1.1" enable-background="new 0 0 24.00 24.00" xmlns:cc="http://creativecommons.org/ns#" xmlns:dc="http://purl.org/dc/elements/1.1/" viewBox="0 0 24.00 24.00"><path d="m11.994 3.002c-4.538 0-8.6562 1.7791-11.705 4.6679-0.17986 0.18-0.289 0.4291-0.289 0.709 0.0000025431 0.2799 0.10914 0.531 0.28907 0.7109l2.4804 2.4782c0.1799 0.18 0.4291 0.289 0.709 0.289 0.2699 0 0.5193-0.109 0.6992-0.279 0.7897-0.74 1.6906-1.36 2.6602-1.8495 0.3299-0.1599 0.5586-0.4986 0.5586-0.8984v-3.0996c1.4494-0.4798 2.9985-0.7285 4.5975-0.7285s3.15 0.2489 4.6 0.7187v3.0996c0 0.3899 0.228 0.7385 0.558 0.8985 0.98 0.4892 1.871 1.1202 2.67 1.8492 0.18 0.18 0.43 0.28 0.7 0.28 0.279 0 0.529-0.11 0.708-0.289l2.481-2.4789c0.18-0.1799 0.289-0.4311 0.289-0.711 0-0.2798-0.121-0.5192-0.301-0.6992-3.049-2.8888-7.167-4.6679-11.705-4.6679zm-2.994 3.998v3s-6 5-6 8v4h18v-4c0-3-6-8-6-8v-3h-2v2h-2v-2h-2zm3 5c2.209 0 4 1.791 4 4s-1.791 4-4 4c-2.2091 0-4-1.791-4-4s1.7909-4 4-4zm0 1.5c-1.381 0-2.5 1.119-2.5 2.5s1.119 2.5 2.5 2.5 2.5-1.119 2.5-2.5-1.119-2.5-2.5-2.5z" stroke-width="1.3333" fill="#f2f2f2"/></svg>
