<?xml version="1.0" encoding="UTF-8" standalone="no"?>
<svg xmlns:rdf="http://www.w3.org/1999/02/22-rdf-syntax-ns#" xmlns="http://www.w3.org/2000/svg" height="24pt" width="24pt" version="1.0" preserveAspectRatio="xMidYMid meet" xmlns:cc="http://creativecommons.org/ns#" xmlns:dc="http://purl.org/dc/elements/1.1/" viewBox="0 0 24 24">
 <g fill="#f2f2f2" transform="matrix(.0068813 0 0 -.0068813 3.197 20.8)">
  <path d="m1245 2489c-5-14 4-36 29-72 19-29 37-67 38-86 3-32 1-34-42-47-66-20-90-35-107-67-20-39-11-84 34-167l35-65-7-105c-8-123 5-171 61-219 45-40 103-54 194-49 120 7 215 69 266 174 23 47 26 64 22 117-3 39-16 85-33 121-36 75-140 185-210 222-29 16-58 38-63 49-22 47-105 147-149 180-56 41-60 41-68 14z"/>
  <path d="m584 2284c-11-39-15-85-13-152 3-88 0-102-23-147-79-155-56-363 49-456 67-58 137-84 233-84 73 0 93 4 141 28 31 15 75 47 98 72 33 36 41 52 41 84 0 59-25 118-80 185-62 76-79 110-85 176-11 114-62 165-155 156-30-3-65-8-77-12-20-5-26 0-43 37-11 24-20 62-20 84 0 39-22 85-40 85-5 0-17-25-26-56z"/>
  <path d="m2295 1998c-4-20 0-51 9-77 9-24 13-54 10-67-5-20-12-24-46-24-49 0-102-24-122-56-9-13-25-47-37-76-11-29-50-116-87-193-80-167-86-210-36-272 37-46 123-91 194-102 151-24 323 70 360 197 6 20 14 69 17 108 7 89-20 186-73 265-20 30-42 78-50 107-22 85-99 222-124 222-5 0-12-15-15-32z"/>
  <path d="m4 1375c-11-27 5-144 27-204 11-31 29-93 39-139 24-103 70-191 135-258 86-87 189-123 301-105 93 15 139 38 194 98 103 113 97 218-17 295-39 26-245 155-342 215-80 48-130 44-194-16l-29-26-19 24c-10 13-19 29-19 37 0 25-23 64-47 79-21 14-24 14-29 0z"/>
  <path d="m1471 1165c-107-24-242-65-283-86-126-64-168-152-158-334 5-95-43-174-146-238-76-47-91-127-43-235 61-140 197-222 367-222 168 0 512 68 731 145 232 81 357 164 401 267 30 70 26 199-9 271s-76 98-170 108c-137 13-220 62-272 159-38 72-83 114-158 148-68 31-169 38-260 17z"/>
 </g>
</svg>
