<svg xmlns:rdf="http://www.w3.org/1999/02/22-rdf-syntax-ns#" xmlns="http://www.w3.org/2000/svg" xml:space="preserve" height="24" width="24" version="1.1" enable-background="new 0 0 24.00 24.00" xmlns:cc="http://creativecommons.org/ns#" xmlns:dc="http://purl.org/dc/elements/1.1/" viewBox="0 0 24.00 24.00"><path stroke-linejoin="round" d="m3 15h10c0.552 0 1 0.448 1 1s-0.448 1-1 1h-10c-0.5523 0-1-0.448-1-1s0.4477-1 1-1zm13 0h5c0.552 0 1 0.448 1 1s-0.448 1-1 1h-5c-0.552 0-1-0.448-1-1s0.448-1 1-1zm-15-3c0-2.7608 2.2376-4.999 4.9982-5 0.9795-2.349 3.2978-4 6.0018-4 3.433 0 6.244 2.6612 6.484 6.033l0.516-0.033c2.193 0 3.974 1.764 3.999 4h-1.999c0-1.105-0.895-2-2-2h-2v-1c0-2.7614-2.239-5-5-5-2.4872 0-4.5502 1.816-4.9354 4.1944-0.3309-0.1256-0.6897-0.1944-1.0646-0.1944-1.6568 0-3 1.343-3 3 0 0.351 0.0602 0.687 0.1707 1h-2.0707l-0.1-1zm2 7h2c0.5523 0 1 0.448 1 1s-0.4477 1-1 1h-2c-0.5523 0-1-0.448-1-1s0.4477-1 1-1zm5 0h13c0.552 0 1 0.448 1 1s-0.448 1-1 1h-13c-0.5523 0-1-0.448-1-1s0.4477-1 1-1z" stroke-width="2" fill="#f2f2f2"/></svg>
