<?xml version="1.0" encoding="UTF-8" standalone="no"?>
<svg
   xmlns:dc="http://purl.org/dc/elements/1.1/"
   xmlns:cc="http://creativecommons.org/ns#"
   xmlns:rdf="http://www.w3.org/1999/02/22-rdf-syntax-ns#"
   xmlns:svg="http://www.w3.org/2000/svg"
   xmlns="http://www.w3.org/2000/svg"
   xmlns:sodipodi="http://sodipodi.sourceforge.net/DTD/sodipodi-0.dtd"
   xmlns:inkscape="http://www.inkscape.org/namespaces/inkscape"
   version="1.1"
   width="24"
   height="24"
   viewBox="0 0 24.00 24.00"
   enable-background="new 0 0 24.00 24.00"
   xml:space="preserve"
   id="svg2"
   inkscape:version="0.91 r13725"
   sodipodi:docname="playonlinux.svg"><metadata
     id="metadata12"><rdf:RDF><cc:Work
         rdf:about=""><dc:format>image/svg+xml</dc:format><dc:type
           rdf:resource="http://purl.org/dc/dcmitype/StillImage" /><dc:title></dc:title></cc:Work></rdf:RDF></metadata><defs
     id="defs10" /><sodipodi:namedview
     pagecolor="#ffffff"
     bordercolor="#666666"
     borderopacity="1"
     objecttolerance="10"
     gridtolerance="10"
     guidetolerance="10"
     inkscape:pageopacity="0"
     inkscape:pageshadow="2"
     inkscape:window-width="1920"
     inkscape:window-height="1023"
     id="namedview8"
     showgrid="false"
     inkscape:zoom="9.8333333"
     inkscape:cx="8.5423729"
     inkscape:cy="12"
     inkscape:window-x="0"
     inkscape:window-y="0"
     inkscape:window-maximized="1"
     inkscape:current-layer="svg2" /><g
     id="g4"
     transform="matrix(0.92387953,-0.38268343,0.38268343,0.92387953,-3.6787555,5.505647)"
     style="fill:#f2f2f2;fill-opacity:1"><path
       d="m 12,11.18 c 3.3,-3 5,-4.54 5,-6.4903 C 16.9833,3.1875 15.7521,1.9833 14.25,2 13.3915,1.996 12.5724,2.3601 12,3 11.4276,2.3601 10.6085,1.996 9.68967,2 8.18754,2.0167 6.98334,3.2479 7,4.75 7,6.64 8.7,8.18 12,11.18 Z M 11.18,12 C 8.18,8.7 6.64,7 4.68967,7 3.18754,7.0167 1.98334,8.2479 2,9.75 1.99602,10.6085 2.36007,11.4276 3,12 2.36007,12.5724 1.99602,13.3915 2,14.3103 2.01666,15.8125 3.24788,17.0167 4.75,17 c 1.89,0 3.43,-1.7 6.43,-5 z m 1.65,0 c 2.99,3.3 4.53,5 6.4803,5 C 20.8125,16.9833 22.0167,15.7521 22,14.25 22.004,13.3915 21.6399,12.5724 21,12 21.6399,11.4276 22.004,10.6085 22,9.6897 21.9833,8.1875 20.7521,6.9833 19.25,7 17.36,7 15.82,8.7 12.83,12 Z m -0.82,0.82 C 8.7,15.82 7,17.36 7,19.3103 7.01666,20.8125 8.24788,22.0167 9.75,22 c 0.8585,0.004 1.6776,-0.3601 2.25,-1 0.5724,0.6399 1.3915,1.004 2.3103,1 1.5022,-0.0167 2.7064,-1.2479 2.6897,-2.75 0,-1.89 -1.7,-3.43 -4.99,-6.43 z"
       id="path6"
       inkscape:connector-curvature="0"
       style="fill:#f2f2f2;fill-opacity:1;stroke-width:1.33333004;stroke-linejoin:miter" /></g></svg>