<?xml version="1.0" standalone="no"?>
<!DOCTYPE svg PUBLIC "-//W3C//DTD SVG 20010904//EN"
 "http://www.w3.org/TR/2001/REC-SVG-20010904/DTD/svg10.dtd">
<svg version="1.0" xmlns="http://www.w3.org/2000/svg"
 width="1024.000000pt" height="1024.000000pt" viewBox="0 0 1024.000000 1024.000000"
 preserveAspectRatio="xMidYMid meet">
<metadata>
Created by potrace 1.15, written by Peter Selinger 2001-2017
</metadata>
<g transform="translate(0.000000,1024.000000) scale(0.100000,-0.100000)"
fill="#f8f8f8" stroke="none">
<path d="M1220 9729 c-81 -10 -217 -52 -291 -90 -124 -62 -266 -204 -328 -328
-41 -80 -79 -206 -91 -302 -14 -116 -14 -7662 0 -7778 29 -226 131 -416 295
-548 115 -92 263 -152 426 -173 116 -14 7662 -14 7778 0 226 29 416 131 548
295 92 115 152 263 173 426 14 116 14 7662 0 7778 -21 163 -81 311 -173 426
-132 164 -322 266 -548 295 -102 12 -7690 12 -7789 -1z m1948 -525 c46 -19 98
-68 123 -116 17 -34 19 -61 19 -303 l0 -265 -230 0 -230 0 -2 163 c-6 368 -1
400 68 471 62 62 171 84 252 50z m837 -3 c52 -24 88 -58 117 -112 22 -43 23
-51 23 -304 l0 -260 -232 -3 -233 -2 0 260 c0 288 3 306 63 369 66 69 177 91
262 52z m860 -16 c33 -21 57 -47 79 -85 l31 -55 3 -262 3 -263 -235 0 -236 0
0 260 c0 288 3 306 63 369 50 53 101 72 178 69 53 -3 76 -10 114 -33z m812 10
c28 -15 64 -42 79 -62 46 -61 54 -114 54 -375 l0 -238 -235 0 -235 0 0 260 c0
288 3 306 63 369 71 74 180 92 274 46z m831 -1 c29 -14 64 -41 78 -60 47 -62
54 -107 54 -371 l0 -243 -235 0 -235 0 0 260 c0 288 3 306 63 369 71 74 180
92 275 45z m830 0 c29 -14 64 -41 78 -60 47 -62 54 -107 54 -371 l0 -243 -235
0 -235 0 0 260 c0 288 3 306 63 369 71 74 180 92 275 45z m740 -923 c32 -14
71 -44 101 -77 90 -98 81 217 79 -3049 l-3 -2900 -23 -44 c-35 -64 -104 -127
-168 -150 -52 -20 -75 -21 -519 -21 -303 0 -465 -3 -465 -10 0 -6 -85 -10
-235 -10 -149 0 -235 4 -235 10 0 6 -752 11 -2192 12 l-2193 3 -49 24 c-60 29
-117 85 -148 143 l-23 43 -3 2900 c-2 3235 -9 2950 69 3039 47 54 97 86 159
102 35 10 670 12 2920 11 l2875 -2 53 -24z m-6398 -997 l0 -236 -262 4 c-298
4 -311 7 -380 88 -83 96 -72 244 23 324 63 54 74 55 357 56 l262 0 0 -236z
m7435 217 c126 -58 174 -208 105 -328 -36 -62 -85 -98 -155 -113 -29 -6 -144
-9 -280 -8 l-230 3 -3 233 -2 232 262 0 c234 0 267 -2 303 -19z m-7435 -1047
l0 -235 -262 3 c-249 3 -265 4 -304 25 -82 44 -134 130 -134 219 0 52 39 133
81 168 63 54 74 55 357 56 l262 0 0 -236z m7428 220 c163 -67 194 -294 54
-401 -60 -45 -114 -53 -377 -53 l-235 0 0 235 0 235 260 0 c213 0 267 -3 298
-16z m-7428 -1050 l0 -235 -262 3 c-249 3 -265 4 -304 25 -82 44 -134 130
-134 219 0 84 70 181 152 211 22 8 119 12 291 12 l257 1 0 -236z m7428 220
c20 -8 52 -29 71 -47 99 -94 95 -262 -7 -347 -64 -53 -109 -60 -379 -60 l-243
0 0 235 0 235 260 0 c213 0 267 -3 298 -16z m-7428 -1050 l0 -235 -262 3
c-247 3 -265 4 -303 25 -116 63 -165 191 -114 303 27 60 54 88 114 116 48 23
58 24 308 24 l257 0 0 -236z m7428 220 c20 -8 52 -29 71 -47 99 -94 95 -262
-7 -347 -64 -53 -109 -60 -379 -60 l-243 0 0 235 0 235 260 0 c213 0 267 -3
298 -16z m-7428 -1049 l0 -235 -241 0 c-150 0 -258 4 -287 12 -60 15 -145 96
-161 153 -32 116 16 227 121 279 52 26 52 26 310 26 l258 0 0 -235z m7411 225
c20 -6 57 -28 82 -50 59 -53 81 -108 75 -194 -5 -80 -39 -135 -112 -181 l-49
-30 -269 -3 -268 -3 0 235 0 236 253 0 c138 0 268 -5 288 -10z m-7411 -1055
l0 -235 -243 0 c-279 0 -319 7 -380 66 -48 47 -67 83 -74 142 -11 99 39 191
128 236 l53 26 258 0 258 0 0 -235z m7412 223 c55 -16 123 -79 143 -133 27
-68 17 -163 -21 -217 -34 -49 -81 -83 -133 -98 -20 -5 -147 -10 -283 -10
l-248 0 0 235 0 235 251 0 c164 0 265 -4 291 -12z m-5782 -1880 c0 -234 -2
-267 -19 -303 -82 -179 -331 -181 -422 -3 -17 34 -19 62 -19 303 l0 265 230 0
230 0 0 -262z m835 -3 c0 -246 -2 -262 -22 -300 -80 -151 -268 -182 -380 -64
-60 63 -63 81 -63 369 l0 260 233 -2 232 -3 0 -260z m830 0 l0 -260 -31 -55
c-41 -72 -103 -112 -184 -118 -73 -5 -122 11 -173 57 -73 66 -77 81 -77 379
l0 262 233 -2 232 -3 0 -260z m835 28 c0 -131 -5 -258 -11 -282 -41 -180 -269
-243 -396 -110 -60 63 -63 81 -63 369 l0 260 235 0 235 0 0 -237z m830 2 c0
-129 -5 -256 -11 -284 -38 -180 -269 -244 -396 -110 -60 63 -63 81 -63 369 l0
260 235 0 235 0 0 -235z m830 -8 c0 -264 -7 -309 -54 -371 -37 -49 -117 -86
-185 -86 -70 0 -126 25 -170 75 -59 68 -61 79 -61 365 l0 260 235 0 235 0 0
-243z"/>
<path d="M2514 7821 c-68 -41 -64 18 -64 -1080 l0 -991 283 0 282 0 24 46 c34
64 119 138 189 164 47 18 73 21 142 18 73 -3 94 -9 148 -38 72 -38 119 -87
159 -162 25 -48 28 -63 28 -153 0 -95 -2 -103 -34 -163 -89 -164 -274 -236
-444 -172 -69 26 -154 100 -188 164 l-24 46 -282 0 -283 0 0 -340 0 -340 273
0 272 0 28 49 c32 59 99 120 165 152 39 20 63 24 142 24 82 0 103 -4 152 -27
73 -34 142 -103 176 -176 23 -49 27 -70 27 -152 0 -85 -3 -101 -30 -153 -87
-173 -297 -250 -466 -170 -73 34 -147 104 -174 163 l-18 40 -274 0 -273 0 0
-987 c0 -921 1 -990 18 -1022 9 -19 30 -44 45 -55 27 -20 44 -21 287 -24 l258
-3 4 323 c5 350 9 384 66 498 35 71 123 158 194 192 114 56 136 58 593 58
l420 0 19 35 c24 45 101 117 153 143 173 88 397 10 482 -168 23 -48 26 -68 26
-155 0 -84 -4 -107 -23 -147 -35 -70 -93 -131 -164 -169 -59 -32 -69 -34 -158
-34 -88 0 -101 3 -162 33 -76 37 -128 91 -165 170 l-25 53 -412 -3 c-392 -3
-413 -4 -456 -24 -25 -11 -59 -37 -77 -57 -57 -65 -63 -105 -63 -444 l0 -303
1699 0 1699 0 7 198 c17 434 -7 541 -134 601 -56 26 -58 26 -336 29 l-280 3
-33 -65 c-38 -74 -87 -123 -164 -163 -47 -25 -64 -28 -148 -28 -87 0 -101 3
-162 33 -77 38 -130 92 -167 171 -22 48 -26 69 -26 151 0 84 3 102 28 152 84
170 296 249 465 173 64 -29 163 -121 177 -165 6 -19 14 -20 298 -20 225 0 307
-4 356 -15 185 -44 314 -182 356 -381 11 -52 15 -145 15 -372 l0 -303 378 3
c419 3 410 2 452 71 19 31 20 58 20 1013 l0 981 -52 7 c-29 3 -148 6 -265 6
l-211 0 -22 -45 c-12 -24 -48 -69 -81 -99 -225 -209 -591 -49 -592 259 -1 81
13 131 56 199 67 107 206 175 330 162 118 -12 231 -87 283 -188 l24 -48 265 0
265 0 0 355 0 355 -254 0 -254 0 -30 -53 c-80 -141 -239 -212 -392 -173 -168
43 -275 181 -273 351 1 140 74 255 201 317 60 30 75 33 157 33 78 0 98 -4 145
-27 67 -33 142 -106 171 -165 l21 -43 254 0 254 0 0 990 c0 1091 3 1040 -62
1080 -33 20 -48 20 -1020 20 l-988 0 0 -289 0 -289 53 -30 c112 -63 178 -175
178 -302 0 -36 -3 -79 -7 -96 -13 -53 -51 -119 -95 -163 -144 -144 -374 -140
-513 9 -73 78 -91 126 -91 245 0 95 2 103 34 163 36 67 90 121 154 153 l37 19
0 290 0 290 -350 0 -350 0 0 -284 0 -284 53 -30 c112 -63 178 -175 178 -302 0
-79 -6 -110 -37 -170 -48 -97 -147 -169 -260 -189 -150 -27 -312 57 -381 198
-25 50 -28 67 -28 156 0 95 2 103 34 163 36 67 90 121 154 153 l37 19 0 285 0
285 -997 0 c-959 0 -999 -1 -1029 -19z m3391 -1526 c186 -39 331 -170 391
-355 17 -50 19 -111 22 -724 2 -425 -1 -701 -7 -755 -26 -206 -170 -376 -370
-435 -48 -14 -146 -16 -790 -16 -581 0 -747 3 -786 14 -183 48 -327 195 -370
377 -22 95 -22 1426 0 1513 25 97 65 167 137 239 74 75 176 130 270 146 29 5
364 9 743 10 573 0 702 -2 760 -14z"/>
</g>
</svg>
