<?xml version="1.0" encoding="UTF-8" standalone="no"?>
<svg xmlns:rdf="http://www.w3.org/1999/02/22-rdf-syntax-ns#" xmlns="http://www.w3.org/2000/svg" xml:space="preserve" height="24" width="24" version="1.1" enable-background="new 0 0 24.00 24.00" xmlns:cc="http://creativecommons.org/ns#" xmlns:dc="http://purl.org/dc/elements/1.1/" viewBox="0 0 24.00 24.00"><path stroke-linejoin="round" d="m17.556 17.556h-11.111v-11.111h11.111m4.444 4.444v-2.2223h-2.2222v-2.2222c0-1.2267-0.99556-2.2222-2.2222-2.2222h-2.2222v-2.2222h-2.2222v2.2222h-2.2222v-2.2222h-2.2222v2.2222h-2.2222c-1.2278 0-2.2222 0.99554-2.2222 2.2222v2.2222h-2.2222v2.2223h2.2222v2.2222h-2.2222v2.2222h2.2222v2.2222c0 1.2278 0.99444 2.2222 2.2222 2.2222h2.2222v2.2222h2.2222v-2.2222h2.2222v2.2222h2.2222v-2.2222h2.2222c1.2267 0 2.2222-0.99444 2.2222-2.2222v-2.2222h2.2222v-2.2222h-2.2222v-2.2222m-6.6667 2.2222h-2.2222v-2.2222h2.2222m2.2222-2.2223h-6.6667v6.6667h6.6667v-6.6667z" stroke-width=".2" fill="#f2f2f2"/></svg>
