<?xml version="1.0" encoding="UTF-8" standalone="no"?>
<svg id="Layer_1" xmlns:rdf="http://www.w3.org/1999/02/22-rdf-syntax-ns#" xmlns="http://www.w3.org/2000/svg" version="1.1" xml:space="preserve" height="24" viewBox="0 0 24.000001 24" width="24" enable-background="new 0 0 515.91 728.5" xmlns:cc="http://creativecommons.org/ns#" xmlns:dc="http://purl.org/dc/elements/1.1/"><metadata id="metadata9"><rdf:RDF><cc:Work rdf:about=""><dc:format>image/svg+xml</dc:format><dc:type rdf:resource="http://purl.org/dc/dcmitype/StillImage"/><dc:title/></cc:Work></rdf:RDF></metadata><path id="path5044" d="m12 2c-5.5228 0-10 4.4771-10 10 0 5.5228 4.4772 10 10 10s10-4.4772 10-10c0-5.5229-4.4772-10-10-10zm-2.0901 3.2617c0.22474 0.00032 0.44846 0.0214 0.66315 0.0651 2.0808 0.42414 2.9599 2.078 2.9556 5.5634-0.0036 2.8977-0.56762 4.5159-1.827 5.237-0.25367 0.14525-0.4815 0.27608-0.50331 0.29282-0.02182 0.0167 0.03991 0.20265 0.1342 0.41175 0.17094 0.37907 0.47726 0.59784 0.83878 0.59784 0.16953 0 0.18913 0.0702 0.18913 0.63446 0 0.60275-0.01155 0.63439-0.23178 0.63439-0.12098 0-0.3316 0.0184-0.485 0.0397h-0.44228c-0.358-0.041-0.756-0.168-0.992-0.336-0.3352-0.239-0.5454-0.606-0.7808-1.361-0.1514-0.485-0.2011-0.544-0.5612-0.664-0.9724-0.325-1.7827-1.504-2.1259-3.096-0.234-1.086-0.238-3.9011-0.0061-4.9294 0.326-1.4459 0.9907-2.4562 1.8605-2.8336 0.36393-0.15789 0.78862-0.24559 1.217-0.2562 0.032125-0.00079 0.064253-0.001 0.096359-0.001zm5.1498 0.69961 0.48195 0.0336c0.26432 0.0189 0.5118 0.0548 0.55206 0.0793s0.07317 0.45663 0.07317 0.96077v0.91812l0.58563 0.064 0.58563 0.0671v0.57343 0.57342h-0.58563-0.58563v2.5224c0 2.3813 0.01162 2.5329 0.19218 2.6963 0.18499 0.16741 0.32051 0.16476 0.90591-0.009 0.14798-0.044 0.17075 0.0214 0.17075 0.48195 0 0.59288-0.05246 0.63671-0.97603 0.84183-0.46311 0.10285-0.51803 0.10518-0.82962 0.0366-1.0835-0.23843-1.1224-0.3707-1.1224-3.834v-2.8336h-0.29282-0.29282v-0.63446-0.63446h0.34164c0.29067 0 0.34697-0.0388 0.39955-0.2684 0.0338-0.14763 0.13663-0.57584 0.22873-0.95161l0.16777-0.68322zm-4.8405 0.73204c-0.37067 0-0.82343 0.39031-1.0188 0.87845-0.4311 1.0754-0.4655 4.8342-0.0587 6.3532 0.1244 0.46456 0.4832 0.98323 0.78079 1.1316 0.64641 0.32227 1.273-0.26134 1.5099-1.4061 0.29791-1.4397 0.24126-4.8664-0.09766-5.8868-0.19166-0.57702-0.70616-1.0706-1.1163-1.0706z" fill="#f2f2f2"/></svg>
