<?xml version="1.0" standalone="no"?>
<!DOCTYPE svg PUBLIC "-//W3C//DTD SVG 20010904//EN"
 "http://www.w3.org/TR/2001/REC-SVG-20010904/DTD/svg10.dtd">
<svg version="1.0" xmlns="http://www.w3.org/2000/svg"
 width="24.000000pt" height="24.000000pt" viewBox="0 0 512.000000 512.000000"
 preserveAspectRatio="xMidYMid meet">
<metadata>
Created by potrace 1.15, written by Peter Selinger 2001-2017
</metadata>
<g transform="translate(0.000000,512.000000) scale(0.100000,-0.100000)"
fill="#f2f2f2" stroke="none">
<path d="M2820 4936 c-223 -48 -416 -162 -626 -371 -72 -71 -150 -154 -175
-183 l-44 -53 -160 8 c-263 13 -455 -10 -630 -78 -428 -164 -667 -526 -666
-1008 2 -690 533 -1545 1306 -2102 55 -39 96 -68 92 -63 -5 5 -70 72 -145 149
-138 141 -158 164 -275 310 -57 72 -177 240 -177 249 0 1 -26 45 -57 97 -31
52 -81 146 -110 209 -30 63 -58 124 -63 135 -32 68 -79 220 -120 385 -22 88
-32 239 -27 397 4 142 9 183 31 263 58 202 174 391 308 498 129 102 300 189
396 200 38 4 42 2 42 -17 0 -12 -29 -79 -64 -149 -100 -200 -163 -351 -237
-572 -70 -209 -145 -487 -135 -498 3 -3 6 0 6 7 0 50 227 552 320 706 49 82
181 280 207 312 48 58 629 173 873 173 85 0 320 -85 544 -197 61 -30 104 -48
95 -39 -15 16 -32 28 -168 124 -47 33 -61 49 -61 67 0 20 5 25 26 25 49 0 269
-49 359 -80 50 -17 97 -34 106 -37 10 -3 33 -47 57 -106 127 -320 181 -672
184 -1189 1 -210 -2 -294 -15 -363 -8 -49 -18 -115 -21 -145 -8 -78 4 -37 58
195 82 353 112 647 102 1020 -3 138 -9 271 -12 298 -6 45 -6 47 19 47 71 0
252 -259 306 -439 36 -123 45 -185 44 -331 -1 -102 -7 -175 -21 -246 -111
-560 -562 -1113 -1241 -1520 -58 -35 -103 -64 -99 -64 11 0 332 136 396 169
34 17 92 49 128 71 35 22 67 40 70 40 2 0 46 28 97 62 442 295 742 604 951
977 304 545 263 1079 -111 1448 -140 137 -315 241 -532 313 l-116 39 -42 108
c-92 236 -181 381 -318 518 -152 154 -314 231 -499 240 -56 3 -116 -1 -156 -9z
m186 -561 c133 -34 334 -159 334 -209 0 -23 -1 -23 -157 -29 -87 -3 -225 -15
-307 -27 -167 -25 -151 -27 -316 42 -58 24 -124 50 -147 58 -37 11 -43 17 -43
41 0 24 8 30 93 67 112 49 122 52 222 68 93 16 235 11 321 -11z m-696 -374 c0
-27 -5 -30 -91 -61 -50 -18 -132 -50 -182 -71 -109 -47 -127 -49 -127 -13 0
19 20 49 66 100 l66 74 134 0 134 0 0 -29z"/>
<path d="M2450 3455 c-238 -38 -448 -144 -620 -315 -149 -147 -242 -310 -297
-519 -22 -81 -26 -118 -26 -236 0 -157 21 -260 84 -410 71 -171 238 -373 396
-478 220 -146 490 -216 723 -188 264 32 486 139 670 321 149 147 242 310 297
519 22 81 26 118 26 236 0 118 -4 155 -26 236 -55 209 -148 372 -297 519 -175
174 -384 278 -630 316 -114 17 -187 17 -300 -1z"/>
</g>
</svg>
