<?xml version="1.0" encoding="UTF-8" standalone="no"?>
<svg id="svg2" xmlns:rdf="http://www.w3.org/1999/02/22-rdf-syntax-ns#" xmlns="http://www.w3.org/2000/svg" xml:space="preserve" height="24" width="24" version="1.1" enable-background="new 0 0 24.00 24.00" xmlns:cc="http://creativecommons.org/ns#" xmlns:dc="http://purl.org/dc/elements/1.1/" viewBox="0 0 24.00 24.00"><metadata id="metadata10"><rdf:RDF><cc:Work rdf:about=""><dc:format>image/svg+xml</dc:format><dc:type rdf:resource="http://purl.org/dc/dcmitype/StillImage"/><dc:title/></cc:Work></rdf:RDF></metadata><path id="path4" stroke-linejoin="round" d="m3 3h15v15h-15v-15zm16 16h2v2h-2v-2zm0-3h2v2h-2v-2zm0-3h2v2h-2v-2zm0-3h2v2h-2v-2zm0-3h2v2h-2v-2zm-3 12h2v2h-2v-2zm-3 0h2v2h-2v-2zm-3 0h2v2h-2v-2zm-3 0h2v2h-2v-2z" fill="#f2f2f2"/></svg>
