<?xml version="1.0" encoding="UTF-8" standalone="no"?>
<svg id="svg2" xmlns:rdf="http://www.w3.org/1999/02/22-rdf-syntax-ns#" xmlns="http://www.w3.org/2000/svg" xml:space="preserve" height="24" viewBox="0 0 24.00 24.00" width="24" version="1.1" enable-background="new 0 0 24.00 24.00" xmlns:cc="http://creativecommons.org/ns#" xmlns:dc="http://purl.org/dc/elements/1.1/"><metadata id="metadata10"><rdf:RDF><cc:Work rdf:about=""><dc:format>image/svg+xml</dc:format><dc:type rdf:resource="http://purl.org/dc/dcmitype/StillImage"/><dc:title/></cc:Work></rdf:RDF></metadata><path id="path4" stroke-linejoin="round" d="m12 2c-5.52 0-10 4.4784-10 10 0 5.52 4.48 10 10 10 5.521 0 10-4.48 10-10 0-5.5216-4.479-10-10-10zm-7.33 6.6667h2.6617c0.73653 0 1.3349 0.59867 1.3349 1.3347v1.3347c0 0.67067-0.5016 1.1973-1.1451 1.296l1.5557 2.7013h-1.5373l-1.5433-2.6693v2.6693h-1.3267m6.666-6.6667h2.6627v1.3347h-2.6627v1.3347h2.6627v1.328h-2.6627v1.3347h2.6627v1.3347h-2.6627c-0.74267 0-1.3347-0.59867-1.3347-1.3347v-3.9973c0-0.736 0.592-1.3347 1.3347-1.3347zm5.332 0h2.6627v1.3347h-2.6627v3.9973h2.6627v1.3347h-2.6627c-0.736 0-1.3347-0.59867-1.3347-1.3347v-3.9973c0-0.736 0.59867-1.3347 1.3347-1.3347zm-10.671 1.3347v1.3347h1.3351v-1.3347" stroke-width=".2" fill="#f2f2f2"/></svg>
