<?xml version="1.0" standalone="no"?>
<!DOCTYPE svg PUBLIC "-//W3C//DTD SVG 20010904//EN"
 "http://www.w3.org/TR/2001/REC-SVG-20010904/DTD/svg10.dtd">
<svg version="1.0" xmlns="http://www.w3.org/2000/svg"
 width="24.000000pt" height="24.000000pt" viewBox="0 0 64.000000 64.000000"
 preserveAspectRatio="xMidYMid meet">
<metadata>
Created by potrace 1.15, written by Peter Selinger 2001-2017
</metadata>
<g transform="translate(0.000000,64.000000) scale(0.100000,-0.100000)"
fill="#f8f8f8" stroke="none">
<path d="M145 540 c-4 -6 5 -51 19 -100 15 -49 27 -101 28 -115 2 -16 6 -21
12 -15 6 6 17 10 25 10 12 0 12 -2 -2 -13 -9 -6 -27 -27 -40 -46 l-23 -34 20
-69 21 -68 102 0 101 0 16 48 c8 26 18 70 22 97 3 28 17 99 31 159 17 78 21
112 13 120 -25 25 -45 -11 -77 -138 -32 -128 -44 -156 -69 -156 -17 0 -16 3
-5 -38 6 -20 6 -32 0 -32 -5 0 -9 8 -9 18 0 10 -6 24 -12 30 -10 10 -10 15 2
23 13 9 13 10 -1 6 -9 -3 -34 1 -55 9 l-39 15 41 -4 c32 -4 43 -1 53 15 16 26
-2 48 -39 48 -25 0 -28 5 -55 103 -15 56 -32 110 -37 120 -10 19 -33 23 -43 7z"/>
<path d="M276 412 c-3 -5 -8 -28 -12 -51 -7 -42 -7 -43 22 -39 27 3 29 6 29
48 0 34 -4 46 -17 48 -9 2 -19 -1 -22 -6z"/>
<path d="M341 401 c-8 -5 -12 -30 -10 -72 1 -35 0 -70 -2 -78 -5 -17 12 -23
31 -11 21 13 28 155 8 163 -8 3 -20 2 -27 -2z"/>
</g>
</svg>
