<?xml version="1.0" standalone="no"?>
<!DOCTYPE svg PUBLIC "-//W3C//DTD SVG 20010904//EN"
 "http://www.w3.org/TR/2001/REC-SVG-20010904/DTD/svg10.dtd">
<svg version="1.0" xmlns="http://www.w3.org/2000/svg"
 width="24.000000pt" height="24.000000pt" viewBox="0 0 300.000000 300.000000"
 preserveAspectRatio="xMidYMid meet">
<metadata>
Created by potrace 1.15, written by Peter Selinger 2001-2017
</metadata>
<g transform="translate(0.000000,300.000000) scale(0.100000,-0.100000)"
fill="#f8f8f8" stroke="none">
<path d="M162 2162 l-83 -77 1 -333 0 -333 117 -139 118 -140 94 0 93 0 143
135 142 135 730 0 729 0 125 -135 124 -134 96 -1 95 0 122 144 122 145 0 313
0 313 -93 93 -92 92 -1250 0 -1250 -1 -83 -77z m48 -217 c0 -62 -3 -74 -24
-94 l-23 -22 -6 65 c-3 36 -3 88 0 116 l6 51 23 -22 c21 -20 24 -32 24 -94z
m815 85 c-26 -27 -34 -30 -95 -30 -61 0 -69 3 -95 30 l-29 30 124 0 124 0 -29
-30z m360 0 c-26 -27 -34 -30 -95 -30 -61 0 -69 3 -95 30 l-29 30 124 0 124 0
-29 -30z m340 0 c-26 -27 -35 -30 -90 -30 -55 0 -64 3 -90 30 l-29 30 119 0
119 0 -29 -30z m360 0 c-26 -27 -34 -30 -95 -30 -61 0 -69 3 -95 30 l-29 30
124 0 124 0 -29 -30z m365 0 c-31 -26 -43 -29 -101 -30 -60 0 -68 3 -94 30
l-29 30 130 0 129 -1 -35 -29z m355 0 c-26 -27 -34 -30 -95 -30 -61 0 -69 3
-95 30 l-29 30 124 0 124 0 -29 -30z m-2095 -102 l0 -111 -25 23 c-22 20 -25
32 -25 89 0 53 4 69 22 88 12 13 23 23 25 23 2 0 3 -50 3 -112z m1910 -13 c0
-63 -3 -74 -25 -95 l-25 -23 0 99 c0 54 -3 110 -7 124 l-6 25 32 -29 c29 -28
31 -34 31 -101z m-1780 0 c0 -63 -3 -74 -25 -95 l-25 -23 0 118 0 118 25 -23
c22 -21 25 -32 25 -95z m230 -2 l0 -116 -25 23 c-22 21 -25 32 -25 94 0 58 4
74 22 93 12 13 23 23 25 23 2 0 3 -53 3 -117z m130 -4 c0 -57 -3 -68 -25 -89
l-25 -23 0 119 0 119 25 -30 c20 -25 24 -41 25 -96z m230 4 l0 -116 -25 23
c-22 21 -25 32 -25 94 0 58 4 74 22 93 12 13 23 23 25 23 2 0 3 -53 3 -117z
m300 -44 c-47 -62 -55 -69 -86 -69 -19 0 -34 2 -34 5 0 3 37 55 83 115 l82
111 3 -46 c3 -42 -2 -52 -48 -116z m170 46 c0 -63 -3 -74 -25 -95 l-25 -23 0
118 0 118 25 -23 c22 -21 25 -32 25 -95z m240 -7 l-1 -123 -29 35 c-26 30 -30
42 -30 94 0 51 4 64 27 88 15 15 28 28 30 28 2 0 3 -55 3 -122z m120 7 c0 -63
-3 -74 -25 -95 l-25 -23 0 118 0 118 25 -23 c22 -21 25 -32 25 -95z m240 -7
l0 -122 -30 29 c-27 26 -30 35 -30 94 0 57 3 68 27 93 15 15 28 28 30 28 2 0
3 -55 3 -122z m-2040 -7 c0 -91 -11 -121 -37 -100 -17 15 -18 180 -1 197 25
25 38 -7 38 -97z m568 -103 c9 -9 8 -16 -5 -30 -13 -14 -31 -18 -93 -18 -62 0
-80 4 -93 18 -28 31 -3 42 93 42 53 0 91 -5 98 -12z m356 -4 c12 -32 -13 -44
-94 -44 -62 0 -80 4 -93 18 -28 31 -3 42 94 42 71 0 88 -3 93 -16z m1424 4 c9
-9 8 -16 -5 -30 -22 -24 -164 -26 -183 -3 -10 12 -10 18 0 30 16 19 170 21
188 3z m-2598 -133 c0 -63 -3 -74 -25 -95 l-25 -23 0 118 0 118 25 -23 c22
-21 25 -32 25 -95z m500 -2 l0 -116 -25 23 c-22 21 -25 32 -25 94 0 58 4 74
22 93 12 13 23 23 25 23 2 0 3 -53 3 -117z m-250 4 c4 -76 2 -98 -9 -102 -30
-12 -41 16 -41 99 0 80 10 111 35 103 5 -2 12 -47 15 -100z m1680 -19 l0 -122
-30 29 c-27 26 -30 35 -30 94 0 57 3 68 27 93 15 15 28 28 30 28 2 0 3 -55 3
-122z m360 0 l0 -122 -30 29 c-27 26 -30 35 -30 94 0 57 3 68 27 93 15 15 28
28 30 28 2 0 3 -55 3 -122z m120 2 c0 -58 -3 -70 -25 -90 l-25 -23 0 100 c0
56 -3 110 -7 120 -4 13 3 9 25 -11 30 -28 32 -35 32 -96z m-1780 0 c0 -58 -3
-70 -25 -90 l-25 -23 0 113 0 113 25 -23 c22 -20 25 -32 25 -90z m230 -2 l0
-111 -25 23 c-22 20 -25 32 -25 89 0 53 4 69 22 88 12 13 23 23 25 23 2 0 3
-50 3 -112z m114 87 c10 -16 16 -46 16 -88 0 -55 -3 -67 -25 -87 l-25 -23 0
111 c0 62 4 112 9 112 5 0 16 -11 25 -25z m486 20 c0 -3 -21 -34 -47 -69 -27
-35 -55 -74 -63 -86 -8 -12 -20 -28 -26 -34 -6 -6 -15 -20 -22 -31 -10 -17
-11 -12 -12 34 0 49 4 59 51 122 46 62 54 69 85 69 19 0 34 -2 34 -5z m230
-110 c0 -63 -3 -74 -25 -95 l-25 -23 0 118 0 118 25 -23 c22 -21 25 -32 25
-95z m360 0 c0 -63 -3 -74 -25 -95 l-25 -23 0 118 0 118 25 -23 c22 -21 25
-32 25 -95z m-886 10 c40 -46 47 -61 44 -90 l-3 -34 -83 89 -83 90 38 0 c35 0
44 -6 87 -55z m-974 -110 l23 -25 -118 0 -118 0 23 25 c21 22 32 25 95 25 63
0 74 -3 95 -25z m270 0 l23 -25 -123 0 -123 0 23 25 c21 22 31 25 100 25 69 0
79 -3 100 -25z m1075 -15 l29 -30 -110 0 c-61 0 -114 3 -117 7 -4 3 3 17 15
30 18 20 31 23 88 23 61 0 69 -3 95 -30z m340 0 l29 -30 -110 0 c-61 0 -114 3
-117 7 -4 3 3 17 15 30 18 20 31 23 88 23 61 0 69 -3 95 -30z m720 0 l29 -30
-110 0 c-61 0 -114 3 -117 7 -4 3 3 17 15 30 18 20 31 23 88 23 61 0 69 -3 95
-30z"/>
<path d="M695 1200 l-120 -120 122 -237 122 -238 689 -3 688 -2 117 241 117
242 -111 118 -111 119 -697 0 -696 0 -120 -120z m418 43 c4 -3 -3 -17 -15 -30
-18 -20 -31 -23 -88 -23 -61 0 -69 3 -95 30 l-29 30 110 0 c61 0 114 -3 117
-7z m617 -38 c-21 -22 -32 -25 -95 -25 -63 0 -74 3 -95 25 l-23 25 118 0 118
0 -23 -25z m370 0 c-21 -22 -32 -25 -95 -25 -63 0 -74 3 -95 25 l-23 25 118 0
118 0 -23 -25z m-950 -102 l0 -116 -25 23 c-22 21 -25 32 -25 94 0 58 4 74 22
93 12 13 23 23 25 23 2 0 3 -53 3 -117z m770 -13 c0 -61 -3 -69 -30 -95 l-30
-29 0 124 0 124 30 -29 c27 -26 30 -34 30 -95z m-520 -7 l0 -116 -25 23 c-22
21 -25 32 -25 94 0 58 4 74 22 93 12 13 23 23 25 23 2 0 3 -53 3 -117z m150 2
c0 -55 -3 -64 -30 -90 l-30 -29 0 119 0 119 30 -29 c27 -26 30 -35 30 -90z
m230 -2 l0 -117 -30 29 c-27 26 -30 35 -30 89 0 51 4 64 27 88 15 15 28 28 30
28 2 0 3 -53 3 -117z m370 0 l0 -116 -25 23 c-22 21 -25 32 -25 94 0 58 4 74
22 93 12 13 23 23 25 23 2 0 3 -53 3 -117z m-1049 -100 c10 -10 9 -16 -1 -28
-18 -21 -172 -22 -190 0 -10 12 -10 18 1 31 10 13 29 15 96 12 46 -2 87 -8 94
-15z m-181 -143 c0 -61 -3 -69 -30 -95 l-30 -29 0 124 0 124 30 -29 c27 -26
30 -34 30 -95z m860 -22 l0 -122 -30 29 c-27 26 -30 35 -30 94 0 57 3 68 27
93 15 15 28 28 30 28 2 0 3 -55 3 -122z m140 2 c0 -61 -3 -69 -30 -95 l-30
-29 0 124 0 124 30 -29 c27 -26 30 -34 30 -95z m-520 -2 l0 -111 -25 23 c-22
20 -25 32 -25 89 0 53 4 69 22 88 12 13 23 23 25 23 2 0 3 -50 3 -112z m149 2
c0 -60 -2 -67 -30 -88 l-29 -24 0 112 0 112 29 -24 c28 -21 30 -28 30 -88z
m601 -2 l0 -111 -25 23 c-22 20 -25 32 -25 89 0 53 4 69 22 88 12 13 23 23 25
23 2 0 3 -50 3 -112z m-1045 -98 l29 -30 -124 0 -124 0 29 30 c26 27 34 30 95
30 61 0 69 -3 95 -30z m615 -15 l23 -25 -113 0 -113 0 23 25 c20 22 32 25 90
25 58 0 70 -3 90 -25z m380 0 l23 -25 -113 0 -113 0 23 25 c20 22 32 25 90 25
58 0 70 -3 90 -25z"/>
</g>
</svg>
