<?xml version="1.0" encoding="UTF-8" standalone="no"?>
<svg xmlns:rdf="http://www.w3.org/1999/02/22-rdf-syntax-ns#" xmlns="http://www.w3.org/2000/svg" height="24" width="24" version="1.1" y="0px" x="0px" xmlns:cc="http://creativecommons.org/ns#" xmlns:dc="http://purl.org/dc/elements/1.1/">
 <path fill="#f2f2f2" d="m21.307 4.093h-7.4583v-2.093h-1.3186l-10.77 1.8651v16.274l10.642 1.861h1.447v-2.3256h6.9791c0.39768-0.01859 0.83952 0.02094 1.1791-0.22558 0.26977-0.41628 0.2044-0.9372 0.22766-1.407v-13.037c0.05376-0.5348-0.39268-0.9627-0.92717-0.9115zm-12.726 8.679c-0.52789 0.26977-1.1326 0.23256-1.707 0.21396l-0.0023 2.7279-1.3837-0.11628 0.0023-7.4537c1.2628 0.06046 2.793-0.5 3.8395 0.44651 1.0023 1.2163 0.73723 3.4535-0.74885 4.1814zm12.542 5.8047h-7.2745v-1.4606h5.5815v-0.93024h-5.5815v-1.1628h5.5815v-0.93024h-5.5789s-0.0023-0.91161-0.0047-1.3675c0.92092 0.28605 1.9698 0.27907 2.793-0.27442 0.89072-0.52789 1.3558-1.5349 1.4326-2.5396l-3.0605 0.00001v-3.0372l-1.1628 0.23489v-1.9187h7.2745v13.386zm-5.647-12.189c1.6163 0.07442 2.9769 1.4407 3.063 3.0524h-3.063v-3.0524zm-8.605 3.0139c0.45814-0.02094 1.0256-0.10465 1.3349 0.32558 0.26512 0.45581 0.25116 1.0558 0.03023 1.5256-0.26512 0.47907-0.86512 0.43256-1.3279 0.48837-0.048836-0.77906-0.044188-1.5582-0.03721-2.3395z"/>
</svg>
