<?xml version="1.0" encoding="UTF-8" standalone="no"?>
<svg id="svg2" xmlns:rdf="http://www.w3.org/1999/02/22-rdf-syntax-ns#" xmlns="http://www.w3.org/2000/svg" xml:space="preserve" height="24" viewBox="0 0 24.00 24.00" width="24" version="1.1" enable-background="new 0 0 24.00 24.00" xmlns:cc="http://creativecommons.org/ns#" xmlns:dc="http://purl.org/dc/elements/1.1/"><metadata id="metadata10"><rdf:RDF><cc:Work rdf:about=""><dc:format>image/svg+xml</dc:format><dc:type rdf:resource="http://purl.org/dc/dcmitype/StillImage"/><dc:title/></cc:Work></rdf:RDF></metadata><path id="path4" d="m3 7v-2h2v-1c0-1.11 0.9-2 2-2h6v7l2.5-1.5 2.5 1.5v-7h1c1.047 0 2 0.9528 2 2v16c0 1.047-0.953 2-2 2h-12c-1.0472 0-2-0.953-2-2v-1h-2v-2h2v-4h-2v-2h2v-4h-2zm4 4h-2v2h2v-2zm0-4v-2h-2v2h2zm0 12v-2h-2v2h2z" stroke-width="1.3333"/></svg>
