<?xml version="1.0" encoding="UTF-8" standalone="no"?>
<svg
   xmlns:dc="http://purl.org/dc/elements/1.1/"
   xmlns:cc="http://creativecommons.org/ns#"
   xmlns:rdf="http://www.w3.org/1999/02/22-rdf-syntax-ns#"
   xmlns:svg="http://www.w3.org/2000/svg"
   xmlns="http://www.w3.org/2000/svg"
   id="svg2"
   viewBox="0 0 24 24"
   version="1.1"
   width="24"
   height="24">
  <metadata
     id="metadata10">
    <rdf:RDF>
      <cc:Work
         rdf:about="">
        <dc:format>image/svg+xml</dc:format>
        <dc:type
           rdf:resource="http://purl.org/dc/dcmitype/StillImage" />
        <dc:title></dc:title>
      </cc:Work>
    </rdf:RDF>
  </metadata>
  <defs
     id="defs8" />
  <path
     style="fill:#000000;fill-opacity:1"
     id="path4"
     d="m10.99 21.95c-0.92288-0.0946-2.2828-0.45815-3.1639-0.84575-1.4214-0.62527-3.2029-2.1122-4.1208-3.4393-0.50882-0.73564-1.1933-2.2452-1.456-3.2113-0.32883-1.2091-0.33256-3.7187-0.0073-4.8885 1.1506-4.1376 4.3787-6.952 8.5937-7.4922 3.1732-0.40673 6.6249 0.92292 8.7359 3.3652 1.0521 1.2172 1.7682 2.5685 2.1966 4.1448 0.19785 0.72807 0.23403 1.1077 0.23208 2.4353-0.0027 1.8465-0.18805 2.7082-0.90969 4.2292-0.56162 1.1838-0.92746 1.709-1.8839 2.7048-2.0887 2.1747-5.194 3.3076-8.2166 2.9977zm1.3827-1.8208c3.0914-0.91353 5.6338-2.5918 6.9839-4.6102 0.81594-1.2198 1.0862-1.9992 1.1435-3.2978 0.07153-1.6217-0.2695-2.8002-1.209-4.1781-0.48178-0.70657-1.6832-1.9832-1.7778-1.8891-0.03289 0.0327 0.15678 0.37241 0.4215 0.75487 1.2344 1.7834 1.513 3.3736 0.74386 4.245-0.60788 0.68868-1.67 1.0214-3.6693 1.1495l-1.1643 0.0746 1.0949 0.53785c2.5542 1.2547 2.7878 2.3773 0.71671 3.4441-0.90799 0.4677-2.5759 1.0135-4.1158 1.3468-0.58419 0.12646-1.1028 0.26527-1.1526 0.30848-0.08722 0.0758 0.18 1.7158 0.35797 2.197 0.11317 0.30598 0.35129 0.29384 1.6265-0.083zm-6.5148-2.8075c-0.10962-0.15429-0.39485-0.66848-0.63384-1.1426-0.32443-0.6437-0.44732-1.0207-0.48502-1.488-0.06615-0.8197 0.0075-1.0725 0.45669-1.567 0.67912-0.74774 1.5023-1.0338 3.3447-1.1624 0.56106-0.0392 1.0604-0.0944 1.1097-0.12278 0.04929-0.0284-0.37927-0.29124-0.95235-0.58417-1.0973-0.56085-1.6456-1.0007-1.8453-1.4801-0.4774-1.1465 1.4843-2.334 5.2583-3.1833 0.67327-0.1515 1.2774-0.29078 1.3425-0.3095 0.08464-0.0243 0.04735-0.36068-0.13093-1.1806-0.13711-0.63061-0.2838-1.1809-0.32599-1.2229-0.04218-0.042-0.48822 0.0334-0.99119 0.16742-4.2128 1.1227-7.3451 3.5005-8.3067 6.3058-0.35486 1.0352-0.40407 2.5868-0.11525 3.634 0.34657 1.2566 0.96672 2.3304 1.9462 3.3699 0.46226 0.49059 0.68476 0.46775 0.32846-0.0337z" />
</svg>
