<?xml version="1.0" encoding="UTF-8" standalone="no"?>
<svg
   xmlns:dc="http://purl.org/dc/elements/1.1/"
   xmlns:cc="http://creativecommons.org/ns#"
   xmlns:rdf="http://www.w3.org/1999/02/22-rdf-syntax-ns#"
   xmlns:svg="http://www.w3.org/2000/svg"
   xmlns="http://www.w3.org/2000/svg"
   xmlns:sodipodi="http://sodipodi.sourceforge.net/DTD/sodipodi-0.dtd"
   xmlns:inkscape="http://www.inkscape.org/namespaces/inkscape"
   viewBox="0 0 24 24"
   version="1.1"
   width="24"
   height="24"
   id="svg2"
   inkscape:version="0.91 r13725"
   sodipodi:docname="firefox.svg">
  <metadata
     id="metadata11">
    <rdf:RDF>
      <cc:Work
         rdf:about="">
        <dc:format>image/svg+xml</dc:format>
        <dc:type
           rdf:resource="http://purl.org/dc/dcmitype/StillImage" />
        <dc:title></dc:title>
      </cc:Work>
    </rdf:RDF>
  </metadata>
  <defs
     id="defs9" />
  <sodipodi:namedview
     pagecolor="#ffffff"
     bordercolor="#666666"
     borderopacity="1"
     objecttolerance="10"
     gridtolerance="10"
     guidetolerance="10"
     inkscape:pageopacity="0"
     inkscape:pageshadow="2"
     inkscape:window-width="1381"
     inkscape:window-height="926"
     id="namedview7"
     showgrid="false"
     inkscape:zoom="7.375"
     inkscape:cx="16"
     inkscape:cy="16"
     inkscape:window-x="0"
     inkscape:window-y="0"
     inkscape:window-maximized="0"
     inkscape:current-layer="svg2" />
  <g
     id="surface1"
     transform="matrix(0.90909091,0,0,0.90909091,-2.5454546,-2.5450445)"
     style="fill:#0d0e0e;fill-opacity:1">
    <path
       d="M 26.816406,12.625 C 26.765625,13.1875 26.5,13.796875 26.5,13.796875 c -0.03125,-1.261719 -0.21875,-2.386719 -0.566406,-3.375 0,-0.0039 -0.0039,-0.01563 -0.0078,-0.02344 C 25.652344,9.625 25.285156,8.933594 24.824219,8.324219 c 0.214844,0.84375 0.324219,1.5 0.328125,1.976562 -0.417969,-1.476562 -2.429688,-5.125 -9.207031,-4.351562 1.015625,0 1.988281,0.167969 2.90625,0.464844 -0.148438,-0.00781 -0.292969,-0.019532 -0.445313,-0.023438 1.453125,0.410156 2.382813,1.074219 2.507813,1.382813 -0.535157,-0.097657 -1.015625,-0.0625 -1.441407,0.105468 3.046875,1.199219 4.496094,2.628907 4.328125,4.28125 -0.222656,-0.34375 -0.519531,-0.574218 -0.898437,-0.6875 0.46875,1.8125 0.515625,3.308594 0.136719,4.492188 -0.257813,-0.789063 -0.496094,-1.257813 -0.710938,-1.425781 0.296875,2.429687 -0.101562,4.226562 -1.195312,5.398437 0.207031,-0.714844 0.289062,-1.300781 0.242187,-1.761719 -1.183594,1.878907 -2.894531,2.980469 -4.382812,2.980469 -2.089844,0 -3.441407,-1.058594 -4.125,-1.742187 0.164062,0.01172 0.328125,0.01953 0.488281,0.01953 2.566406,0 3.332031,-1.507813 4.039062,-1.507813 0.09375,0 0.183594,0.02344 0.269532,0.0625 0.257812,-0.03516 0.390625,-0.15625 0.390625,-0.328125 0,-0.386718 -0.828125,-1.054687 -1.714844,-1.054687 -1.035156,0 -1.261719,0.703125 -2.316406,0.703125 -1.320313,0 -2.496094,-1.8125 -2.496094,-1.8125 0,-0.476563 0.230469,-0.785156 0.636719,-0.847656 -0.113282,-0.01172 0.980468,0.140625 1.570312,0.3125 0.09766,-0.5625 -0.03125,-1.164063 -0.386719,-1.769532 0,-0.0039 0.84375,-0.792968 1.464844,-1.125 0.1875,-0.09766 0.292969,-0.25 0.332031,-0.449218 0.05078,-0.02734 0.101563,-0.117188 0.101563,-0.207032 0,-0.08594 -0.05859,-0.164062 -0.171875,-0.234375 -1.796875,0.148438 -1.929688,-0.875 -2.613281,-1.269531 C 12.660156,8.621094 13.570313,7.863281 14.15625,7.46875 13.066406,7.605469 12.082031,8.089844 11.207031,8.929688 10.738281,8.53125 8.625,8.386719 8.101563,8.648438 7.769531,8.226563 7.53125,7.566406 7.394531,6.667969 6.601563,7.441406 6.21875,8.832031 6.242188,10.835938 6.199219,10.894531 5,12.40625 5,13.484375 c 0,0.117188 0.011719,0.273438 0.035156,0.351563 L 5.679688,13.3125 c -0.234375,0.585938 -0.515625,1.46875 -0.515625,2.675781 0,4.460938 3.914062,10.167969 10.832031,10.167969 C 24.472656,26.15625 27,19.140625 27,14.117188 27,13.523438 26.941406,13.015625 26.816406,12.625 Z"
       id="path5"
       inkscape:connector-curvature="0"
       style="fill:#0d0e0e;fill-opacity:1" />
  </g>
</svg>
