<?xml version="1.0" encoding="UTF-8" standalone="no"?>
<svg xmlns:rdf="http://www.w3.org/1999/02/22-rdf-syntax-ns#" xmlns="http://www.w3.org/2000/svg" height="24" width="24" version="1.1" xmlns:cc="http://creativecommons.org/ns#" xmlns:dc="http://purl.org/dc/elements/1.1/" viewBox="0 0 24 24">
 <g fill="#000000" transform="matrix(.90909 0 0 .90909 -2.5455 -2.545)">
  <path fill="#000000" d="m26.816 12.625c-0.05 0.563-0.316 1.172-0.316 1.172-0.03125-1.2617-0.21875-2.3867-0.56641-3.375 0-0.0039-0.0039-0.01563-0.0078-0.02344-0.274-0.774-0.641-1.4654-1.102-2.0748 0.21484 0.84375 0.32422 1.5 0.32812 1.9766-0.41797-1.4766-2.4297-5.125-9.207-4.3516 1.0156 0 1.9883 0.16797 2.9062 0.46484-0.14844-0.00781-0.29297-0.019532-0.44531-0.023438 1.4531 0.41016 2.3828 1.0742 2.5078 1.3828-0.53516-0.097657-1.0156-0.0625-1.4414 0.10547 3.0469 1.1992 4.4961 2.6289 4.3281 4.2812-0.22266-0.34375-0.51953-0.57422-0.89844-0.6875 0.46875 1.8125 0.51562 3.3086 0.13672 4.4922-0.25781-0.78906-0.49609-1.2578-0.71094-1.4258 0.29688 2.4297-0.10156 4.2266-1.1953 5.3984 0.20703-0.71484 0.28906-1.3008 0.24219-1.7617-1.1836 1.8789-2.8945 2.9805-4.3828 2.9805-2.0898 0-3.4414-1.0586-4.125-1.7422 0.16406 0.01172 0.32812 0.01953 0.48828 0.01953 2.5664 0 3.332-1.5078 4.0391-1.5078 0.09375 0 0.18359 0.02344 0.26953 0.0625 0.25781-0.03516 0.39062-0.15625 0.39062-0.32812 0-0.38672-0.82812-1.0547-1.7148-1.0547-1.0352 0-1.2617 0.70312-2.3164 0.70312-1.3203 0-2.4961-1.8125-2.4961-1.8125 0-0.47656 0.23047-0.78516 0.63672-0.84766-0.11328-0.01172 0.98047 0.14062 1.5703 0.3125 0.09766-0.5625-0.03125-1.1641-0.38672-1.7695 0-0.0039 0.84375-0.79297 1.4648-1.125 0.1875-0.09766 0.29297-0.25 0.33203-0.44922 0.05078-0.02734 0.10156-0.11719 0.10156-0.20703 0-0.08594-0.05859-0.16406-0.17188-0.23438-1.7969 0.14844-1.9297-0.875-2.6133-1.2695 0.2-1.2858 1.11-2.0436 1.696-2.4381-1.09 0.1367-2.074 0.621-2.949 1.4609-0.469-0.3985-2.582-0.543-3.1054-0.2813-0.3321-0.4218-0.5704-1.082-0.7071-1.9804-0.7929 0.7734-1.1757 2.164-1.1523 4.168-0.043 0.059-1.2422 1.57-1.2422 2.648 0 0.11719 0.011719 0.27344 0.035156 0.35156l0.6445-0.524c-0.23438 0.58594-0.51562 1.4688-0.51562 2.6758 0 4.4609 3.9141 10.168 10.832 10.168 8.477 0 11.004-7.015 11.004-12.039 0-0.594-0.059-1.101-0.184-1.492z"/>
 </g>
</svg>
