<?xml version="1.0" encoding="UTF-8" standalone="no"?>
<svg id="svg2" xmlns:rdf="http://www.w3.org/1999/02/22-rdf-syntax-ns#" xmlns="http://www.w3.org/2000/svg" xml:space="preserve" height="24" width="24" version="1.1" enable-background="new 0 0 24.00 24.00" xmlns:cc="http://creativecommons.org/ns#" xmlns:dc="http://purl.org/dc/elements/1.1/" viewBox="0 0 24.00 24.00"><metadata id="metadata10"><rdf:RDF><cc:Work rdf:about=""><dc:format>image/svg+xml</dc:format><dc:type rdf:resource="http://purl.org/dc/dcmitype/StillImage"/><dc:title/></cc:Work></rdf:RDF></metadata><path id="path4" stroke-linejoin="round" d="m11.999 2c-5.5213 0-9.999 4.4771-9.999 10.001 0 4.417 2.865 8.165 6.8388 9.488 0.5003 0.092 0.6826-0.217 0.6826-0.482 0-0.237-0.0086-0.866-0.0135-1.701-2.7815 0.604-3.3684-1.34-3.3684-1.34-0.4549-1.156-1.1105-1.463-1.1105-1.463-0.908-0.621 0.0687-0.608 0.0687-0.608 1.0037 0.071 1.5317 1.031 1.5317 1.031 0.892 1.528 2.3407 1.086 2.9104 0.83 0.0909-0.646 0.3493-1.086 0.6352-1.336-2.2208-0.253-4.5555-1.111-4.5555-4.943 0-1.091 0.3898-1.9841 1.0295-2.6831-0.1031-0.253-0.4463-1.2697 0.0982-2.6465 0 0 0.8392-0.2689 2.7497 1.0251 0.7971-0.2218 1.6531-0.3327 2.5031-0.3366 0.85 0.0039 1.705 0.1148 2.504 0.3366 1.909-1.294 2.747-1.0251 2.747-1.0251 0.546 1.3768 0.203 2.3935 0.1 2.6465 0.641 0.699 1.028 1.5921 1.028 2.6831 0 3.842-2.339 4.687-4.566 4.935 0.359 0.308 0.679 0.919 0.679 1.852 0 1.336-0.013 2.415-0.013 2.743 0 0.267 0.181 0.579 0.688 0.481 3.97-1.325 6.833-5.071 6.833-9.487 0-5.5239-4.478-10.001-10.001-10.001z" fill-rule="evenodd"/></svg>
