<?xml version="1.0" encoding="UTF-8" standalone="no"?>
<svg id="svg2" xmlns:rdf="http://www.w3.org/1999/02/22-rdf-syntax-ns#" xmlns="http://www.w3.org/2000/svg" xml:space="preserve" height="24" width="24" version="1.1" enable-background="new 0 0 24.00 24.00" xmlns:cc="http://creativecommons.org/ns#" xmlns:dc="http://purl.org/dc/elements/1.1/" viewBox="0 0 24.00 24.00"><metadata id="metadata10"><rdf:RDF><cc:Work rdf:about=""><dc:format>image/svg+xml</dc:format><dc:type rdf:resource="http://purl.org/dc/dcmitype/StillImage"/><dc:title/></cc:Work></rdf:RDF></metadata><path id="path4" d="m3 1c-1.108 0-2 0.892-2 2v14c0 1.108 0.892 2 2 2h12l-6-18h-6zm9.344 4l0.656 2h8v14h-8.625l0.656 2h7.969c1.108 0 2-0.892 2-2v-14c0-1.108-0.892-2-2-2h-8.656zm-5.2815 0.9062c1.0992 0 2.0245 0.3996 2.7187 1.0938l-1.125 1.0312c-0.2892-0.2891-0.7838-0.625-1.5937-0.625-1.3884 0-2.5 1.1429-2.5 2.5313 0 1.3885 1.1116 2.5625 2.5 2.5625 1.6198 0 2.1968-1.172 2.3125-1.75h-2.3125v-1.375h3.8125c0.058 0.2314 0.063 0.3983 0.063 0.687 0 2.315-1.5614 3.938-3.8755 3.938-2.2562 0-4.0625-1.806-4.0625-4.0625 0-2.2562 1.8063-4.0313 4.0625-4.0313zm8.9375 4.0938v1h-1.656l0.312 1h3.344c-0.266 0.612-0.372 1.173-1.188 2.125-0.402-0.466-0.724-0.877-0.812-1.125h-1c0.118 0.428 0.617 1.099 1.219 1.781-0.134 0.131-0.308 0.295-0.469 0.438l0.281 0.843c0.253-0.224 0.503-0.453 0.75-0.687 1.019 1.078 2.094 2.063 2.094 2.063l0.563-0.594s-1.068-1.059-2.032-2.094c0.629-0.702 1.191-1.549 1.594-2.75h1v-1h-3v-1h-1z" stroke-width="1.3333"/></svg>
