<?xml version="1.0" encoding="UTF-8" standalone="no"?>
<svg id="svg2" xmlns:rdf="http://www.w3.org/1999/02/22-rdf-syntax-ns#" xmlns="http://www.w3.org/2000/svg" height="48px" viewBox="0 0 24 24" width="48px" version="1.1" xmlns:cc="http://creativecommons.org/ns#" xmlns:dc="http://purl.org/dc/elements/1.1/">
 <metadata id="metadata10">
  <rdf:RDF>
   <cc:Work rdf:about="">
    <dc:format>image/svg+xml</dc:format>
    <dc:type rdf:resource="http://purl.org/dc/dcmitype/StillImage"/>
    <dc:title/>
   </cc:Work>
  </rdf:RDF>
 </metadata>
 <path id="path4" d="m11.895 2.0293c-0.616 0-1.223 0.2266-1.661 0.6816l-7.3531 7.6391c-2.787 2.827 1.7989 2.589 3.4609 3.66 0.767 0.506-2.4627 1.158-1.8047 1.826 0.642 0.672 3.8766 1.286 4.5176 1.937 0.642 0.668-1.3042 1.379-0.6582 2.047 0.625 0.668 2.1195 0.037 2.3905 1.557 0.077 0.442 0.516 0.623 1.09 0.623 0.891 0 2.109-0.437 2.803-1.021 0.712-0.614-1.233-0.615-0.592-1.288 0.575-0.589 1.125-0.849 1.625-1.011 0.896-0.295 1.621-0.271 2-1.25 0.321-0.814-2.43-1.395-1.697-1.918 1.751-1.249 8.18-1.884 5.213-4.889l-7.62-7.9121c-0.473-0.455-1.098-0.6816-1.714-0.6816zm0 2c0.057 0 0.197 0.0114 0.31 0.1094l5.045 5.2363-1.25 0.625-1-1-2 1-2-2-2 2h-3l5.676-5.9023c0.04-0.042 0.125-0.0684 0.219-0.0684zm-3.4555 10.041c0.137 0 3.2795 0.523 4.4125 1.127 0.512 0.274 0.609 0.565-0.174 0.832-0.024 0.008-0.058 0.009-0.086 0.014-0.044 0.008-0.086 0.019-0.139 0.019-0.513 0.006-1.427-0.309-2.273-0.691-0.002-0.001-0.004-0.003-0.006-0.004-0.129-0.059-0.257-0.119-0.381-0.179-0.026-0.014-0.0512-0.025-0.0762-0.038-0.097-0.048-0.1912-0.096-0.2832-0.144-0.044-0.023-0.0869-0.046-0.1289-0.068-0.068-0.038-0.1352-0.076-0.1992-0.112-0.053-0.03-0.1053-0.061-0.1543-0.09-0.047-0.028-0.0898-0.054-0.1328-0.08-0.055-0.034-0.1083-0.068-0.1563-0.101-0.03-0.021-0.057-0.041-0.084-0.061-0.048-0.034-0.0928-0.067-0.1308-0.099-0.02-0.017-0.0358-0.031-0.0528-0.047-0.033-0.03-0.0649-0.058-0.0859-0.084-0.013-0.016-0.0174-0.029-0.0254-0.043-0.013-0.021-0.0253-0.044-0.0273-0.061-0.002-0.018 0.0085-0.03 0.0195-0.043 0.006-0.008 0.0066-0.017 0.0176-0.023 0.029-0.015 0.0765-0.024 0.1465-0.024zm12.094 2.438c-0.673 0.026-1.358 0.393-1.533 1.072 0 0.446 3.167 0.702 2.992-0.105-0.126-0.68-0.786-0.994-1.459-0.967zm-13.506 1.498c-1.1928-0.084-2.7218 0.821-1.6816 1.711 0.885 0.776 2.2243-0.171 2.6543-1.262-0.2152-0.285-0.575-0.421-0.9727-0.449zm11.207 0.994c-0.616 0.633 0.108 1.296 0.711 0.859 0.16-0.12-0.015-0.708-0.711-0.859z"/>
</svg>
