<?xml version="1.0" encoding="UTF-8" standalone="no"?>
<svg xmlns:rdf="http://www.w3.org/1999/02/22-rdf-syntax-ns#" xmlns="http://www.w3.org/2000/svg" height="24" viewBox="0 0 12 12" width="24" version="1.1" xmlns:cc="http://creativecommons.org/ns#" xmlns:dc="http://purl.org/dc/elements/1.1/">
 <path d="m5.9469 1.0068c-0.30803 0-0.61156 0.11331-0.83058 0.34083l-3.6769 3.82c-1.3936 1.4136 0.8996 1.2946 1.7306 1.8302 0.3836 0.253-1.2314 0.579-0.9024 0.9131 0.321 0.336 1.9385 0.643 2.259 0.9686 0.3211 0.334-0.6521 0.6895-0.3291 1.0236 0.31253 0.33403 1.0599 0.0185 1.1954 0.77858 0.038504 0.22102 0.25803 0.31153 0.54505 0.31153 0.44554 0 1.0546-0.21852 1.4016-0.51055 0.3561-0.307-0.6165-0.308-0.296-0.6444 0.2876-0.2946 0.5626-0.4246 0.8126-0.5056 0.4481-0.1475 0.8106-0.1355 1.0001-0.6251 0.1605-0.407-1.2151-0.6975-0.8486-0.9591 0.8756-0.6245 4.0904-0.942 2.6064-2.4447l-3.81-3.9564c-0.2365-0.2276-0.549-0.3409-0.8571-0.3409zm0 1.0001c0.028503 0 0.09851 0.0057 0.15502 0.05471l2.5228 2.6184-0.6251 0.3126-0.5-0.5001-1.0001 0.5001-1.0001-1.0001-1.0001 1.0001h-1.5001l2.8383-2.9514c0.020002-0.021 0.062506-0.0342 0.10951-0.0342zm-1.7279 5.021c0.068507 0 1.6399 0.26153 2.2065 0.56356 0.25603 0.13701 0.30453 0.28253-0.087009 0.41604-0.012001 0.004-0.029003 0.0045-0.043004 0.007-0.022002 0.004-0.043004 0.0095-0.069507 0.0095-0.2566 0.003-0.7136-0.1545-1.1367-0.3455-0.001-0.0005-0.002-0.0015-0.003-0.002-0.0645-0.0295-0.1285-0.0595-0.1905-0.0895-0.013-0.007-0.0256-0.0125-0.0381-0.019-0.0485-0.024-0.0956-0.048-0.1416-0.072-0.022-0.0115-0.0435-0.023-0.0645-0.034-0.034-0.019-0.0676-0.038-0.0996-0.056-0.0265-0.015-0.0526-0.0305-0.0771-0.045-0.0235-0.014-0.0449-0.027-0.0664-0.04-0.0275-0.017-0.0542-0.034-0.0782-0.0505-0.015-0.0105-0.0285-0.0205-0.042-0.0305-0.024-0.017-0.0464-0.0335-0.0654-0.0495-0.01-0.0085-0.0179-0.0155-0.0264-0.0235-0.016502-0.015-0.032453-0.029-0.042954-0.042-0.0065-0.008-0.0087-0.0145-0.012701-0.0215-0.0065-0.0105-0.012651-0.022-0.013651-0.0305-0.001-0.009 0.00425-0.015 0.00975-0.0215 0.003-0.004 0.0033-0.0085 0.0088-0.0115 0.014501-0.0075 0.038254-0.012 0.073257-0.012zm6.0476 1.2191c-0.33653 0.013-0.67907 0.19652-0.76658 0.53605 0 0.22302 1.5837 0.35103 1.4961-0.05251-0.064-0.3399-0.394-0.497-0.73-0.4835zm-6.7541 0.7491c-0.5964-0.042-1.361 0.4106-0.8409 0.8556 0.4426 0.3883 1.1123-0.0855 1.3273-0.6311-0.1076-0.1425-0.2875-0.2105-0.4864-0.2245zm5.6041 0.49705c-0.30803 0.31653 0.05401 0.64806 0.35554 0.42954 0.08001-0.06001-0.0075-0.35404-0.35554-0.42954z"/>
</svg>
