<?xml version="1.0" encoding="UTF-8" standalone="no"?>
<svg id="svg2" xmlns:rdf="http://www.w3.org/1999/02/22-rdf-syntax-ns#" xmlns="http://www.w3.org/2000/svg" xml:space="preserve" height="24" width="24" version="1.1" enable-background="new 0 0 24.00 24.00" xmlns:cc="http://creativecommons.org/ns#" xmlns:dc="http://purl.org/dc/elements/1.1/" viewBox="0 0 24.00 24.00"><metadata id="metadata10"><rdf:RDF><cc:Work rdf:about=""><dc:format>image/svg+xml</dc:format><dc:type rdf:resource="http://purl.org/dc/dcmitype/StillImage"/><dc:title/></cc:Work></rdf:RDF></metadata><path id="path4" stroke-linejoin="round" d="m7.8 2h8.4c3.203 0 5.8 2.5968 5.8 5.8v8.4c0 3.203-2.597 5.8-5.8 5.8h-8.4c-3.2032 0-5.8-2.597-5.8-5.8v-8.4c0-3.2032 2.5968-5.8 5.8-5.8zm-0.2 2c-1.9882 0-3.6 1.6118-3.6 3.6v8.8c0 1.988 1.6118 3.6 3.6 3.6h8.8c1.988 0 3.6-1.612 3.6-3.6v-8.8c0-1.9882-1.612-3.6-3.6-3.6h-8.8zm9.65 1.5c0.69 0 1.25 0.5596 1.25 1.25s-0.56 1.25-1.25 1.25-1.25-0.5596-1.25-1.25 0.56-1.25 1.25-1.25zm-5.25 1.5c2.761 0 5 2.2386 5 5 0 2.761-2.239 5-5 5-2.7614 0-5-2.239-5-5 0-2.7614 2.2386-5 5-5zm0 2c-1.657 0-3 1.343-3 3s1.343 3 3 3 3-1.343 3-3-1.343-3-3-3z"/></svg>
