<?xml version="1.0" encoding="UTF-8" standalone="no"?>
<!-- Svg Vector Icons : http://www.onlinewebfonts.com/icon -->
<svg id="svg2" xmlns:rdf="http://www.w3.org/1999/02/22-rdf-syntax-ns#" xmlns="http://www.w3.org/2000/svg" version="1.1" xml:space="preserve" height="24" viewBox="0 0 24 24" width="24" enable-background="new 0 0 1000 1000" y="0px" x="0px" xmlns:cc="http://creativecommons.org/ns#" xmlns:dc="http://purl.org/dc/elements/1.1/"><metadata id="metadata4"> Svg Vector Icons : http://www.onlinewebfonts.com/icon <rdf:RDF><cc:Work rdf:about=""><dc:format>image/svg+xml</dc:format><dc:type rdf:resource="http://purl.org/dc/dcmitype/StillImage"/><dc:title/></cc:Work></rdf:RDF></metadata><g id="g6" fill="#0d0e0e" transform="matrix(.022266 0 0 .022266 .86711 .86689)"><g id="g8" fill="#0d0e0e" transform="matrix(.1 0 0 -.1 0 512)"><path id="path10" d="m7390.8 5019.4c0-8.1 22.1-122.7 48.3-255.5 90.5-448.6 102.6-585.4 102.6-1086.4 0-420.5-6-513-46.3-710.2-122.7-607.6-348-1058.2-716.2-1424.4-100.6-100.6-203.2-193.1-227.3-207.2l-46.3-24.1v1454.6l-152.9-82.5c-195.2-106.6-344-221.3-523.1-406.4-788.6-822.9-802.7-2124.5-30.2-2939.3 209.2-221.3 382.2-354.1 615.6-466.7 1219.2-601.6 2665.7 62.4 3021.8 1386.1 52.3 193.1 54.3 221.3 54.3 704.2 0 535.1-16.1 726.3-98.6 1070.3-173 726.3-617.6 1478.7-1396.2 2359.9-199.1 225.3-605.5 645.7-605.5 627.6z"/><path id="path12" d="m3962.6 2901c-1285.5-134.8-2408.2-899.3-3019.8-2054.1-565.3-1072.3-579.4-2402.2-36.2-3486.6 515-1028 1412.3-1750.3 2518.8-2032 462.7-116.7 1136.7-142.8 1591.4-60.4 762.5 138.8 1448.5 486.9 1995.8 1014 243.4 233.4 382.2 398.3 547.2 643.8 132.8 199.2 309.8 539.2 392.3 756.4l60.4 154.9-74.5-12.1c-553.3-92.6-1074.3-54.3-1547.1 110.7-96.6 34.2-257.5 102.6-354.1 150.9-98.6 48.3-185.1 88.5-193.1 88.5-10.1 0-42.2-38.2-72.4-84.5-32.2-48.3-112.7-144.8-179.1-215.2-329.9-344-750.4-525.1-1221.2-525.1-253.5 0-392.3 24.1-617.6 104.6-468.8 171-861.1 579.4-1032.1 1078.3-64.4 189.1-66.4 205.2-68.4 517 0 382.3 22.1 486.9 171 784.6 167 336 414.4 589.5 744.4 762.5 213.3 110.7 517.1 193.1 708.2 193.1h76.4v106.6c0 56.3 14.1 195.1 30.2 305.8 84.5 553.3 279.6 1007.9 621.7 1446.5l148.9 189.1-122.7 22.1c-346.1 60.7-738.4 74.8-1068.4 40.6z"/><path id="path14" d="m4216.1-96.7c-338-58.3-623.7-338-688-678-90.5-462.7 227.3-915.4 698.1-995.9 237.4-42.2 519.1 42.2 698.1 207.2 92.5 86.5 213.3 255.5 213.3 299.8 0 14.1-36.2 68.4-82.5 118.7-199.2 227.4-446.6 659.9-533.1 935.5-20.1 62.4-46.3 114.7-60.4 114.7-12.1 0-48.3 4-80.5 8-32.2 4.1-106.7 0.1-165-10z"/></g></g></svg>
