<?xml version="1.0" standalone="no"?>
<!DOCTYPE svg PUBLIC "-//W3C//DTD SVG 20010904//EN"
 "http://www.w3.org/TR/2001/REC-SVG-20010904/DTD/svg10.dtd">
<svg version="1.0" xmlns="http://www.w3.org/2000/svg"
 width="512.000000pt" height="512.000000pt" viewBox="0 0 512.000000 512.000000"
 preserveAspectRatio="xMidYMid meet">
<metadata>
Created by potrace 1.15, written by Peter Selinger 2001-2017
</metadata>
<g transform="translate(0.000000,512.000000) scale(0.100000,-0.100000)"
fill="#000000" stroke="none">
<path d="M2225 5113 c-275 -35 -564 -125 -826 -259 -657 -334 -1138 -929
-1320 -1633 -54 -208 -71 -336 -76 -583 -6 -258 4 -382 47 -598 102 -506 352
-959 731 -1325 378 -365 837 -596 1363 -686 155 -27 515 -37 679 -20 688 74
1314 417 1744 957 276 348 449 745 529 1214 25 146 30 512 10 684 -91 781
-548 1495 -1215 1896 -172 103 -218 118 -259 83 -24 -21 -790 -1658 -805
-1721 -7 -29 -7 -46 0 -53 12 -12 72 -6 663 57 233 25 435 42 447 39 13 -3 23
-10 23 -16 0 -6 -76 -122 -168 -258 -93 -135 -397 -581 -677 -991 -632 -926
-1034 -1512 -1046 -1524 -10 -11 22 111 144 549 53 187 138 495 191 685 52
190 109 389 125 443 24 80 28 104 19 128 -10 28 -11 29 -81 29 -40 0 -101 -5
-137 -10 -36 -5 -225 -27 -420 -50 -195 -22 -370 -43 -389 -47 l-34 -6 7 49
c3 27 19 92 35 144 51 167 477 1578 632 2090 82 272 166 543 186 602 19 59 33
114 30 122 -6 16 -70 20 -152 9z"/>
</g>
</svg>
