<?xml version="1.0" encoding="UTF-8" standalone="no"?>
<svg id="svg2" xmlns:rdf="http://www.w3.org/1999/02/22-rdf-syntax-ns#" xmlns="http://www.w3.org/2000/svg" xml:space="preserve" height="24" width="24" version="1.1" enable-background="new 0 0 24.00 24.00" xmlns:cc="http://creativecommons.org/ns#" xmlns:dc="http://purl.org/dc/elements/1.1/" viewBox="0 0 24.00 24.00"><metadata id="metadata10"><rdf:RDF><cc:Work rdf:about=""><dc:format>image/svg+xml</dc:format><dc:type rdf:resource="http://purl.org/dc/dcmitype/StillImage"/><dc:title/></cc:Work></rdf:RDF></metadata><path id="path4" d="m18 2h-6v7l-2.5-1.5-2.5 1.5v-7h-1c-1.1046 0-2 0.8954-2 2v16c0 1.105 0.8954 2 2 2h12c1.105 0 2-0.895 2-2v-16c0-1.1046-0.895-2-2-2zm0 18h-8v-4h1v-1c0-1.657 1.343-3 3-3s3 1.343 3 3v1h1v4zm-3-5v1h-2v-1c0-0.552 0.448-1 1-1s1 0.448 1 1z" stroke-width="1.3333" fill="#0d0e0e"/></svg>
