<?xml version="1.0" standalone="no"?>
<!DOCTYPE svg PUBLIC "-//W3C//DTD SVG 20010904//EN"
 "http://www.w3.org/TR/2001/REC-SVG-20010904/DTD/svg10.dtd">
<svg version="1.0" xmlns="http://www.w3.org/2000/svg"
 width="512.000000pt" height="512.000000pt" viewBox="0 0 512.000000 512.000000"
 preserveAspectRatio="xMidYMid meet">
<metadata>
Created by potrace 1.15, written by Peter Selinger 2001-2017
</metadata>
<g transform="translate(0.000000,512.000000) scale(0.100000,-0.100000)"
fill="#000000" stroke="none">
<path d="M2240 5105 c-652 -85 -1231 -403 -1652 -905 -312 -371 -512 -837
-574 -1330 -18 -145 -18 -469 0 -620 71 -586 334 -1116 762 -1530 390 -378
847 -606 1399 -697 158 -26 611 -26 775 0 452 73 883 265 1235 552 105 86 297
280 377 380 303 383 489 828 544 1301 24 207 15 549 -19 744 -90 510 -319 962
-677 1333 -420 437 -942 698 -1540 773 -140 17 -496 17 -630 -1z m391 -1126
c55 -17 108 -65 135 -123 l24 -51 0 -625 0 -624 228 226 c242 241 277 267 362
268 87 0 182 -64 217 -147 19 -47 16 -131 -8 -183 -15 -33 -126 -151 -432
-458 -227 -227 -433 -429 -458 -448 -67 -49 -129 -61 -205 -39 -58 16 -63 21
-497 453 -241 240 -449 455 -462 477 -55 94 -41 190 40 271 73 73 143 90 236
59 37 -13 86 -57 274 -245 126 -127 233 -230 237 -230 5 0 8 281 8 625 0 690
-2 665 63 734 61 64 149 86 238 60z m-1208 -2083 c68 -28 72 -41 73 -215 0
-187 14 -231 85 -278 l43 -28 940 0 941 0 33 23 c63 46 76 87 82 273 4 148 7
169 25 189 44 50 116 59 171 23 40 -26 46 -61 42 -245 -4 -151 -7 -181 -27
-231 -34 -86 -132 -186 -229 -235 l-76 -37 -935 -3 c-629 -2 -952 1 -986 8
-73 15 -167 62 -218 109 -89 82 -127 213 -127 436 0 147 9 181 52 202 53 26
68 27 111 9z"/>
</g>
</svg>
