<?xml version="1.0" encoding="UTF-8" standalone="no"?>
<svg id="svg2" xmlns:rdf="http://www.w3.org/1999/02/22-rdf-syntax-ns#" xmlns="http://www.w3.org/2000/svg" xml:space="preserve" height="24" viewBox="0 0 24.00 24.00" width="24" version="1.1" enable-background="new 0 0 24.00 24.00" xmlns:cc="http://creativecommons.org/ns#" xmlns:dc="http://purl.org/dc/elements/1.1/"><metadata id="metadata10"><rdf:RDF><cc:Work rdf:about=""><dc:format>image/svg+xml</dc:format><dc:type rdf:resource="http://purl.org/dc/dcmitype/StillImage"/><dc:title/></cc:Work></rdf:RDF></metadata><path id="path4" d="m18.999 3h-14.008c-1.105 0-1.991 0.8955-1.991 2v14c0 1.104 0.886 2 1.9911 2h14.008c1.105 0 2.001-0.896 2.001-2v-14c0-1.1045-0.896-2-2.001-2zm0 12.5c0 0.276-0.224 0.5-0.5 0.5h-13.008c-0.2759 0-0.4999-0.224-0.4999-0.5v-7c0-0.2761 0.224-0.5 0.5003-0.5h13.008c0.276 0 0.5 0.2239 0.5 0.5v7z" stroke-width="1.3333"/></svg>
