<?xml version="1.0" encoding="UTF-8" standalone="no"?>
<svg id="svg2" xmlns:rdf="http://www.w3.org/1999/02/22-rdf-syntax-ns#" xmlns="http://www.w3.org/2000/svg" xml:space="preserve" height="24" width="24" version="1.1" enable-background="new 0 0 24.00 24.00" xmlns:cc="http://creativecommons.org/ns#" xmlns:dc="http://purl.org/dc/elements/1.1/" viewBox="0 0 24.00 24.00"><metadata id="metadata10"><rdf:RDF><cc:Work rdf:about=""><dc:format>image/svg+xml</dc:format><dc:type rdf:resource="http://purl.org/dc/dcmitype/StillImage"/><dc:title/></cc:Work></rdf:RDF></metadata><path id="path4" stroke-linejoin="round" d="m21.112 18.482c-0.14 0-0.281-0.04-0.406-0.124-0.336-0.225-0.425-0.679-0.201-1.015 0.675-1.007 1.033-2.187 1.033-3.412s-0.358-2.405-1.032-3.413c-0.225-0.335-0.136-0.7894 0.2-1.0144 0.335-0.225 0.789-0.1352 1.014 0.2001 0.838 1.2493 1.28 2.7113 1.28 4.2273s-0.442 2.977-1.279 4.227c-0.142 0.21-0.373 0.324-0.609 0.324zm-2.092-1.188c-0.141 0-0.284-0.04-0.409-0.126-0.335-0.226-0.422-0.681-0.195-1.016 0.445-0.657 0.68-1.425 0.68-2.221 0-0.795-0.235-1.564-0.68-2.223-0.227-0.334-0.139-0.789 0.195-1.015 0.335-0.227 0.789-0.139 1.016 0.195 0.61 0.902 0.932 1.954 0.932 3.043s-0.322 2.141-0.933 3.042c-0.141 0.209-0.371 0.321-0.606 0.321zm-4.123-1.562c0.996 0 1.806-0.808 1.806-1.801 0-0.763-0.479-1.414-1.151-1.676-0.049 0.299-0.121 0.593-0.216 0.88-0.102 0.307-0.388 0.502-0.694 0.502-0.076 0-0.154-0.012-0.23-0.038-0.384-0.127-0.591-0.541-0.464-0.924 0.144-0.436 0.217-0.892 0.217-1.358 0-2.3907-1.948-4.3358-4.3427-4.3358-1.7206 0-3.2606 1.0176-3.9549 2.5436 0.6736 0.1703 1.2924 0.5152 1.7954 1.0182 0.2856 0.286 0.2856 0.749 0 1.034-0.2859 0.286-0.7487 0.286-1.0344 0-0.4596-0.46-1.0725-0.713-1.7254-0.713-1.3457 0-2.4404 1.092-2.4404 2.434s1.0947 2.434 2.4404 2.434h9.994zm0.703-4.987c1.465 0.322 2.565 1.627 2.565 3.186 0 1.799-1.466 3.264-3.268 3.264h-9.994c-2.1521 0-3.903-1.748-3.903-3.897 0-1.954 1.449-3.5719 3.3295-3.8503 0.7939-2.3299 3.0007-3.9298 5.4928-3.9298 3.0077 0 5.4887 2.2971 5.7777 5.2271z"/></svg>
