<svg width="24" height="24" data-name="Layer 1" version="1.1" viewBox="0 0 24 24" xmlns="http://www.w3.org/2000/svg">
 <title>icon_PyCharm</title>
 <path d="m2 2v20h20v-20zm13.336 2.499a4.2075 4.2075 0 0 1 0.06396 9.76e-4c1.55 0 2.5 0.4998 3.25 1.2998l-1.1499 1.3501c-0.65-0.6-1.3001-0.94971-2.1001-0.94971-1.4 0-2.3999 1.1496-2.3999 2.5996 0 1.4 0.9999 2.6001 2.3999 2.6001 0.95 0 1.5502-0.39971 2.2002-0.94971l1.1499 1.1499c-0.85 0.9-1.7999 1.5-3.3999 1.5a4.25 4.25 0 0 1-4.25-4.3003 4.2075 4.2075 0 0 1 4.2358-4.3008zm-11.486 0.10107h3.3999c2 0 3.1499 1.1501 3.1499 2.8501 0 1.9-1.5001 2.8999-3.3501 2.8999h-1.3999v2.5h-1.7998zm1.7998 1.6997v2.5503h1.4502c0.9825 0 1.4497-0.60029 1.4497-1.3003 0-0.8-0.55-1.25-1.5-1.25zm-1.75 11.95h7.5v1.25h-7.5z" fill="#000000" stroke-width=".25"/>
</svg>
