<?xml version="1.0" encoding="UTF-8" standalone="no"?>
<!-- Created with Inkscape (http://www.inkscape.org/) -->
<svg id="svg3360" xmlns:rdf="http://www.w3.org/1999/02/22-rdf-syntax-ns#" xmlns="http://www.w3.org/2000/svg" height="24" viewBox="0 0 24.000001 24.000001" width="24" version="1.1" xmlns:cc="http://creativecommons.org/ns#" xmlns:dc="http://purl.org/dc/elements/1.1/">
 <metadata id="metadata3365">
  <rdf:RDF>
   <cc:Work rdf:about="">
    <dc:format>image/svg+xml</dc:format>
    <dc:type rdf:resource="http://purl.org/dc/dcmitype/StillImage"/>
    <dc:title/>
   </cc:Work>
  </rdf:RDF>
 </metadata>
 <g id="layer1" fill="#000000" transform="translate(-0.479 -1028.1)">
  <path id="path3370" d="m12.479 1.7461a10 10 0 0 0 -10 9.9999 10 10 0 0 0 10 10 10 10 0 0 0 10 -10 10 10 0 0 0 -10 -9.9999zm0.984 3h1.926v3.0351l-0.028 1.2911h0.028c0.434-1.017 1.224-1.5254 2.371-1.5254 0.877 0 1.547 0.3565 2.013 1.0703 0.471 0.7089 0.706 1.7128 0.706 3.0138 0 1.31-0.247 2.33-0.741 3.058-0.489 0.724-1.19 1.086-2.103 1.086-0.526 0-0.98-0.122-1.364-0.367-0.383-0.244-0.677-0.597-0.882-1.056h-0.014c0 0.171-0.012 0.406-0.035 0.705-0.018 0.298-0.04 0.489-0.063 0.572h-1.869c0.037-0.455 0.055-1.06 0.055-1.813v-9.0699zm-6.1192 2.793c1.078 0 1.8245 0.4763 2.2402 1.4297 0-0.2249 0.0123-0.4743 0.0351-0.7481 0.0274-0.2787 0.0501-0.454 0.0684-0.5273h1.8495c-0.027 0.528-0.041 1.1368-0.041 1.8261v9.2265h-1.912v-3.301l0.0351-1.136h-0.0136c-0.4249 0.977-1.2322 1.466-2.42 1.466-0.8633 0-1.5294-0.359-2-1.078-0.4705-0.723-0.707-1.733-0.707-3.029 0-1.31 0.2501-2.3243 0.7481-3.043 0.5025-0.7236 1.2081-1.0859 2.1172-1.0859zm0.6855 1.416c-1.0278 0-1.543 0.9039-1.543 2.7129 0 1.799 0.5106 2.699 1.5293 2.699 0.5025 0 0.89-0.237 1.1641-0.711 0.2786-0.479 0.418-1.156 0.418-2.031 0-0.846-0.1316-1.502-0.3965-1.9668-0.265-0.4694-0.6557-0.7031-1.1719-0.7031zm8.9277 0.0215c-0.521 0-0.917 0.2357-1.191 0.705-0.27 0.4644-0.405 1.1354-0.405 2.0154 0 0.841 0.132 1.496 0.397 1.965 0.269 0.469 0.665 0.705 1.185 0.705 1.019 0 1.528-0.912 1.528-2.736 0-0.9-0.123-1.567-0.369-2.0021-0.247-0.4351-0.629-0.6523-1.145-0.6523z" fill-rule="evenodd" transform="translate(0,1028.4)" fill="#000000"/>
 </g>
</svg>
