<?xml version="1.0" encoding="UTF-8" standalone="no"?>
<svg id="svg2" xmlns:rdf="http://www.w3.org/1999/02/22-rdf-syntax-ns#" xmlns="http://www.w3.org/2000/svg" xml:space="preserve" height="24" viewBox="0 0 24.00 24.00" width="24" version="1.1" enable-background="new 0 0 24.00 24.00" xmlns:cc="http://creativecommons.org/ns#" xmlns:dc="http://purl.org/dc/elements/1.1/"><metadata id="metadata10"><rdf:RDF><cc:Work rdf:about=""><dc:format>image/svg+xml</dc:format><dc:type rdf:resource="http://purl.org/dc/dcmitype/StillImage"/><dc:title/></cc:Work></rdf:RDF></metadata><path id="path4" stroke-linejoin="round" d="m9.0001 4c0-1.6569 1.3429-3 2.9999-3 1.657-0.00005 3 1.3431 3 3l4 0.0001c1.104 0 2 0.8954 2 2v13c0 1.105-0.896 2-2 2h-14c-1.1046 0-2-0.895-2-2v-13c0-1.1045 0.8954-1.9999 2-1.9999l4.0001-0.0001zm2.9999-1.0001c-0.552 0-1 0.4477-1 1.0001 0 0.5522 0.448 0.9999 1 0.9999s1-0.4477 1-0.9999c0-0.5524-0.448-1.0001-1-1.0001z" stroke-width=".2"/></svg>
