<?xml version="1.0" encoding="UTF-8" standalone="no"?>
<svg xmlns:rdf="http://www.w3.org/1999/02/22-rdf-syntax-ns#" xmlns="http://www.w3.org/2000/svg" xml:space="preserve" height="24" width="24" version="1.1" enable-background="new 0 0 24.00 24.00" xmlns:cc="http://creativecommons.org/ns#" xmlns:dc="http://purl.org/dc/elements/1.1/" viewBox="0 0 24.00 24.00"><path stroke-linejoin="round" d="m16.999 16.998h-9.9996v-9.9999h9.9996m4 3.9999v-1.9999h-2v-2c0-1.104-0.896-2-2-2h-2v-2h-2v2h-2v-2h-1.9996v2h-2c-1.105 0-2 0.896-2 2v2h-2v1.9999h2v2h-2v2h2v2c0 1.105 0.895 2 2 2h2v2h1.9996v-2h2v2h2v-2h2c1.104 0 2-0.895 2-2v-2h2v-2h-2v-2m-6 2h-2v-2h2m2-1.9999h-5.9996v5.9999h5.9996v-5.9999z" stroke-width=".2"/></svg>
