<?xml version="1.0" encoding="UTF-8" standalone="no"?>
<!-- Created with Inkscape (http://www.inkscape.org/) -->
<svg id="svg2" xmlns:rdf="http://www.w3.org/1999/02/22-rdf-syntax-ns#" xmlns="http://www.w3.org/2000/svg" height="24" viewBox="0 0 24 24" width="24" version="1.1" xmlns:cc="http://creativecommons.org/ns#" xmlns:dc="http://purl.org/dc/elements/1.1/">
 <metadata id="metadata8">
  <rdf:RDF>
   <cc:Work rdf:about="">
    <dc:format>image/svg+xml</dc:format>
    <dc:type rdf:resource="http://purl.org/dc/dcmitype/StillImage"/>
    <dc:title/>
   </cc:Work>
  </rdf:RDF>
 </metadata>
 <path id="path3338" fill="#000000" d="m11.37 21.991c-0.05766-0.007-0.25152-0.0262-0.4308-0.0436-2.782-0.26848-5.4234-1.8136-7.082-4.1427-1.3294-1.8668-1.9906-4.1799-1.8346-6.4179 0.14721-2.1115 0.83646-3.9137 2.1398-5.5951 0.32352-0.41734 1.237-1.3265 1.6666-1.6587 1.0495-0.8116 2.2842-1.4366 3.4906-1.7669 2.1318-0.58367 4.3453-0.46736 6.3784 0.33512 1.2894 0.50894 2.3855 1.2344 3.4006 2.2506 1.6619 1.6638 2.6558 3.7867 2.8761 6.1433 0.05174 0.5534 0.02067 1.8058-0.0577 2.3261-0.10396 0.69031-0.23806 1.2433-0.45097 1.8597-0.125 0.36189-0.40628 1.039-0.44968 1.0824-0.01366 0.0137-0.20502-0.0582-0.42524-0.15987-0.65627-0.3028-1.3696-0.68982-3.1709-1.7202-0.66717-0.38167-1.4287-0.80776-1.6922-0.94688-1.0846-0.57245-2.0231-0.95631-2.8429-1.1628l-0.32694-0.0823-0.21218 0.0891c-1.3726 0.57671-2.9678 1.5922-4.3155 2.7473-0.36309 0.31121-0.76376 0.67952-0.76376 0.70207 0 0.005 0.097716-0.0277 0.21715-0.0735 1.1808-0.45339 2.3993-0.66869 3.3881-0.59869 1.0682 0.0756 1.5973 0.25095 3.3884 1.1229 1.6752 0.8155 2.4554 1.1041 3.5193 1.3018 0.43784 0.0814 1.1403 0.10422 1.9158 0.0622 0.32065-0.0174 0.58691-0.0276 0.59168-0.0229 0.01719 0.0172-0.43443 0.60824-0.69986 0.91597-1.6255 1.8845-3.8495 3.072-6.3629 3.3972-0.3494 0.0452-1.6155 0.0835-1.8544 0.056zm-6.0643-5.5027c3.9528-4.3323 8.4149-6.3814 13.627-6.2577 0.4283 0.0102 0.93931 0.0322 1.1356 0.049 0.19626 0.0168 0.36169 0.0256 0.36762 0.0197 0.0059-0.006-0.09399-0.0484-0.22206-0.0943-0.61-0.2184-1.254-0.5127-3.604-1.6448-3.321-1.6006-5.354-2.2501-7.4526-2.3808-1.3883-0.0865-2.8228 0.18787-3.9575 0.75694l-0.25359 0.12718-0.20233 0.38895c-0.50238 0.96581-0.83899 2.0654-1.0029 3.2763-0.0774 0.57167-0.077417 2.1837-0.0000271 2.7078 0.15901 1.0769 0.39294 1.9024 0.75882 2.6778 0.18858 0.39968 0.40236 0.78268 0.43037 0.77104 0.0107-0.004 0.17916-0.18312 0.37435-0.39704z"/>
</svg>
