<?xml version="1.0" encoding="UTF-8" standalone="no"?>
<svg id="svg2" xmlns:rdf="http://www.w3.org/1999/02/22-rdf-syntax-ns#" xmlns="http://www.w3.org/2000/svg" xml:space="preserve" height="24" width="24" version="1.1" enable-background="new 0 0 24.00 24.00" xmlns:cc="http://creativecommons.org/ns#" xmlns:dc="http://purl.org/dc/elements/1.1/" viewBox="0 0 24.00 24.00"><metadata id="metadata10"><rdf:RDF><cc:Work rdf:about=""><dc:format>image/svg+xml</dc:format><dc:type rdf:resource="http://purl.org/dc/dcmitype/StillImage"/><dc:title/></cc:Work></rdf:RDF></metadata><path id="path4" d="m2.4975 4.4894h19.004c0.841 0 1.498 0.6568 1.498 1.4993v11.513c0 0.843-0.657 1.498-1.499 1.498h-19.004c-0.842 0-1.497-0.655-1.497-1.498v-11.513c0-0.8428 0.655-1.4996 1.4975-1.4996zm7.2078 4.0262v6.4604l5.7107-3.277-5.7107-3.1834zm7.5447 12.484h-10.6c-0.3 0-0.5-0.2-0.5-0.5s0.2-0.5 0.5-0.5h10.7c0.3 0 0.5 0.2 0.5 0.5s-0.3 0.5-0.6 0.5z" stroke-width="1.3333" fill="#0d0e0e"/></svg>
