<?xml version="1.0" encoding="UTF-8" standalone="no"?>
<svg xmlns:rdf="http://www.w3.org/1999/02/22-rdf-syntax-ns#" xmlns="http://www.w3.org/2000/svg" enable-background="new 0 0 48 48" xml:space="preserve" viewBox="0 0 24 24" height="24" width="24" version="1.1" y="0px" x="0px" xmlns:cc="http://creativecommons.org/ns#" xmlns:dc="http://purl.org/dc/elements/1.1/"><path fill="#000000" d="m17.585 2c-1.1297 0-2.2596 0.42609-3.1217 1.2789l-2.6756 2.6469-9.4813 2.4168c-0.21753 0.05944-0.289 0.32854-0.12948 0.48635l3.3381 3.3024-1.664 1.6472c-0.22996 0.22749-0.22996 0.5961 0 0.8236l0.8315 0.8236-2.5552 2.5288c-0.22996 0.22749-0.12172 0.5871 0.10824 0.81459l2.9133 2.8821c0.22996 0.22749 0.49331 0.23601 0.72327 0.008l2.5562-2.5278 0.83251 0.8236c0.22996 0.22749 0.60256 0.22749 0.83251 0l1.665-1.6472 3.6457 3.6066c0.15952 0.15781 0.43206 0.08713 0.49162-0.12909l2.8627-10.403 1.9483-1.9274c1.7242-1.7057 1.7242-4.4708 0-6.1765-0.86208-0.85284-1.992-1.2789-3.1217-1.2789zm0 2.2536c0.58408 0 1.0992 0.20982 1.5123 0.61845 0.8441 0.83506 0.8441 2.1551 0 2.9902l-9.4202 9.3188-3.0083-2.978 9.4075-9.3319c0.41259-0.40737 0.92653-0.61745 1.5092-0.61745zm-13.318 12.407 0.8325 0.823-1.0955 1.084-0.8325-0.824 1.0955-1.083zm2.0808 2.0585 0.83251 0.8236-1.0945 1.0838-0.83251-0.8236 1.0945-1.0838z"/></svg>
