<?xml version="1.0" standalone="no"?>
<!DOCTYPE svg PUBLIC "-//W3C//DTD SVG 20010904//EN"
 "http://www.w3.org/TR/2001/REC-SVG-20010904/DTD/svg10.dtd">
<svg version="1.0" xmlns="http://www.w3.org/2000/svg"
 width="256.000000pt" height="256.000000pt" viewBox="0 0 256.000000 256.000000"
 preserveAspectRatio="xMidYMid meet">
<metadata>
Created by potrace 1.15, written by Peter Selinger 2001-2017
</metadata>
<g transform="translate(0.000000,256.000000) scale(0.100000,-0.100000)"
fill="#000000" stroke="none">
<path d="M1736 2322 l-201 -198 -670 -213 c-382 -121 -678 -221 -689 -231 -43
-42 -32 -59 197 -289 l216 -216 -86 -89 -86 -88 7 -94 c3 -51 10 -104 15 -117
8 -22 -3 -36 -110 -143 -167 -166 -169 -150 42 -359 l161 -160 133 139 133
139 29 -21 c37 -26 76 -36 110 -27 16 4 74 53 135 113 l108 106 208 -207 c179
-178 212 -207 238 -207 17 0 38 8 46 18 8 9 32 71 53 137 20 66 113 359 207
650 l169 530 179 180 c114 115 181 190 185 208 10 39 -4 186 -20 217 -7 14
-103 114 -213 223 l-199 197 -48 0 -48 0 -201 -198z m368 78 c84 -82 90 -91
75 -105 -15 -15 -21 -12 -78 39 -66 58 -88 67 -136 54 -21 -6 -242 -220 -772
-750 l-743 -743 0 49 c0 47 2 51 78 129 73 74 80 78 100 66 12 -7 24 -10 29
-6 4 4 -103 118 -237 252 -209 209 -243 248 -234 263 12 20 54 34 522 181 193
61 358 108 366 105 12 -5 134 24 183 43 23 9 15 -65 -13 -115 -47 -85 -111
-159 -421 -489 -167 -177 -209 -230 -104 -130 59 57 95 79 51 32 -13 -14 -22
-27 -19 -29 2 -2 173 161 380 363 206 201 396 385 421 408 25 23 54 55 64 72
17 29 17 31 1 43 -16 12 0 31 156 186 216 214 201 211 331 82z m-76 -54 c45
-24 400 -388 407 -418 4 -15 3 -33 -2 -42 -21 -37 -1477 -1497 -1499 -1502
-49 -13 -78 8 -247 174 -230 226 -250 257 -212 315 29 44 1494 1487 1510 1487
9 0 28 -6 43 -14z m-213 -1647 c-86 -271 -159 -497 -161 -501 -15 -23 -54 7
-204 157 -91 91 -161 165 -156 165 4 0 1 11 -8 25 -9 13 -16 28 -16 33 0 9
236 209 340 288 36 27 67 51 70 54 16 17 107 57 120 53 8 -3 24 -16 35 -29
l21 -24 34 98 c43 125 69 186 76 180 3 -3 -65 -228 -151 -499z m-1455 -84
c-63 -63 -116 -112 -119 -109 -3 2 46 56 109 119 63 63 116 112 119 109 3 -2
-46 -56 -109 -119z m298 -312 c-68 -68 -125 -123 -129 -123 -3 0 -70 61 -148
137 l-142 136 128 129 128 128 142 -142 143 -143 -122 -122z"/>
<path d="M391 574 c-12 -15 -21 -30 -21 -35 0 -14 51 -68 70 -74 24 -7 56 9
70 35 9 16 4 26 -26 60 -42 47 -65 50 -93 14z m78 -30 c16 -21 18 -30 10 -40
-17 -20 -33 -17 -59 11 -19 20 -21 27 -10 40 18 22 36 19 59 -11z"/>
<path d="M556 429 c-36 -29 -33 -60 9 -98 43 -37 55 -38 83 -8 30 32 28 53
-12 93 -40 40 -45 41 -80 13z m78 -52 c8 -12 6 -21 -6 -34 -17 -16 -19 -16
-43 7 -28 26 -31 40 -13 58 13 13 44 -2 62 -31z"/>
</g>
</svg>
