<?xml version="1.0" encoding="UTF-8" standalone="no"?>
<svg id="svg2" xmlns:rdf="http://www.w3.org/1999/02/22-rdf-syntax-ns#" xmlns="http://www.w3.org/2000/svg" xml:space="preserve" height="24" width="24" version="1.1" enable-background="new 0 0 24.00 24.00" xmlns:cc="http://creativecommons.org/ns#" xmlns:dc="http://purl.org/dc/elements/1.1/" viewBox="0 0 24.00 24.00"><metadata id="metadata10"><rdf:RDF><cc:Work rdf:about=""><dc:format>image/svg+xml</dc:format><dc:type rdf:resource="http://purl.org/dc/dcmitype/StillImage"/><dc:title/></cc:Work></rdf:RDF></metadata><path id="path4" stroke-linejoin="round" d="m19.544 14.6c1.547 1.435 1.87 2.128 1.917 2.219 0.641 1.059-0.704 1.144-0.704 1.144l-2.58 0.037s-0.556 0.106-1.281-0.392c-0.964-0.662-1.875-2.383-2.584-2.156-0.716 0.228-0.694 1.775-0.694 1.775s0.005 0.223-0.159 0.397c-0.18 0.19-0.525 0.116-0.525 0.116h-1.154s-2.5473 0.265-4.7885-2.071c-2.4405-2.542-4.6018-7.5409-4.6018-7.5409s-0.122-0.3024 0.0109-0.4664c0.1532-0.1804 0.5667-0.1749 0.5667-0.1749l2.7592-0.0109s0.259 0.0475 0.4447 0.1803c0.1532 0.1166 0.2386 0.3282 0.2386 0.3282s0.4448 1.128 1.0373 2.1446c1.1497 1.992 1.6839 2.426 2.0758 2.214 0.5721-0.311 0.4027-2.8116 0.4027-2.8116s0.0108-0.9112-0.2902-1.3138c-0.2278-0.3119-0.663-0.4082-0.8528-0.4285-0.16-0.0217 0.0949-0.3823 0.4284-0.5464 0.4976-0.2427 1.372-0.2535 2.409-0.2427 0.806 0.0041 1.039 0.0583 1.351 0.1315 0.954 0.2278 0.63 1.1172 0.63 3.2415 0 0.684-0.122 1.642 0.366 1.96 0.212 0.132 0.731 0.021 2.023-2.177 0.609-1.0382 1.07-2.2611 1.07-2.2611s0.1-0.217 0.255-0.3132c0.159-0.0949 0.375-0.0638 0.375-0.0638l2.903-0.0203s0.873-0.1003 1.017 0.2915c0.148 0.4122-0.329 1.3762-1.516 2.9549-1.948 2.6-2.165 2.357-0.55 3.856z"/></svg>
