<?xml version="1.0" encoding="UTF-8" standalone="no"?>
<svg id="svg2" xmlns:rdf="http://www.w3.org/1999/02/22-rdf-syntax-ns#" xmlns="http://www.w3.org/2000/svg" xml:space="preserve" height="24" width="24" version="1.1" enable-background="new 0 0 24.00 24.00" xmlns:cc="http://creativecommons.org/ns#" xmlns:dc="http://purl.org/dc/elements/1.1/" viewBox="0 0 24.00 24.00"><metadata id="metadata10"><rdf:RDF><cc:Work rdf:about=""><dc:format>image/svg+xml</dc:format><dc:type rdf:resource="http://purl.org/dc/dcmitype/StillImage"/><dc:title/></cc:Work></rdf:RDF></metadata><path id="path4" stroke-linejoin="round" d="m16.748 13.956c0.244 0.134 0.407 0.202 0.466 0.308 0.058 0.106 0.04 0.604-0.19 1.177-0.229 0.573-1.265 1.095-1.723 1.119-0.457 0.025-0.47 0.357-2.961-0.733-2.4902-1.091-3.9889-3.744-4.107-3.914s-0.9645-1.386-0.9187-2.6097c0.0457-1.2238 0.7107-1.8014 0.9479-2.0412 0.2372-0.2408 0.5088-0.2928 0.6747-0.2866l0.4761 0.0386c0.145 0.0055 0.3553-0.0694 0.5438 0.4359l0.6982 1.8747c0.057 0.1265 0.093 0.2732 0.004 0.4361l-0.264 0.4052-0.39 0.422c-0.129 0.119-0.264 0.249-0.128 0.503 0.136 0.255 0.605 1.087 1.319 1.774 0.918 0.883 1.71 1.176 1.954 1.309 0.244 0.134 0.39 0.119 0.541-0.042l0.824-0.945c0.175-0.243 0.339-0.195 0.564-0.103l1.669 0.872zm-4.748-11.956c5.523 0 10 4.4772 10 10 0 5.523-4.477 10-10 10-1.968 0-3.8029-0.568-5.35-1.55l-4.65 1.55 1.55-4.65c-0.9816-1.547-1.55-3.382-1.55-5.35 0-5.5228 4.4772-10 10-10zm0 2c-4.4183 0-8 3.5817-8 8 0 1.718 0.5413 3.309 1.4626 4.612l-0.9626 2.888 2.8878-0.963c1.3034 0.922 2.8942 1.463 4.6122 1.463 4.418 0 8-3.582 8-8 0-4.4183-3.582-8-8-8z" fill-rule="evenodd" stroke-width=".2"/></svg>
