<?xml version="1.0" encoding="UTF-8" standalone="no"?>
<svg xmlns:rdf="http://www.w3.org/1999/02/22-rdf-syntax-ns#" xmlns="http://www.w3.org/2000/svg" xml:space="preserve" height="24" viewBox="0 0 24.00 24.00" width="24" version="1.1" enable-background="new 0 0 24.00 24.00" xmlns:cc="http://creativecommons.org/ns#" xmlns:dc="http://purl.org/dc/elements/1.1/"><path stroke-linejoin="round" d="m8.9577 15.105h-0.9101v-0.527c-0.3451 0.395-0.6376 0.595-0.9564 0.595-0.2798 0-0.474-0.132-0.5713-0.37-0.0591-0.145-0.101-0.372-0.101-0.704v-3.832h0.9101v3.928c0.0212 0.134 0.0783 0.183 0.1941 0.183 0.1742 0 0.3318-0.151 0.5245-0.423v-3.688h0.9101v4.838zm-4.1196-1.437l0.0005-1.916c0.0479-0.479-0.1011-0.704-0.3837-0.704s-0.4311 0.225-0.3832 0.704v1.916c-0.0479 0.479 0.1005 0.716 0.3831 0.716s0.4312-0.237 0.3833-0.716zm0.9102-1.82v1.724c0 0.514-0.0847 0.869-0.2683 1.111-0.2424 0.33-0.6419 0.505-1.0251 0.505s-0.7758-0.175-1.0179-0.505c-0.1865-0.242-0.2754-0.597-0.2754-1.111l0.0008-1.72c0-0.517 0.1001-0.91 0.2866-1.154 0.2421-0.331 0.5721-0.466 1.0059-0.466 0.3832 0 0.7635 0.135 1.0059 0.466 0.1836 0.244 0.2875 0.632 0.2875 1.15zm-3.5927 0.622v2.635h-0.958v-2.635s-0.99278-3.2299-1.1976-3.8319h1.006l0.6722 2.5229 0.669-2.5229h1.006l-1.1976 3.8319zm21.701-3.3094s0.143 1.1524 0.143 2.3044v1.081c0 1.152-0.143 2.304-0.143 2.304s-0.14 0.981-0.569 1.414c-0.543 0.567-1.153 0.57-1.433 0.603-2.001 0.144-5.007 0.148-5.007 0.148s-3.719-0.034-4.863-0.143c-0.319-0.059-1.033-0.041-1.577-0.608-0.4293-0.433-0.5689-1.414-0.5689-1.414s-0.1431-1.152-0.1431-2.304v-1.081c0-1.152 0.1431-2.3044 0.1431-2.3044s0.1396-0.9813 0.5689-1.4134c0.544-0.5672 1.153-0.57 1.433-0.6032 2.001-0.144 5.004-0.144 5.004-0.144h0.006s3.003 0 5.004 0.144c0.28 0.0332 0.89 0.036 1.433 0.6032 0.429 0.4321 0.569 1.4134 0.569 1.4134zm-2.78 2.4454c0-0.448 0.123-0.57 0.412-0.57 0.288 0 0.402 0.133 0.402 0.576v0.523l-0.814 0.001v-0.53zm1.726 1.247v-0.979c0-0.511-0.101-0.886-0.282-1.128-0.243-0.327-0.589-0.501-1.024-0.501-0.442 0-0.788 0.174-1.039 0.501-0.184 0.242-0.291 0.638-0.291 1.149v1.677c0 0.509 0.118 0.865 0.302 1.104 0.251 0.327 0.596 0.491 1.05 0.491 0.453 0 0.809-0.172 1.049-0.519 0.105-0.154 0.173-0.328 0.203-0.52 0.007-0.087 0.03-0.284 0.03-0.564v-0.136h-0.91c0 0.348 0.002 0.555-0.006 0.602-0.05 0.232-0.174 0.348-0.388 0.348-0.297 0-0.423-0.222-0.42-0.664v-0.861h1.726zm-4.121 0.863c0 0.479-0.113 0.662-0.363 0.662-0.143 0-0.307-0.073-0.453-0.218l0.002-2.905c0.144-0.143 0.308-0.219 0.451-0.219 0.25 0 0.363 0.141 0.363 0.62v2.06zm0.101-3.478c-0.319 0-0.636 0.196-0.917 0.541l0.002-2.093h-0.863v6.419h0.863l0.001-0.483c0.289 0.359 0.605 0.545 0.914 0.545 0.345 0 0.597-0.185 0.713-0.541 0.058-0.203 0.096-0.516 0.096-0.958v-1.916c0-0.454-0.058-0.764-0.116-0.956-0.116-0.359-0.348-0.558-0.693-0.558zm-2.496 4.867v-4.79h-0.91v3.64c-0.193 0.272-0.351 0.423-0.525 0.423-0.116 0-0.173-0.049-0.194-0.183v-3.88h-0.91v3.784c0 0.332 0.042 0.559 0.101 0.704 0.097 0.238 0.291 0.37 0.571 0.37 0.319 0 0.612-0.2 0.957-0.595v0.527h0.91zm-3.449 0v-5.5089h1.054v-0.9101l-3.018 0.001v0.9091h1.006v5.5089h0.958z"/></svg>
