<?xml version="1.0" standalone="no"?>
<!DOCTYPE svg PUBLIC "-//W3C//DTD SVG 20010904//EN"
 "http://www.w3.org/TR/2001/REC-SVG-20010904/DTD/svg10.dtd">
<svg version="1.0" xmlns="http://www.w3.org/2000/svg"
 width="256.000000pt" height="256.000000pt" viewBox="0 0 256.000000 256.000000"
 preserveAspectRatio="xMidYMid meet">
<metadata>
Created by potrace 1.15, written by Peter Selinger 2001-2017
</metadata>
<g transform="translate(0.000000,256.000000) scale(0.100000,-0.100000)"
fill="#000000" stroke="none">
<path d="M1100 2073 c-102 -17 -210 -79 -270 -154 -45 -57 -87 -158 -91 -219
l-4 -45 40 -3 c202 -13 363 -159 396 -360 l11 -69 52 9 c225 40 385 262 348
483 -38 230 -260 395 -482 358z"/>
<path d="M1915 1635 c-5 -2 -33 -10 -62 -19 -97 -30 -198 -118 -242 -209 -21
-45 -52 -176 -42 -181 3 -2 36 -7 72 -10 99 -11 191 -61 258 -141 57 -69 82
-126 88 -202 l6 -63 39 0 c86 0 215 71 281 155 105 133 116 335 25 477 -60 94
-143 155 -253 184 -45 12 -144 18 -170 9z"/>
<path d="M504 1350 c-231 -32 -366 -135 -339 -258 7 -36 66 -97 117 -123 209
-107 566 -87 711 41 39 34 67 86 67 124 0 12 -13 43 -29 68 -25 39 -43 53
-113 87 -120 57 -277 80 -414 61z"/>
<path d="M1297 934 c-261 -47 -385 -203 -264 -332 117 -124 457 -170 685 -91
133 46 202 114 202 200 0 166 -315 279 -623 223z"/>
</g>
</svg>
