<?xml version="1.0" encoding="UTF-8" standalone="no"?>
<svg xmlns:rdf="http://www.w3.org/1999/02/22-rdf-syntax-ns#" xmlns="http://www.w3.org/2000/svg" height="24pt" width="24pt" version="1.0" preserveAspectRatio="xMidYMid meet" xmlns:cc="http://creativecommons.org/ns#" xmlns:dc="http://purl.org/dc/elements/1.1/" viewBox="0 0 24 24">
 <g fill="#A87F19" transform="matrix(.0090090 0 0 -.0090032 .24324 23.523)">
  <path d="m1130 2154c-423-90-713-446-713-874 0-405 260-747 655-861 95-27 271-36 375-19 304 49 571 263 686 551 46 115 60 193 60 329 0 250-81 446-258 626-131 133-285 216-462 250-93 17-257 17-343-2zm100-464v-330h-330-330v23c0 37 39 165 66 220 102 202 271 340 489 397 117 31 105 67 105-310zm310 294c109-34 194-88 291-184 72-71 93-101 132-180 45-92 77-190 77-237v-23h-330-330v331 331l43-7c23-4 76-18 117-31zm-310-1115v-331l-42 7c-281 45-522 261-598 536-11 41-20 84-20 96v23h330 330v-331zm810 308c0-47-32-145-77-237-81-166-247-309-423-364-41-13-94-27-117-31l-43-7v331 331h330 330v-23z"/>
 </g>
</svg>
