<?xml version="1.0" standalone="no"?>
<!DOCTYPE svg PUBLIC "-//W3C//DTD SVG 20010904//EN"
 "http://www.w3.org/TR/2001/REC-SVG-20010904/DTD/svg10.dtd">
<svg version="1.0" xmlns="http://www.w3.org/2000/svg"
 width="512.000000pt" height="512.000000pt" viewBox="0 0 512.000000 512.000000"
 preserveAspectRatio="xMidYMid meet">
<metadata>
Created by potrace 1.15, written by Peter Selinger 2001-2017
</metadata>
<g transform="translate(0.000000,512.000000) scale(0.100000,-0.100000)"
fill="#A87F19" stroke="none">
<path d="M1440 4195 c-175 -43 -326 -162 -404 -319 -48 -96 -66 -172 -66 -282
0 -285 186 -523 466 -594 428 -110 833 272 751 708 -45 237 -219 422 -453 482
-89 23 -211 25 -294 5z"/>
<path d="M3490 3435 c-157 -43 -308 -159 -383 -296 -68 -122 -94 -294 -66
-431 14 -70 78 -201 125 -258 159 -191 416 -272 646 -204 108 33 180 76 263
159 92 91 146 187 170 301 52 247 -51 503 -258 642 -110 73 -177 94 -322 98
-86 3 -136 0 -175 -11z"/>
<path d="M1682 2159 c-228 -38 -418 -202 -487 -422 -62 -192 -19 -420 107
-573 121 -148 285 -225 478 -225 199 0 372 83 486 234 88 116 128 235 128 377
0 108 -16 174 -67 280 -114 235 -383 372 -645 329z"/>
</g>
</svg>
