<?xml version="1.0" encoding="UTF-8" standalone="no"?>
<svg xmlns:rdf="http://www.w3.org/1999/02/22-rdf-syntax-ns#" xmlns="http://www.w3.org/2000/svg" xml:space="preserve" height="24" width="24" version="1.1" enable-background="new 0 0 24.00 24.00" xmlns:cc="http://creativecommons.org/ns#" xmlns:dc="http://purl.org/dc/elements/1.1/" viewBox="0 0 24.00 24.00"><path stroke-linejoin="round" d="m3.3878 15.64c0.0169-0.094 0.0367-0.188 0.0585-0.281 0.0413-0.175 0.0916-0.348 0.15-0.518 0.2239-0.655 0.5627-1.263 0.9259-1.85 0.1805-0.291 0.3652-0.579 0.5491-0.868 0.1876-0.295 0.379-0.588 0.5944-0.863 0.3497-0.448 0.7793-0.93 1.3367-1.11 0.7831-0.2525 1.3689 0.563 1.8219 1.066 0.2579 0.286 0.5355 0.586 0.8905 0.749 0.1636 0.075 0.3422 0.114 0.5222 0.103 0.262-0.017 0.495-0.197 0.69-0.359 0.536-0.443 0.972-1.004 1.388-1.557 0.455-0.6043 0.895-1.2216 1.418-1.7726 0.213-0.2256 0.442-0.525 0.749-0.6249 0.138-0.0454 0.291-0.0314 0.424 0.0299 0.074 0.0336 0.141 0.0809 0.198 0.137 0.065 0.0635 0.143 0.1136 0.216 0.1686 0.56 0.4236 1.078 0.9019 1.567 1.4049 0.425 0.4376 0.829 0.8951 1.216 1.3681 0.376 0.461 0.738 0.932 1.052 1.441 0.377 0.621 0.698 1.274 1.051 1.91 0.322 0.58 0.649 1.25 0.327 1.904-0.018 0.034-0.036 0.069-0.056 0.102-0.571 0.966-1.6 1.567-2.618 1.961-1.225 0.474-2.543 0.699-3.848 0.791-1.35 0.094-2.715 0.09-4.0621-0.036-1.2173-0.115-2.443-0.332-3.5883-0.774-0.957-0.369-1.88-0.916-2.5202-1.736-0.1494-0.191-0.2816-0.396-0.3946-0.611-0.0133-0.026-0.0266-0.052-0.04-0.078-0.0184-0.039-0.0256-0.054-0.018-0.097zm-1.3038 0.883c0.1408 0.208 0.2928 0.408 0.4549 0.599 0.3239 0.382 0.6886 0.728 1.0837 1.035 0.8402 0.652 1.8092 1.12 2.8164 1.45 1.1649 0.382 2.3831 0.585 3.602 0.687 1.413 0.117 2.847 0.116 4.257-0.032 1.307-0.138 2.609-0.41 3.832-0.896 1.085-0.431 2.081-1.046 2.952-1.824 0.224-0.202 0.444-0.417 0.622-0.662 0.154-0.207 0.274-0.436 0.296-0.695 0.024-0.305-0.024-0.614-0.084-0.911-0.067-0.33-0.156-0.654-0.238-0.979-0.031-0.118-0.06-0.237-0.087-0.356-0.32-1.409-0.807-2.781-1.472-4.0648-0.56-1.0875-1.253-2.1142-2.058-3.0359-0.751-0.8608-1.627-1.6139-2.63-2.1624-0.533-0.2911-1.098-0.5235-1.678-0.6978-0.314-0.0944-0.634-0.172-0.956-0.2348-0.082-0.0161-0.165-0.037-0.249-0.037h-0.32-0.614c-0.093 0-0.186-0.0043-0.28 0.007-0.084 0.0103-0.171 0.0223-0.255 0.0363-0.165 0.0266-0.326 0.0592-0.487 0.0977-0.319 0.0766-0.6322 0.1768-0.9376 0.2969-0.6107 0.2401-1.1893 0.5594-1.7293 0.9318-1.0548 0.7274-1.9709 1.6531-2.742 2.675-0.8174 1.0836-1.4707 2.288-1.9751 3.548-0.5364 1.339-0.907 2.743-1.136 4.167-0.0295 0.183-0.072 0.373-0.072 0.558v0.298c0 0.048-0.0011 0.074 0.0251 0.113 0.0196 0.03 0.0387 0.059 0.0589 0.088z" stroke-width=".2" fill="#a87f19"/></svg>
