<?xml version="1.0" encoding="UTF-8" standalone="no"?>
<!-- Created with Inkscape (http://www.inkscape.org/) -->
<svg id="svg3344" xmlns:rdf="http://www.w3.org/1999/02/22-rdf-syntax-ns#" xmlns="http://www.w3.org/2000/svg" height="24" viewBox="0 0 24 24" width="24" version="1.1" xmlns:cc="http://creativecommons.org/ns#" xmlns:dc="http://purl.org/dc/elements/1.1/">
 <metadata id="metadata3349">
  <rdf:RDF>
   <cc:Work rdf:about="">
    <dc:format>image/svg+xml</dc:format>
    <dc:type rdf:resource="http://purl.org/dc/dcmitype/StillImage"/>
    <dc:title/>
   </cc:Work>
  </rdf:RDF>
 </metadata>
 <g id="layer1" fill="#A87F19" transform="translate(0 -1028.4)">
  <path id="rect4222" d="m4 2c-1.108 0-2 0.892-2 2v16c0 1.108 0.892 2 2 2h16c1.108 0 2-0.892 2-2v-16c0-1.108-0.892-2-2-2h-16zm3.6934 2.9238h8.5506l-0.547 2.5645h-5.949l-0.5097 2.3828h9.7617l-0.418 1.7109-5.221 5.076c0.473 0.073 0.929 0.182 1.42 0.182 1.194 0 2.566-0.364 3.494-0.746l-0.476 2.238c-1.365 0.656-2.201 0.709-3.018 0.709-0.891 0-1.745-0.291-2.619-0.291-0.491 0-1.202 0.035-1.639 0.326l-0.9449-1.674 5.3849-5.33h-6.1974l-1.1816 5.549h-2.584l2.6934-12.697z" transform="translate(0 1028.4)" fill="#A87F19"/>
 </g>
</svg>
