<?xml version="1.0" encoding="UTF-8" standalone="no"?>
<svg xmlns:rdf="http://www.w3.org/1999/02/22-rdf-syntax-ns#" xmlns="http://www.w3.org/2000/svg" xml:space="preserve" height="24" width="24" version="1.1" xmlns:cc="http://creativecommons.org/ns#" xmlns:dc="http://purl.org/dc/elements/1.1/"><g transform="matrix(1.25 0 0 -1.25 -67.823 626.43)"><g fill="#a87f19" transform="matrix(.30422 0 0 .30422 39.327 336.9)"><g transform="translate(106.93 508.32)"><path d="m0 0c0 14.524-11.773 26.297-26.297 26.297-0.396 0-0.79-0.01-1.182-0.028l-5.379-14.784h4.685c2.787 0 4.289-2.146 3.335-4.767l-6.635-18.234-5.571 0.001 7.12 19.544h-4.189l-7.12-19.544h-5.573l8.372 23h0.001l5.036 13.841c-11.074-3.098-19.197-13.263-19.197-25.326 0-12.421 8.613-22.83 20.192-25.583l4.88 13.411h0.004l8.609 23.657h10.261c2.79 0 4.291-2.146 3.337-4.767l-5.83-16.015c-0.444-1.22-1.869-2.218-3.167-2.218h-7.396l-5.374-14.77c0.259-0.007 0.52-0.012 0.781-0.012 14.524 0 26.297 11.774 26.297 26.297" fill="#a87f19"/></g><g transform="translate(96.547 516.37)"><path d="m0 0h-4.187l-5.864-16.089h4.187l5.864 16.089" fill="#a87f19"/></g></g></g></svg>
