<?xml version="1.0" encoding="UTF-8" standalone="no"?>
<svg xmlns:rdf="http://www.w3.org/1999/02/22-rdf-syntax-ns#" xmlns="http://www.w3.org/2000/svg" height="24pt" width="24pt" version="1.0" preserveAspectRatio="xMidYMid meet" xmlns:cc="http://creativecommons.org/ns#" xmlns:dc="http://purl.org/dc/elements/1.1/" viewBox="0 0 24 24">
 <g fill="#A87F19" transform="matrix(.0031269 0 0 -.0031259 3.9956 20.002)">
  <path d="m2225 5113c-275-35-564-125-826-259-657-334-1138-929-1320-1633-54-208-71-336-76-583-6-258 4-382 47-598 102-506 352-959 731-1325 378-365 837-596 1363-686 155-27 515-37 679-20 688 74 1314 417 1744 957 276 348 449 745 529 1214 25 146 30 512 10 684-91 781-548 1495-1215 1896-172 103-218 118-259 83-24-21-790-1658-805-1721-7-29-7-46 0-53 12-12 72-6 663 57 233 25 435 42 447 39 13-3 23-10 23-16s-76-122-168-258c-93-135-397-581-677-991-632-926-1034-1512-1046-1524-10-11 22 111 144 549 53 187 138 495 191 685 52 190 109 389 125 443 24 80 28 104 19 128-10 28-11 29-81 29-40 0-101-5-137-10s-225-27-420-50c-195-22-370-43-389-47l-34-6 7 49c3 27 19 92 35 144 51 167 477 1578 632 2090 82 272 166 543 186 602 19 59 33 114 30 122-6 16-70 20-152 9z"/>
 </g>
</svg>
