<?xml version="1.0" encoding="UTF-8" standalone="no"?>
<svg xmlns:rdf="http://www.w3.org/1999/02/22-rdf-syntax-ns#" xmlns="http://www.w3.org/2000/svg" height="24pt" width="24pt" version="1.0" preserveAspectRatio="xMidYMid meet" xmlns:cc="http://creativecommons.org/ns#" xmlns:dc="http://purl.org/dc/elements/1.1/" viewBox="0 0 24 24">
 <g fill="#A87F19" transform="matrix(.0034506 0 0 -.0034506 7.8354 20.864)">
  <path d="m2270 5094c-125-29-265-74-356-114-165-74-331-214-406-340l-36-62-34 61c-18 33-38 61-45 61-6 0-68-62-138-137-374-405-599-774-622-1021l-6-64-26 34c-14 18-38 46-53 63l-26 30-32-70c-147-324-276-722-326-1005-21-117-24-356-6-419 8-23 12-44 10-46s-37 17-78 41-79 44-84 44c-16 0 2-269 24-360 39-160 125-306 274-467l66-71-99-23c-55-13-98-25-96-27s50-20 107-39c152-51 225-104 259-188 8-21 11-116 10-325l-2-295 111-160c61-88 118-167 126-175 12-12 14 37 14 387v400l26 79c41 128 86 189 167 230 26 13 67 27 92 31 25 3 45 9 45 12 0 4-28 20-61 37l-62 30 69 51c88 65 245 226 316 323 79 108 156 239 200 342 40 94 92 258 83 266-2 3-31-3-63-12-85-23-89-21-43 29 121 132 274 427 453 875 61 151 238 617 238 624 0 1-28 0-61-2l-62-5 41 54c155 208 236 564 236 1034 0 231-7 315-27 314-7 0-59-11-117-25zm-156-208c-265-126-436-303-612-634l-60-114-43 76c-24 42-45 76-48 76-4 0-40-47-82-103-278-371-422-702-445-1019-4-54-9-98-13-98-3 0-40 20-81 44s-76 43-76 43c-1-1-31-103-67-227-79-268-100-357-123-510-22-151-15-403 15-535 22-95 93-314 98-299 1 5 25 122 52 259 149 743 400 1386 741 1895 125 187 291 392 305 379 3-4-68-160-159-348-281-578-378-801-482-1103-141-413-192-685-201-1070l-6-238h-139-140l-56 38c-79 52-165 142-213 223-44 73-124 267-115 276 3 3 40-8 82-26s78-30 81-28c2 3-4 47-13 98-21 113-23 366-5 484 15 99 60 280 100 400 42 130 171 479 179 487 4 4 38-12 75-37 36-25 69-45 72-45s5 30 5 66 9 111 21 167c46 228 167 463 369 716 80 101 247 281 260 281 4 0 17-28 30-62 12-35 26-67 30-71s33 36 65 90c99 167 189 267 315 353 74 50 126 76 245 121 133 51 152 48 39-5z"/>
 </g>
</svg>
