<?xml version="1.0" encoding="UTF-8" standalone="no"?>
<svg id="svg2" xmlns:rdf="http://www.w3.org/1999/02/22-rdf-syntax-ns#" xmlns="http://www.w3.org/2000/svg" height="24" width="24" version="1.1" xmlns:cc="http://creativecommons.org/ns#" xmlns:dc="http://purl.org/dc/elements/1.1/" viewBox="0 0 24 24">
 <metadata id="metadata30">
  <rdf:RDF>
   <cc:Work rdf:about="">
    <dc:format>image/svg+xml</dc:format>
    <dc:type rdf:resource="http://purl.org/dc/dcmitype/StillImage"/>
    <dc:title/>
   </cc:Work>
  </rdf:RDF>
 </metadata>
 <path id="rect20" d="m3.25 2c-0.6925 0-1.25 0.5575-1.25 1.25v17.5c0 0.692 0.5575 1.25 1.25 1.25h17.5c0.692 0 1.25-0.558 1.25-1.25v-17.5c0-0.6925-0.558-1.25-1.25-1.25h-17.5zm14.263 2.5894c0.11647 0.003 0.20133 0.0959 0.20133 0.23734v3.5195c0 0.17374-0.12863 0.35571-0.28643 0.40589l-4.5796 1.4526 4.5796 1.4527c0.12002 0.0381 0.22268 0.15219 0.26524 0.28093 0.01347 0.0323 0.0211 0.0697 0.0211 0.11152v3.5194 0.0136c0 0.0422-0.0077 0.0799-0.02145 0.11239-0.0428 0.12856-0.14543 0.24222-0.26498 0.28024l-10.856 3.444c-0.15812 0.0502-0.28643-0.0505-0.28643-0.22452v-3.5194c0-0.17373 0.12831-0.3557 0.28643-0.40588l4.58-1.453-4.5799-1.453c-0.1196-0.038-0.222-0.151-0.2649-0.279-0.0138-0.033-0.0215-0.071-0.0215-0.113v-0.0137-3.5057-0.0135c0-0.0421 0.00765-0.0798 0.021275-0.11222 0.04269-0.12864 0.1453-0.24246 0.26515-0.2805l10.856-3.4432c0.02959-0.009 0.05822-0.0135 0.0851-0.0128z" fill="#A87F19"/>
</svg>
