<?xml version="1.0" standalone="no"?>
<!DOCTYPE svg PUBLIC "-//W3C//DTD SVG 20010904//EN"
 "http://www.w3.org/TR/2001/REC-SVG-20010904/DTD/svg10.dtd">
<svg version="1.0" xmlns="http://www.w3.org/2000/svg"
 width="24.000000pt" height="24.000000pt" viewBox="0 0 64.000000 64.000000"
 preserveAspectRatio="xMidYMid meet">
<metadata>
Created by potrace 1.15, written by Peter Selinger 2001-2017
</metadata>
<g transform="translate(0.000000,64.000000) scale(0.100000,-0.100000)"
fill="#A87F19" stroke="none">
<path d="M215 549 c-57 -69 -70 -111 -67 -218 2 -46 4 -52 17 -41 31 26 128
80 144 80 9 0 33 -5 54 -11 35 -9 37 -12 37 -50 0 -22 -7 -51 -16 -64 l-16
-24 33 9 c18 5 34 8 36 6 2 -2 -2 -27 -8 -56 -8 -36 -22 -65 -48 -93 l-36 -40
30 7 c180 44 256 277 131 403 -51 50 -134 79 -202 68 -44 -6 -44 -6 -44 24 0
39 -11 39 -45 0z"/>
<path d="M85 426 c-13 -20 -21 -51 -23 -98 -4 -58 0 -76 23 -123 16 -35 40
-65 63 -80 48 -33 56 -31 36 6 l-16 32 30 -5 30 -4 -32 47 c-22 32 -35 44 -43
37 -21 -16 -37 32 -43 127 l-5 90 -20 -29z"/>
</g>
</svg>
