<?xml version="1.0" encoding="UTF-8" standalone="no"?>
<svg xmlns:rdf="http://www.w3.org/1999/02/22-rdf-syntax-ns#" xmlns="http://www.w3.org/2000/svg" height="24" width="24" version="1.1" y="0px" x="0px" xmlns:cc="http://creativecommons.org/ns#" xmlns:dc="http://purl.org/dc/elements/1.1/">
 <path fill="#A87F19" d="m19.899 12.698h-3.2558l0.000003-1.6279h3.2558v1.6279zm0 0.93023h-3.2558l-0.000003 1.6279h3.2558v-1.6279zm0-7.6744h-3.2558l-0.000003 1.6279h3.2558v-1.6279zm0 2.5581h-3.2558l-0.000003 1.6279h3.2558v-1.6279zm0 7.6744h-3.2558l-0.000003 1.6279h3.2558v-1.6279zm2.2488 3.2093c-0.09302 0.48372-0.67442 0.49535-1.0628 0.51163h-7.2326v2.093h-1.4442l-10.644-1.8605v-16.277l10.707-1.863h1.3814v1.8535l6.9837-0.00001c0.39302 0.01628 0.82558-0.01162 1.1674 0.22325 0.23953 0.34419 0.21629 0.7814 0.23257 1.1767l-0.0093 12.107c-0.01163 0.67675 0.06279 1.3674-0.07907 2.0349zm-11.856-3.648c-0.642-1.303-1.2955-2.596-1.935-3.898 0.6325-1.268 1.2558-2.5397 1.877-3.8118-0.5282 0.0256-1.0561 0.0582-1.5817 0.0954-0.393 0.9558-0.8512 1.8864-1.1581 2.8744-0.2861-0.933-0.6651-1.8303-1.0117-2.7396-0.5116 0.0279-1.0232 0.0582-1.5348 0.0884 0.5395 1.1907 1.1139 2.3652 1.6372 3.5632-0.6163 1.162-1.1931 2.341-1.7907 3.511 0.5093 0.02093 1.0186 0.04187 1.5279 0.04883 0.36279-0.92558 0.81395-1.8163 1.1302-2.7605 0.28372 1.0139 0.76512 1.9512 1.1605 2.9209 0.56046 0.03951 1.1186 0.07442 1.6791 0.10697zm10.835-10.789h-7.2746l-0.000003 0.9955h1.8605v1.6279h-1.8605v0.93023h1.8605v1.6279h-1.8605v0.93023h1.8605v1.6279h-1.8605v0.93023h1.8605v1.6279h-1.8605v0.93023h1.8605v1.6279h-1.8605v1.0755h7.2746v-13.931z"/>
</svg>
