<?xml version="1.0" encoding="UTF-8" standalone="no"?>
<svg xmlns:rdf="http://www.w3.org/1999/02/22-rdf-syntax-ns#" xmlns="http://www.w3.org/2000/svg" height="24" width="24" version="1.1" y="0px" x="0px" xmlns:cc="http://creativecommons.org/ns#" xmlns:dc="http://purl.org/dc/elements/1.1/">
 <path fill="#A87F19" d="m21.312 3.8605-7.4605 0.00001v-1.8605h-1.3907l-10.697 1.8651v16.274l10.634 1.861h1.4535v-1.8535l6.9815 0.000015c0.39535-0.01863 0.83491 0.01162 1.1744-0.23024 0.27209-0.41628 0.20232-0.93722 0.22558-1.407v-13.746c0.049-0.5304-0.391-0.956-0.921-0.9025zm-11.791 11.3c-0.38837 0.20232-0.96978-0.0093-1.4302 0.02324-0.3093-1.539-0.6698-3.069-0.9465-4.616-0.2721 1.503-0.6255 2.991-0.9372 4.484-0.4465-0.023-0.8954-0.051-1.3442-0.081-0.386-2.047-0.8395-4.079-1.2-6.1306 0.3977-0.0186 0.7977-0.035 1.1954-0.0489 0.23953 1.4814 0.51163 2.9558 0.72092 4.4395 0.32791-1.5209 0.66278-3.0418 0.98836-4.5628 0.44186-0.02559 0.88374-0.04417 1.3256-0.06744 0.3093 1.5698 0.62557 3.1372 0.96046 4.7 0.26279-1.614 0.5535-3.2232 0.83491-4.8349 0.46512-0.01628 0.93021-0.04187 1.393-0.06977-0.52561 2.2535-0.98606 4.5256-1.5605 6.765zm11.605 3.8815h-7.2747v-1.4606h6.0463v-0.93021h-6.0463v-1.1628h6.0463v-0.93021h-6.0463v-1.1628h6.0463v-0.93021h-6.0463v-1.1628h6.0463v-0.93021h-6.0463v-1.1628h6.0463v-0.93021h-6.0463v-1.1628h6.0463v-0.93021h-6.0463v-1.2281h7.2747v14.084z"/>
</svg>
